<svg xmlns="http://www.w3.org/2000/svg" viewBox="0 0 54.97 29.11"><defs><style>.cls-1{fill:#eb5f0a;}.cls-2{fill:#1d1d1b;}</style></defs><title>brands-logo-7</title><g id="Слой_2" data-name="Слой 2"><g id="Слой_1-2" data-name="Слой 1"><path class="cls-1" d="M26.87,2.85C27.58,2,29,.37,29.39.65c.57.45-2.27,4.1-2.61,4.42a.44.44,0,0,1-.51,0l-.16.2a5.19,5.19,0,0,0,1.2.48l.51.12.3-.31H28c-.44-.21-.2-.52,0-.85s.64-.87,1-1.29c.73-.84,2.21-2.57,2.54-2.27S30.17,4.28,29.3,5.29a1,1,0,0,1-.88.32l-.24.31a11.27,11.27,0,0,0,1.41.16h.54l.39-.45a.68.68,0,0,1-.27-.35c-.08-.43,1.47-2.54,2.39-3.43.29-.28.54-.41.62-.34.47.42-.63,2.9-1.55,3.91a1.06,1.06,0,0,1-.63.38.57.57,0,0,1-.26,0l-.25.3a4.91,4.91,0,0,0,1.2-.1l.56-.08.4-.46a.51.51,0,0,1-.24-.33c-.07-.42,3-3.94,3.41-3.49s-.94,2.72-2,3.63a1.1,1.1,0,0,1-.65.35.57.57,0,0,1-.26,0l-.19.23L34,5.62l.95-.2a.58.58,0,0,1,.23-.57c.44-.26,3.71-1.44,4.1-.84.19.28-.51,1-1.66,1.46a5.73,5.73,0,0,1-2.17.64.52.52,0,0,1-.35-.33c-.55.12-1.07.2-1.64.29l.24.24a3.71,3.71,0,0,1,1.69.48c1,.5,2.28,1.5,2.09,1.85S35.71,8.55,34.73,8s-1.56-1.18-1.4-1.58l.07-.09A.82.82,0,0,0,33,6.08c-.56.09-1.17.19-1.78.24h-.13l.18.26a3.74,3.74,0,0,1,1.88,1.09c.78.8,2.09,2.62,1.59,3s-4.5-3.61-4-4a.68.68,0,0,1,.21-.1.61.61,0,0,0-.15-.24,13.36,13.36,0,0,1-1.55,0h-.16l.13.31a1.85,1.85,0,0,1,.85.58c.53.69,2.53,3.49,2.13,4.18S27.84,7,28.33,6.66a.87.87,0,0,1,.48-.11l-.09-.26a5.23,5.23,0,0,1-1-.15,8,8,0,0,1-1.29-.29h0l.12.3a1.3,1.3,0,0,1,.68.54c.36.69,1.58,2.66,1.58,3.72,0,.46-.13.52-.48.18a17.08,17.08,0,0,1-2.6-4c-.12-.31-.09-.41.22-.48h.18l-.08-.37a6.24,6.24,0,0,1-.9-.44,7.15,7.15,0,0,1-1.06-.77c-.26-.22-.41-.36-.54-.48L23.45,4a1.93,1.93,0,0,1-.1.43,1.17,1.17,0,0,1-.11.33h0a2,2,0,0,0,.11,1.77A9.19,9.19,0,0,1,23.5,9a1,1,0,1,1-.29,0A17.52,17.52,0,0,0,23,6.79c-.32.57-1.2,1-1.43,1.33a1,1,0,1,1-1.4.23A1,1,0,0,1,21.27,8c.3-.41,1.7-1.15,1.54-1.88a1.83,1.83,0,0,0-.23-.49,3.9,3.9,0,0,1-.9.67c-.78.52-1.59.73-1.89,1.4a.85.85,0,1,1-1.18-.24.88.88,0,0,1,.91,0,5.77,5.77,0,0,1,1.53-1.2c-.45-.13-1-.35-1.58-.49a.89.89,0,1,1-.76-1,.88.88,0,0,1,.76.75c.9.17,1.84.49,2.2.27l.15-.13a4.48,4.48,0,0,1-1.21-1.09A3.43,3.43,0,0,0,20,4a.76.76,0,1,1-.39-1,.78.78,0,0,1,.45.63,2.77,2.77,0,0,1,.84.68c.36.37.92,1,1.37.87a2.38,2.38,0,0,0,.31-.54,2.43,2.43,0,0,1,.13-.45l.06-.27a5,5,0,0,0-.07-.76L22.61,3c-.14-.31-.31-.55-.45-.88a10.08,10.08,0,0,1-.38-1c-.13-.41-.1-.33-.2-.63S21.4,0,21.58,0a4,4,0,0,1,1,.42l.05.18a10.85,10.85,0,0,0,.46,1.5,6,6,0,0,0,.83,1.32,7.27,7.27,0,0,0,1,1,6,6,0,0,0,.93.66l.18-.2a.57.57,0,0,1-.27-.46A5.21,5.21,0,0,1,26.87,2.85Zm-9.7,2.06A.81.81,0,0,0,16,4.81a.78.78,0,0,0-.1,1.12A.79.79,0,0,0,17.06,6h0A.8.8,0,0,0,17.17,4.91Zm5.11,5.4a.88.88,0,1,0-.11,1.25.87.87,0,0,0,.11-1.23h0ZM18.13,3.23A.81.81,0,0,0,17,3.13a.78.78,0,0,0-.1,1.12A.79.79,0,0,0,18,4.36h0A.8.8,0,0,0,18.13,3.23Zm-.29,3.46a.9.9,0,0,0-1.38,1.17.91.91,0,0,0,1.27.1.89.89,0,0,0,.11-1.26Zm.33,2.16a.82.82,0,1,0-1.25,1.07.82.82,0,0,0,1.25-1.06Zm1.94.89A.88.88,0,1,0,20,11a.87.87,0,0,0,.11-1.24Z"/><path class="cls-2" d="M38.41,15.43l-.37.94H38a.88.88,0,0,0,0-.23.16.16,0,0,0-.09-.16H35.55v6.74a1.54,1.54,0,0,0,.07.57.31.31,0,0,0,.18.19,1.15,1.15,0,0,0,.37,0v.08H34v-.08a.62.62,0,0,0,.5-.16,1,1,0,0,0,.1-.53V15.94H32.25c-.06,0-.09.08-.09.18a.81.81,0,0,0,0,.22h0l-.37-.94h.08a.41.41,0,0,0,.19.22.9.9,0,0,0,.4,0H37.7a1.62,1.62,0,0,0,.44,0,.28.28,0,0,0,.2-.22Z"/><path class="cls-2" d="M29.37,19.94H27.05l-1.18,3a1.46,1.46,0,0,0-.12.39c0,.12.09.18.26.18v.08H24.84v-.08a.64.64,0,0,0,.4-.11,1.44,1.44,0,0,0,.35-.6l2.86-7.2h.14l2.8,7a2.91,2.91,0,0,0,.22.51.68.68,0,0,0,.66.45v.08H30.42v-.08c.17,0,.25-.06.25-.2a1.73,1.73,0,0,0-.12-.43v-.12L29.43,20Zm-2.2-.22h2.1L28.17,17Z"/><path class="cls-2" d="M17.17,15.77v-.08h3.46a2.38,2.38,0,0,1,.78.25,1.5,1.5,0,0,1,.6.57,1.83,1.83,0,0,1,.2.88,2,2,0,0,1-.36,1.14,2.84,2.84,0,0,1-1,.92l.56.85a15.29,15.29,0,0,0,1,1.4A5.85,5.85,0,0,0,23.62,23a.88.88,0,0,0,1,.13h0a1.24,1.24,0,0,1-.9.39,1.67,1.67,0,0,1-1.17-.4,12.74,12.74,0,0,1-1.71-2.22h0l-.79-1.22H18.71v3a1,1,0,0,0,.1.52c.06.1.22.16.46.16v.08h-2.1v-.08c.25,0,.41-.06.46-.16a1.17,1.17,0,0,0,.09-.59V16.48a1.3,1.3,0,0,0-.08-.51q-.08-.2-.48-.21Zm1.47.14v3.68h.82a1.94,1.94,0,0,0,1.44-.46,1.57,1.57,0,0,0,.47-1.2,2.28,2.28,0,0,0-.46-1.37,1.9,1.9,0,0,0-1.63-.65Z"/><path class="cls-2" d="M13.38,19.94H11.05l-1.18,3a1.94,1.94,0,0,0-.12.39c0,.12.09.18.26.18v.08H8.84v-.08a.64.64,0,0,0,.4-.11,1.44,1.44,0,0,0,.35-.6l2.86-7.2h.14l2.8,7a2.91,2.91,0,0,0,.22.51.68.68,0,0,0,.66.45v.08H14.42v-.08c.17,0,.25-.06.25-.2a1.39,1.39,0,0,0-.12-.43v-.12L13.43,20Zm-2.21-.22h2.1L12.17,17Z"/><path class="cls-2" d="M0,15.69H2.25v.08a.82.82,0,0,0-.51.11c-.1.08-.15.3-.15.65v3L6.26,16c.09-.06.14-.12.14-.17s-.11-.1-.32-.1v-.08h1.7v.08a2.26,2.26,0,0,0-1.25.47l-4.07,3,4.06,3.1h.05a10.38,10.38,0,0,0,1.24.84,1.63,1.63,0,0,0,.83.24v.08H6V23.4c.24,0,.36,0,.36-.08S6.23,23.18,6,23l-4.45-3.3v2.92a1.48,1.48,0,0,0,.07.63.35.35,0,0,0,.19.17.86.86,0,0,0,.39,0v.08H0v-.08c.3,0,.49,0,.56-.14a1.23,1.23,0,0,0,.11-.66V16.57a1.28,1.28,0,0,0-.1-.72c-.08-.1-.26-.15-.56-.13v0Z"/><path class="cls-2" d="M51.4,23.69h-.1l-2.8-6.94a2.12,2.12,0,0,0-.49-.86.82.82,0,0,0-.4-.13v-.08h1.82v.08c-.16,0-.24.05-.24.19a.48.48,0,0,0,0,.17l2.45,6.06,2.43-6.06a.67.67,0,0,0,0-.2c0-.12-.09-.18-.28-.17v-.08H55v.08h-.26c-.09,0-.18.11-.28.28l-.15.26-3,7.36Z"/><path class="cls-2" d="M43.31,15.45a3.76,3.76,0,0,1,2.71,1,3.38,3.38,0,0,1,1,2.52,4.69,4.69,0,0,1-1.22,3.27,4.14,4.14,0,0,1-3.24,1.33,3.6,3.6,0,0,1-3.72-3.49v-.15a4.86,4.86,0,0,1,.5-2.08,4.22,4.22,0,0,1,3.91-2.41Zm0,7.72a3.49,3.49,0,0,0,2.86-1.64A3,3,0,0,0,46.62,20a3.77,3.77,0,0,0-.65-2.1,4.4,4.4,0,0,0-1.59-1.47,4,4,0,0,0-1.8-.53,3.09,3.09,0,0,0-2.13.89,2.88,2.88,0,0,0-1,2.2,4.2,4.2,0,0,0,1.22,2.91,3.45,3.45,0,0,0,2.61,1.27Z"/><path class="cls-2" d="M8.1,28.14h.83a.22.22,0,0,0,.19-.06.18.18,0,0,0,.07-.16.2.2,0,0,0-.07-.16.41.41,0,0,0-.19-.05H8.1v.42Zm0,.23v.68H7.85V27.5H8.92a.63.63,0,0,1,.37.12.43.43,0,0,1,.14.32.42.42,0,0,1-.11.29.39.39,0,0,1-.28.15l.43.68h-.3l-.44-.68Z"/><path class="cls-2" d="M10.71,27.5H11v1a.35.35,0,0,0,.11.3.69.69,0,0,0,.42.08.69.69,0,0,0,.42-.08.35.35,0,0,0,.11-.3v-1h.24v1.06a.46.46,0,0,1-.18.41.94.94,0,0,1-.59.13.94.94,0,0,1-.59-.13.44.44,0,0,1-.18-.42Z"/><path class="cls-2" d="M13.48,28.85l.12-.2a1,1,0,0,0,.35.17,1.13,1.13,0,0,0,.36.06.57.57,0,0,0,.34-.08.24.24,0,0,0,.13-.22.22.22,0,0,0-.12-.2.94.94,0,0,0-.37-.07,1.21,1.21,0,0,1-.59-.1.32.32,0,0,1-.16-.31.4.4,0,0,1,.17-.32.94.94,0,0,1,.46-.13,2.63,2.63,0,0,1,.39.06,1.49,1.49,0,0,1,.36.17l-.12.2a1.77,1.77,0,0,0-.31-.15,1.64,1.64,0,0,0-.32-.05.72.72,0,0,0-.29.06.2.2,0,0,0-.11.16.14.14,0,0,0,.11.15.81.81,0,0,0,.38,0,1.08,1.08,0,0,1,.56.13.46.46,0,0,1,0,.74.76.76,0,0,1-.5.15,1.17,1.17,0,0,1-.45-.06,1.35,1.35,0,0,1-.41-.18Z"/><path class="cls-2" d="M16.27,28.85l.12-.2a1,1,0,0,0,.35.17,1.13,1.13,0,0,0,.36.06.57.57,0,0,0,.34-.08.24.24,0,0,0,.13-.22.22.22,0,0,0-.12-.2.94.94,0,0,0-.37-.07,1.21,1.21,0,0,1-.59-.1.32.32,0,0,1-.16-.31.4.4,0,0,1,.17-.32.94.94,0,0,1,.47-.12,2.63,2.63,0,0,1,.39.06,1.49,1.49,0,0,1,.36.17l-.12.2a1.77,1.77,0,0,0-.31-.15,1.64,1.64,0,0,0-.32,0,.72.72,0,0,0-.29.06.2.2,0,0,0-.11.16.14.14,0,0,0,.11.15.81.81,0,0,0,.38,0,1.08,1.08,0,0,1,.56.13.46.46,0,0,1,0,.74.76.76,0,0,1-.5.15,1.17,1.17,0,0,1-.45-.06A1.18,1.18,0,0,1,16.27,28.85Z"/><polygon class="cls-2" points="19.09 29.07 19.34 29.07 19.34 27.5 19.09 27.5 19.09 29.07 19.09 29.07"/><path class="cls-2" d="M21.1,28.45h.61l-.3-.6Zm-.57.6.79-1.56h.15l.8,1.56H22l-.2-.4H21l-.2.4Z"/><polygon class="cls-2" points="23.48 29.07 23.48 27.5 23.61 27.5 24.59 28.59 24.59 27.5 24.83 27.5 24.83 29.07 24.71 29.07 23.72 27.98 23.72 29.07 23.48 29.07 23.48 29.07"/><path class="cls-2" d="M28.49,28.39h.24v.17a.26.26,0,0,0,.11.25.53.53,0,0,0,.33,0,.38.38,0,0,0,.32-.1.56.56,0,0,0,.09-.36v-.92h.24v1a.56.56,0,0,1-.16.46.75.75,0,0,1-.52.14.74.74,0,0,1-.5-.13.47.47,0,0,1-.16-.39v-.16Z"/><polygon class="cls-2" points="31.3 29.07 31.3 27.5 32.76 27.5 32.76 27.73 31.54 27.73 31.54 28.11 32.34 28.11 32.34 28.34 31.54 28.34 31.54 28.84 32.83 28.84 32.83 29.07 31.3 29.07 31.3 29.07"/><polygon class="cls-2" points="34.43 29.07 33.9 27.5 34.14 27.5 34.52 28.64 34.91 27.5 35.12 27.5 35.51 28.64 35.89 27.5 36.13 27.5 35.61 29.07 35.43 29.07 35.02 27.86 34.6 29.07 34.43 29.07 34.43 29.07"/><polygon class="cls-2" points="37.39 29.07 37.39 27.5 38.85 27.5 38.85 27.73 37.63 27.73 37.63 28.11 38.43 28.11 38.43 28.34 37.63 28.34 37.63 28.84 38.92 28.84 38.92 29.07 37.39 29.07 37.39 29.07"/><polygon class="cls-2" points="40.22 29.07 40.22 27.5 40.47 27.5 40.47 28.84 41.63 28.84 41.63 29.07 40.22 29.07 40.22 29.07"/><path class="cls-2" d="M43.11,28.14h.83a.22.22,0,0,0,.19-.06.18.18,0,0,0,.07-.16.2.2,0,0,0-.07-.16.41.41,0,0,0-.19-.05h-.83v.42Zm0,.23v.68h-.24V27.5h1.07a.63.63,0,0,1,.37.12.43.43,0,0,1,.14.32.42.42,0,0,1-.11.29.39.39,0,0,1-.28.15l.43.68h-.27l-.44-.68Z"/><polygon class="cls-2" points="46.23 29.07 46.23 28.27 45.52 27.5 45.84 27.5 46.35 28.05 46.86 27.5 47.19 27.5 46.47 28.27 46.47 29.07 46.23 29.07 46.23 29.07"/></g></g></svg>