<svg xmlns="http://www.w3.org/2000/svg" viewBox="0 0 227.12 60.55"><title>brands-logo-1</title><g id="Слой_2" data-name="Слой 2"><g id="Layer_1" data-name="Layer 1"><path d="M68.9,60.55h-.15a3.86,3.86,0,0,1-3-1,2.76,2.76,0,0,1-.59-1.1A4.71,4.71,0,0,1,65,57.11v-1h1v1A2.57,2.57,0,0,0,66.54,59a3.12,3.12,0,0,0,2.12.65h.1A3.38,3.38,0,0,0,70.93,59a1.78,1.78,0,0,0,.46-.84,5.15,5.15,0,0,0,.17-1.42V48.22h1V57a5.05,5.05,0,0,1-.18,1.4,2.88,2.88,0,0,1-.6,1.15A4,4,0,0,1,68.9,60.55Zm17.69-.32H78.35v-12h8.16v.87H79.32v4.47h6.76v.87H79.32v4.93h7.27Zm15.78,0h-1v0L98.21,49.35l-3.1,10.88h-1v0l-3.44-12h1v0l3,10.69,3-10.72h1.09v0l3.09,10.69,2.94-10.72h1Zm16.56,0h-8.22v-12h8.14v.87h-7.18v4.47h6.78v.87h-6.78v4.93h7.26Zm13.14,0h-7.66v-12h1V59.36h6.69v.87ZM137.3,54h4.08c1.08,0,2.89-.34,2.89-2.59s-2-2.33-2.89-2.33H137.3Zm8.2,6.22h-1.1l0-.06a4.28,4.28,0,0,1-.31-2.08,3.42,3.42,0,0,0-.6-2.57,2.76,2.76,0,0,0-2.08-.64H137.3v5.35h-1v-12h5c2.52,0,3.85,1.09,3.85,3.15a3,3,0,0,1-2.14,3c1.81.45,2,2,2,3.46V58a4.08,4.08,0,0,0,.29,2.06Zm9.43,0h-1v-5l-4.82-7h1.13l4.19,6.14,4.22-6.14h1.08l0,.06-4.79,7v5Z"/><path d="M61.79,10.75a16.58,16.58,0,0,0-2.93-5.54A14.27,14.27,0,0,0,54,1.41,14.94,14.94,0,0,0,47.41,0a14.88,14.88,0,0,0-6.62,1.41A14.08,14.08,0,0,0,36,5.21,16.53,16.53,0,0,0,33,10.75a21.79,21.79,0,0,0-1,6.63A21.86,21.86,0,0,0,33,24,16.74,16.74,0,0,0,36,29.55a13.68,13.68,0,0,0,4.83,3.78,15.09,15.09,0,0,0,6.62,1.39A15.16,15.16,0,0,0,54,33.33a14,14,0,0,0,4.83-3.78A16.57,16.57,0,0,0,61.79,24a21.89,21.89,0,0,0,1-6.63A21.89,21.89,0,0,0,61.79,10.75ZM47.41,32.4A12.73,12.73,0,0,1,42,31.29a11.44,11.44,0,0,1-4-3.08,14.41,14.41,0,0,1-2.57-4.74,20.33,20.33,0,0,1-1-6.08,20.36,20.36,0,0,1,1-6.1,14.34,14.34,0,0,1,2.57-4.73,11.72,11.72,0,0,1,4-3.09,13.84,13.84,0,0,1,10.86,0,11.78,11.78,0,0,1,4,3.09,14.36,14.36,0,0,1,2.59,4.73,21,21,0,0,1,1,6.08,20.9,20.9,0,0,1-1,6.1,14.15,14.15,0,0,1-2.59,4.74,11.4,11.4,0,0,1-4,3.08A12.79,12.79,0,0,1,47.41,32.4Zm81.77-21.65a16.64,16.64,0,0,0-2.94-5.54,14.07,14.07,0,0,0-4.84-3.8,16.22,16.22,0,0,0-13.23,0,14.2,14.2,0,0,0-4.85,3.8,16.87,16.87,0,0,0-2.92,5.54,22.48,22.48,0,0,0,0,13.26,16.77,16.77,0,0,0,2.92,5.54,14,14,0,0,0,4.85,3.78,16.41,16.41,0,0,0,13.22,0,13.78,13.78,0,0,0,4.85-3.78A16.58,16.58,0,0,0,129.18,24a21.77,21.77,0,0,0,1-6.64,21.7,21.7,0,0,0-1-6.63Zm-1.37,6.62a20.09,20.09,0,0,1-1,6.1,14.22,14.22,0,0,1-2.59,4.75,11.44,11.44,0,0,1-4,3.07,13.79,13.79,0,0,1-10.84,0,11.47,11.47,0,0,1-4-3.08,14,14,0,0,1-2.57-4.74,19.6,19.6,0,0,1,0-12.18,14.18,14.18,0,0,1,2.57-4.74,11.68,11.68,0,0,1,4-3.08,12.73,12.73,0,0,1,5.43-1.11,12.88,12.88,0,0,1,5.41,1.11,11.58,11.58,0,0,1,4.06,3.09,14.16,14.16,0,0,1,2.58,4.73,20.06,20.06,0,0,1,1,6.08Zm13.05,14.27V.76h-2.37V34h20.92V31.64Zm51.95-20.89a16.82,16.82,0,0,0-2.94-5.54A14.47,14.47,0,0,0,185,1.41a16.25,16.25,0,0,0-13.24,0A14.31,14.31,0,0,0,167,5.21,16.72,16.72,0,0,0,164,10.75a21.8,21.8,0,0,0-1,6.63A21.84,21.84,0,0,0,164,24,16.7,16.7,0,0,0,167,29.55a14.08,14.08,0,0,0,4.84,3.78,16.54,16.54,0,0,0,13.23,0,14.17,14.17,0,0,0,4.84-3.78A17,17,0,0,0,192.81,24a22,22,0,0,0,1-6.63,21.7,21.7,0,0,0-1-6.63ZM178.41,32.4A12.62,12.62,0,0,1,173,31.29a11.53,11.53,0,0,1-4.05-3.08,14.06,14.06,0,0,1-2.58-4.74,19.6,19.6,0,0,1,0-12.18A14,14,0,0,1,169,6.56a11.59,11.59,0,0,1,4-3.09,12.8,12.8,0,0,1,5.42-1.11,13,13,0,0,1,5.44,1.11,11.88,11.88,0,0,1,4,3.09,14.32,14.32,0,0,1,2.58,4.73,19.8,19.8,0,0,1,0,12.18,14.25,14.25,0,0,1-2.59,4.74,11.66,11.66,0,0,1-4,3.08,12.85,12.85,0,0,1-5.45,1.11ZM224.68.76,213.47,30.18,201.91.76h-2.42l13,33.25h2L227.12.76ZM97.84,34,74.25,16.86,97,.76H93.12L73.06,14.88V.76H70.69V34h2.37V18.85L94.16,34ZM24.1,21.14a7.33,7.33,0,0,0-2.59-2.6A13.6,13.6,0,0,0,17.87,17c-1.32-.36-6.94-1.76-8.24-2.06a13.82,13.82,0,0,1-3.31-1.18,6.61,6.61,0,0,1-2.25-1.87,5.06,5.06,0,0,1-.8-3,5.79,5.79,0,0,1,.79-3.13,6.81,6.81,0,0,1,2.15-2,9.49,9.49,0,0,1,3-1.09,18.6,18.6,0,0,1,3.33-.32,16,16,0,0,1,3.78.42,7.92,7.92,0,0,1,3,1.36,6.89,6.89,0,0,1,2,2.47,7.15,7.15,0,0,1,.58,1.69l.09.4h2.38l-.13-.6a10.83,10.83,0,0,0-.81-2.54,9.07,9.07,0,0,0-2.59-3.25A10.44,10.44,0,0,0,17,.54,18,18,0,0,0,12.54,0a20.29,20.29,0,0,0-4,.42A11.66,11.66,0,0,0,4.77,1.84,8.15,8.15,0,0,0,2,4.6,8.1,8.1,0,0,0,.9,8.92,7.56,7.56,0,0,0,2,13.09a7.76,7.76,0,0,0,2.72,2.56,14.73,14.73,0,0,0,3.63,1.42c1.36.35,6.38,1.54,7.65,1.81a14.82,14.82,0,0,1,3.44,1.18,6.8,6.8,0,0,1,2.4,2,5.47,5.47,0,0,1,.9,3.35,5.85,5.85,0,0,1-.8,3.13,6.72,6.72,0,0,1-2.14,2.17A9.88,9.88,0,0,1,16.66,32a15.63,15.63,0,0,1-3.54.41,17.6,17.6,0,0,1-4.46-.53,9.07,9.07,0,0,1-3.38-1.66,7.5,7.5,0,0,1-2.16-2.95,10,10,0,0,1-.68-2.69l0-.44H0l.06.55a11.83,11.83,0,0,0,.84,3.5,9.64,9.64,0,0,0,2.78,3.76,11.23,11.23,0,0,0,4.24,2.13,20,20,0,0,0,9.42.17,11.94,11.94,0,0,0,3.84-1.62A9.16,9.16,0,0,0,24,29.74a8,8,0,0,0,1.1-4.26A8.45,8.45,0,0,0,24.1,21.14Z"/></g></g></svg>