<svg xmlns="http://www.w3.org/2000/svg" viewBox="0 0 738.01 682.07"><defs><style>.cls-1{fill:#fff;}</style></defs><g id="Слой_2" data-name="Слой 2"><g id="Capa_1" data-name="Capa 1"><path class="cls-1" d="M102.23.54,713.81,18.41c22.26.65,24.09,13.39,23.64,28.88l-14.4,492.83c-.45,15.49-5.55,27.69-25.29,27.45l-65-1.82L402.18,675.19l94.47-113.26L92.34,550.6C67,548.27,62.1,536.31,62.55,520.82L77,28C77.4,12.5,76.18-.44,102.23.54Z"/><path d="M400.33,676.62,495.6,562.4,92.32,551.1C64.93,548.58,61.64,534.37,62,520.8L76.44,28c0-.86,0-1.7.07-2.54C76.71,17,76.88,9.65,81.86,5,85.77,1.29,92.45-.32,102.25.05L713.82,17.92c23,.67,24.57,14.29,24.13,29.39l-14.4,492.82c-.35,12.12-3.41,28.21-25.79,27.93l-64.87-1.82Zm97.38-115.17L404,673.75,632.71,565.23h.12l65,1.82c16.58.2,24.22-8.11,24.77-27L737,47.23c.44-15.13-1-27.71-23.15-28.36L102.27,1c-9.55-.38-16,1.16-19.67,4.65-4.67,4.4-4.84,11.52-5,19.77,0,.84,0,1.69-.07,2.55L63.13,520.79c-.4,13.76,2.87,26.83,29.34,29.27Z"/><path class="cls-1" d="M63.26,26.18,671.53,40.94c22.14.54,24,13.19,23.65,28.6L683.29,559.75c-.37,15.41-5.38,27.56-25,27.42l-64.63-1.49-153.95,88.5L458.2,582.5,56.08,573.23C30.9,571,25.93,559.16,26.31,543.76L38.2,53.6C38.62,38.2,37.34,25.34,63.26,26.18Z"/><path d="M439.05,675.17,457.64,583,56.12,573.75c-27.25-2.37-30.59-16.49-30.26-30L37.71,53.59c0-.85,0-1.69,0-2.53.16-8.43.29-15.7,5.22-20.39,3.87-3.68,10.49-5.3,20.25-5L671.5,40.43c22.93.56,24.5,14.09,24.14,29.11L683.79,559.75c-.29,12-3.23,27.91-25.18,27.91h-.34l-64.5-1.49ZM60.94,26.65c-8.22,0-13.87,1.56-17.23,4.75C39.08,35.8,39,42.88,38.8,51.08c0,.84,0,1.68,0,2.53L26.86,543.75c-.33,13.69,3,26.67,29.32,29L458.87,582l-.12.59-18.28,90.59,153-88.07h.14l64.63,1.49c16.51.12,24-8.19,24.5-26.93L694.71,69.53c.37-15.05-1.13-27.55-23.16-28.09L63.28,26.68c-.81,0-1.59,0-2.34,0Z"/><path class="cls-1" d="M23.1,56,607.78,34c21.28-.8,23.84,11.24,24.4,26l17.71,471.15c.56,14.81-3.53,26.77-22.38,27.8l-62.12,2.41-213,119.15,82.91-114.1-386.5,15c-24.3-.61-29.77-11.71-30.33-26.52L.71,83.81C.17,69-1.82,56.75,23.1,56Z"/><path d="M350.71,682.07,434.32,567,48.81,582c-26.3-.66-30.34-14-30.82-27L.28,83.85c0-.82-.07-1.63-.1-2.43C-.17,73.32-.47,66.33,4,61.54c3.49-3.76,9.77-5.72,19.14-6l584.68-22c22-.83,24.35,12.06,24.9,26.5l17.71,471.15c.44,11.59-1.46,27.13-22.83,28.3l-62,2.41ZM436.26,566,354.05,679.11,565.3,561h.11l62.12-2.41c15.83-.86,22.59-9.29,21.92-27.31L631.71,60.1c-.54-14.47-2.72-26.38-23.9-25.58l-584.68,22C14,56.77,8,58.65,4.66,62.21.48,66.7.78,73.51,1.12,81.39c0,.8.07,1.62.1,2.44L18.91,555c.49,13.16,4.45,25.42,29.86,26.06Z"/></g></g></svg>