<svg xmlns="http://www.w3.org/2000/svg" viewBox="0 0 581.37 277.51"><defs><style>.cls-1{fill:#fffdfd;}.cls-1,.cls-2,.cls-4{stroke:#000;stroke-miterlimit:10;stroke-width:0.5px;}.cls-2{fill:#fff;}.cls-3{fill:#dfba8e;}.cls-4{fill:none;}</style></defs><title>letter-pict_1</title><g id="Слой_2" data-name="Слой 2"><g id="Capa_1" data-name="Capa 1"><polygon class="cls-1" points="0.77 132.19 581.12 132.19 580.97 178.71 1 178.71 0.77 132.19"/><path class="cls-2" d="M51,.25H527.2c10.48,0,19,5.19,19,11.54V213.72c0,6.35-8.57,11.54-19,11.54L54.43,239.55C44,239.55,32,220.07,32,213.72V11.79C32,5.44,40.55.25,51,.25Z"/><path class="cls-3" d="M485.71,7,515.87.34h9.42a34.71,34.71,0,0,1,8.64.76c4.1.91,7.68,2.61,9.37,4.5L544.23,7ZM239.08,7,269.24.37h66L305,7ZM33.91,7l.88-1a13.62,13.62,0,0,1,3.53-2.65,28.23,28.23,0,0,1,14-3.08L99.62.37,69.47,7Z"/><path d="M361.15,7,391.25.26h65.86L427,7ZM116.53,7,146.64.26H212.5L182.39,7Z"/><path class="cls-1" d="M580.59,265.52c0,6.46-12.24,11.74-27.2,11.74H27.45c-15,0-27.2-5.28-27.2-11.74V132.46l81,70.34,499.39-70.34V265.52Z"/><line class="cls-4" x1="81.03" y1="202.97" x2="0.28" y2="214.62"/></g></g></svg>