<svg xmlns="http://www.w3.org/2000/svg" viewBox="0 0 14.22 14.46"><g id="Слой_2" data-name="Слой 2"><g id="Layer_1" data-name="Layer 1"><circle cx="7.74" cy="7.04" r="1.3"/><path d="M14.22.33,13.86,0l-3.2,3.5A1.24,1.24,0,0,0,10,3.28H7a3,3,0,0,0-1.89.78L.37,8.7a1.26,1.26,0,0,0,0,1.78L4,14.09a1.26,1.26,0,0,0,1.78,0l4.67-4.67a3,3,0,0,0,.78-1.89v-3A1.22,1.22,0,0,0,11,3.84L14.18.37ZM10.71,7.55a2.53,2.53,0,0,1-.64,1.54L5.4,13.76a.77.77,0,0,1-1.07,0l-3.6-3.6a.75.75,0,0,1,0-1.06L5.4,4.43a2.53,2.53,0,0,1,1.54-.64h3a.76.76,0,0,1,.76.76h0v3Z"/></g></g></svg>