<svg xmlns="http://www.w3.org/2000/svg" viewBox="0 0 8.38 14.08"><path d="M1.93,12.85A4.3,4.3,0,0,0,3,13.68a3.13,3.13,0,0,0,2.54.23A4.28,4.28,0,0,0,6.86,13a6.85,6.85,0,0,0,1.4-3.93,29.57,29.57,0,0,0,.08-4.21c0-.72-.5-.38-.49.34.06,2.53.48,7-2.54,8.43a1.76,1.76,0,0,1-1,.08,3.54,3.54,0,0,1-2.27-1.38C.2,9.91.1,6.3.59,2.68c.7-2.91,3.65-2.73,4.52-1a14.48,14.48,0,0,1,.83,6.24,15.46,15.46,0,0,1-.4,2.34c-.36.75-.41,1-1.16,1.15-1.59.21-1.79-2.71-1.83-3.15a23.69,23.69,0,0,1-.1-3.67c0-.72-.27-1.37-.31-.66a20.14,20.14,0,0,0,.14,5c.21,1.1.37,2.52,1.71,2.78a1.75,1.75,0,0,0,1.87-1.15,10.9,10.9,0,0,0,.4-2.17,16.44,16.44,0,0,0,.11-2.89C6.25,3.73,5.66.07,3.31,0,.31-.08.18,2.77,0,5a13.92,13.92,0,0,0,.61,5.48A6.11,6.11,0,0,0,1.93,12.85Z"/></svg>