<svg xmlns="http://www.w3.org/2000/svg" viewBox="0 0 7.11 9.53"><title>basket-icon</title><g id="Слой_2" data-name="Слой 2"><g id="Capa_1" data-name="Capa 1"><path d="M7,9.53H.14a.18.18,0,0,1-.1,0,.15.15,0,0,1,0-.11L.33,2.56a.14.14,0,0,1,.14-.14H6.64a.15.15,0,0,1,.15.14l.32,6.82a.15.15,0,0,1,0,.11A.18.18,0,0,1,7,9.53ZM.3,9.24H6.82L6.5,2.71H.61Z"/><path d="M5.12,3.28A.15.15,0,0,1,5,3.14V1.71a1.42,1.42,0,1,0-2.83,0V3.14A.15.15,0,0,1,2,3.28a.14.14,0,0,1-.14-.14V1.71a1.71,1.71,0,1,1,3.41,0V3.14A.14.14,0,0,1,5.12,3.28Z"/></g></g></svg>