<svg xmlns="http://www.w3.org/2000/svg" viewBox="0 0 69.35 72.38"><defs><style>.cls-1{fill:#f6f6f8;}.cls-2{fill:#fff;}.cls-2,.cls-3{stroke:#000;stroke-miterlimit:10;}.cls-3{fill:none;}</style></defs><title>cash-icon</title><g id="Слой_2" data-name="Слой 2"><g id="Capa_1" data-name="Capa 1"><rect class="cls-1" x="3.2" y="24" width="62.56" height="45.18" rx="9" ry="9"/><path d="M56.76,69.68H12.2a9.51,9.51,0,0,1-9.5-9.5V33a9.51,9.51,0,0,1,9.5-9.5H56.76a9.51,9.51,0,0,1,9.5,9.5V60.18A9.51,9.51,0,0,1,56.76,69.68ZM12.2,24.5A8.51,8.51,0,0,0,3.7,33V60.18a8.51,8.51,0,0,0,8.5,8.5H56.76a8.51,8.51,0,0,0,8.5-8.5V33a8.51,8.51,0,0,0-8.5-8.5Z"/><rect class="cls-2" x="17.13" y="23.64" width="47.31" height="28.77" transform="translate(-7.97 65.1) rotate(-72.04)"/><rect class="cls-3" x="20.26" y="26.77" width="40.98" height="22.06" transform="translate(-7.78 64.91) rotate(-72.04)"/><rect class="cls-1" x="15.17" y="4.18" width="26.77" height="45.31" transform="translate(-8.58 14.33) rotate(-24.62)"/><path d="M25.58,53.67,6.29,11.57,31.54,0,50.83,42.1Zm-18-41.61L26.07,52.34,49.5,41.61,31.05,1.33Z"/><rect class="cls-1" x="17.85" y="6.7" width="21.06" height="39.98" transform="translate(-8.54 14.25) rotate(-24.62)"/><path d="M26.89,49.91,9.82,12.66,29.88,3.47,46.94,40.72ZM11.15,13.15,27.38,48.59l18.24-8.36L29.38,4.8Z"/><rect class="cls-1" x="0.5" y="26.7" width="62.56" height="45.18" rx="9" ry="9"/><path d="M54.06,72.38H9.5A9.51,9.51,0,0,1,0,62.88V35.7a9.52,9.52,0,0,1,9.5-9.5H54.06a9.52,9.52,0,0,1,9.5,9.5V62.88A9.52,9.52,0,0,1,54.06,72.38ZM9.5,27.2A8.51,8.51,0,0,0,1,35.7V62.88a8.51,8.51,0,0,0,8.5,8.5H54.06a8.51,8.51,0,0,0,8.5-8.5V35.7a8.52,8.52,0,0,0-8.5-8.5Z"/><rect class="cls-1" x="50.41" y="42.92" width="18.44" height="12.36" rx="5.5" ry="5.5"/><path d="M63.35,55.78H55.91a6,6,0,0,1-6-6V48.42a6,6,0,0,1,6-6h7.44a6,6,0,0,1,6,6v1.36A6,6,0,0,1,63.35,55.78ZM55.91,43.42a5,5,0,0,0-5,5v1.36a5,5,0,0,0,5,5h7.44a5,5,0,0,0,5-5V48.42a5,5,0,0,0-5-5Z"/><rect x="22.53" y="20.26" width="3.7" height="0.9" transform="translate(-6.34 11.79) rotate(-24.15)"/><path d="M21.21,14.76l2-.92c1.61-.72,2.94-.67,3.64.91s-.08,2.7-1.65,3.41l-1.19.52,1.28,2.85-.91.41Z"/></g></g></svg>