<svg xmlns="http://www.w3.org/2000/svg" viewBox="0 0 79.1 67.56"><defs><style>.cls-1{fill:#f6f6f8;}</style></defs><title>cashless-icon</title><g id="Слой_2" data-name="Слой 2"><g id="Capa_1" data-name="Capa 1"><rect class="cls-1" x="5.03" y="8.38" width="62.56" height="45.18" rx="4.25" ry="4.25" transform="translate(12.23 -10.23) rotate(19.23)"/><path d="M55.78,61.94a4.7,4.7,0,0,1-1.56-.27l-51-17.8a4.75,4.75,0,0,1-2.92-6L12.35,3.19a4.76,4.76,0,0,1,6-2.92l51,17.8a4.78,4.78,0,0,1,2.92,6.05L60.27,58.75a4.65,4.65,0,0,1-2.42,2.71A4.72,4.72,0,0,1,55.78,61.94ZM16.84,1a3.79,3.79,0,0,0-1.64.38,3.73,3.73,0,0,0-1.91,2.14L1.21,38.15a3.75,3.75,0,0,0,2.3,4.77l51,17.81a3.75,3.75,0,0,0,4.78-2.31L71.41,23.79a3.69,3.69,0,0,0-.17-2.86A3.65,3.65,0,0,0,69.11,19l-51-17.81A3.74,3.74,0,0,0,16.84,1Z"/><rect class="cls-1" x="9.3" y="14.44" width="62.8" height="8.67" transform="translate(8.37 -12.27) rotate(19.08)"/><path d="M69.27,33.77,9,12.91l3.16-9.13,60.3,20.85Zm-59-21.48,58.41,20.2,2.51-7.24L12.75,5.05Z"/><rect class="cls-1" x="16.03" y="21.88" width="62.56" height="45.18" rx="4.25" ry="4.25"/><path d="M74.34,67.56H20.28a4.75,4.75,0,0,1-4.75-4.75V26.13a4.75,4.75,0,0,1,4.75-4.75H74.34a4.75,4.75,0,0,1,4.75,4.75V62.81A4.75,4.75,0,0,1,74.34,67.56ZM20.28,22.38a3.76,3.76,0,0,0-3.75,3.75V62.81a3.76,3.76,0,0,0,3.75,3.75H74.34a3.75,3.75,0,0,0,3.75-3.75V26.13a3.75,3.75,0,0,0-3.75-3.75Z"/><rect class="cls-1" x="16.03" y="33.73" width="62.56" height="8.67"/><path d="M79.1,42.89H15.53V33.23H79.1Zm-62.57-1H78.1V34.23H16.53Z"/><circle cx="71.03" cy="59.1" r="2.71"/></g></g></svg>