<svg xmlns="http://www.w3.org/2000/svg" viewBox="0 0 12.14 13.07"><g id="Слой_2" data-name="Слой 2"><g id="Layer_1" data-name="Layer 1"><path d="M10.32,8A5.13,5.13,0,1,0,.94,5.13,5.1,5.1,0,0,0,1.83,8L0,11.18l2.25-.12,1,2,1.69-2.92a5.27,5.27,0,0,0,1.12.13,4.86,4.86,0,0,0,1.14-.13l1.69,2.93,1-2,2.25.12Zm-7,4.09-.77-1.51-1.69.09,1.3-2.25a5.22,5.22,0,0,0,.46.48l0,.07a5.09,5.09,0,0,0,1.13.76h.06A5,5,0,0,0,4.5,10Zm1.3-2.55a1.07,1.07,0,0,1-.41-.15c-.14-.07-.28-.14-.41-.22a3.26,3.26,0,0,1-.4-.24,4.22,4.22,0,0,1-.56-.47c-.17-.08-.17-.19-.28-.27A4.6,4.6,0,0,1,1.39,5.13,4.67,4.67,0,1,1,9.93,7.74h0a5.07,5.07,0,0,1-.37.44,2.85,2.85,0,0,1-.23.26A4.46,4.46,0,0,1,8.7,9c-.11.08-.24.14-.36.21s-.25.15-.38.21-.28.1-.42.15a4.7,4.7,0,0,1-1.48.26,4.68,4.68,0,0,1-1.48-.24Zm5.05,1-.8,1.56L7.67,10a5.24,5.24,0,0,0,.65-.27h0A5.13,5.13,0,0,0,9.45,9l.08-.07A5.22,5.22,0,0,0,10,8.42l1.31,2.27Z"/><path d="M8.58,4.68a.2.2,0,0,0,0-.27.19.19,0,0,0-.1,0l-1.4-.2a.21.21,0,0,1-.14-.1L6.31,2.79a.19.19,0,0,0-.26-.07A.23.23,0,0,0,6,2.79L5.36,4.06a.21.21,0,0,1-.14.1l-1.4.2a.19.19,0,0,0-.1.32l1,1a.18.18,0,0,1,0,.16L4.53,7.27a.2.2,0,0,0,.17.21l.1,0L6.05,6.8a.17.17,0,0,1,.17,0l1.25.66a.18.18,0,0,0,.26-.06.15.15,0,0,0,0-.13l-.24-1.4a.18.18,0,0,1,.05-.16Z"/></g></g></svg>