<svg xmlns="http://www.w3.org/2000/svg" viewBox="0 0 14.96 11.1"><g id="Слой_2" data-name="Слой 2"><g id="Layer_1" data-name="Layer 1"><rect x="2.63" y="8.48" width="7.34" height="0.25"/><rect x="2.63" y="6.44" width="7.34" height="0.25"/><rect x="2.63" y="4.24" width="7.34" height="0.25"/><rect x="2.63" y="2.29" width="7.34" height="0.25"/><path d="M12.65,2.08V0H2.23A2.33,2.33,0,0,0,0,2.42V8.68A2.33,2.33,0,0,0,2.22,11.1H14a1,1,0,0,0,1-1v-8H12.67ZM2.23,10.6A1.84,1.84,0,0,1,.51,8.68V2.42A1.84,1.84,0,0,1,2.23.5h9.92v9.64a2,2,0,0,0,.07.35h0v.08h0Zm12.21-.48a.52.52,0,0,1-.52.52H13.2a.53.53,0,0,1-.48-.3V2.6h1.77v7.53Z"/></g></g></svg>