<svg xmlns="http://www.w3.org/2000/svg" viewBox="0 0 64.06 56.07"><defs><style>.cls-1{fill:#010101;}</style></defs><title>courier-icon</title><g id="Слой_2" data-name="Слой 2"><g id="Layer_1" data-name="Layer 1"><path class="cls-1" d="M16.46,46a5.65,5.65,0,0,0-2.85-2.42c-2.85-.75-4.22-.14-5,.32a7.24,7.24,0,0,0-2.34,2.38c-.29.42-.28.45-.28.45l11,.19"/><path class="cls-1" d="M59.32,46.66a5.7,5.7,0,0,0-2.86-2.43c-2.84-.74-4.21-.13-5,.33a7,7,0,0,0-2.34,2.37,2.28,2.28,0,0,0-.28.45l11,.2"/><path class="cls-1" d="M45,48.12,0,47.5l.45-33,45,.62ZM1,46.52l43,.59.42-31-43-.59Z"/><path class="cls-1" d="M63.8,48.37,44,48.1l.27-19.48,19.84.28ZM45,47.11l17.85.25.24-17.48L45.2,29.64Z"/><path class="cls-1" d="M58.43,29.69l-14-.19.14-9.85,14,.2Zm-13-1.18,12,.17.11-7.85-12-.16Z"/><path class="cls-1" d="M54.61,26.78l-6.56-.09.06-4.05,6.56.09Zm-5.55-1.07,4.57.06,0-2.05-4.57-.06Z"/><path class="cls-1" d="M56.11,55.81a6.51,6.51,0,1,1,4.41-8.08A6.52,6.52,0,0,1,56.11,55.81ZM52.72,44.28A5.51,5.51,0,1,0,59.56,48,5.52,5.52,0,0,0,52.72,44.28Z"/><path class="cls-1" d="M13.2,55.12a6.5,6.5,0,1,1,4.41-8.07A6.5,6.5,0,0,1,13.2,55.12ZM9.82,43.6a5.51,5.51,0,1,0,6.83,3.73A5.51,5.51,0,0,0,9.82,43.6Z"/><path class="cls-1" d="M21.12,16l-.82-.42c-.44-.22-10.73-5.51-11.43-10.32A3.46,3.46,0,0,1,10,2.12C11.72.51,13.33,0,14.82.52c4.69,1.7,6.14,14,6.2,14.57ZM12.93,1.43a5.79,5.79,0,0,0-2.2,1.41,2.49,2.49,0,0,0-.87,2.28c.52,3.57,7.57,7.76,10,9.12-.56-3.9-2.29-11.64-5.42-12.78A2.41,2.41,0,0,0,12.93,1.43Z"/><path class="cls-1" d="M20.41,15.85l.08-.92C20.54,14.4,21.73,2,26.38.22c1.5-.56,3.09-.06,4.81,1.5a3.49,3.49,0,0,1,1.24,3.13c-.6,4.82-10.77,10.33-11.2,10.56ZM26.93,1.09l-.19.07c-3.1,1.2-4.67,9-5.15,12.9C24,12.64,31,8.3,31.44,4.72a2.48,2.48,0,0,0-.92-2.26C29.18,1.24,28,.79,26.93,1.09Z"/></g></g></svg>