<svg xmlns="http://www.w3.org/2000/svg" viewBox="0 0 61.36 12.16"><defs><style>.cls-1{fill:#616262;}.cls-1,.cls-2{fill-rule:evenodd;}.cls-2{fill:#d7ac79;}</style></defs><title>delivery-methods-icon-2</title><g id="Слой_2" data-name="Слой 2"><g id="Layer_1" data-name="Layer 1"><path class="cls-1" d="M1.71,5.7H.55L1.73.1H4A2.5,2.5,0,0,1,5,.24a1.14,1.14,0,0,1,.57.47,1.54,1.54,0,0,1,.2.79,2.19,2.19,0,0,1-.16.83A2,2,0,0,1,5.16,3a1.7,1.7,0,0,1-.51.36,2.39,2.39,0,0,1-.74.19,7.73,7.73,0,0,1-1,0H2.16L1.71,5.7Zm.64-3.07H2.7a4.43,4.43,0,0,0,1.22-.11,1,1,0,0,0,.48-.37.93.93,0,0,0,.18-.55.54.54,0,0,0-.09-.33.53.53,0,0,0-.25-.19A2.68,2.68,0,0,0,3.51,1H2.69L2.35,2.63Z"/><path class="cls-1" d="M5.7,3.5a4.5,4.5,0,0,1,.15-1,3.69,3.69,0,0,1,.6-1.28,2.84,2.84,0,0,1,1-.85A2.88,2.88,0,0,1,8.84,0a2.28,2.28,0,0,1,1.68.65,2.35,2.35,0,0,1,.64,1.71,3.72,3.72,0,0,1-.42,1.71A3.08,3.08,0,0,1,9.61,5.35,3,3,0,0,1,8,5.8a2.27,2.27,0,0,1-1.31-.36,2,2,0,0,1-.75-.88A2.66,2.66,0,0,1,5.7,3.5Zm1.14,0a1.36,1.36,0,0,0,.36,1,1.17,1.17,0,0,0,.92.39,1.57,1.57,0,0,0,.9-.3,2.36,2.36,0,0,0,.71-.94A3,3,0,0,0,10,2.38a1.45,1.45,0,0,0-.36-1A1.18,1.18,0,0,0,8.75,1a1.6,1.6,0,0,0-1.38.79,3,3,0,0,0-.53,1.73Z"/><polygon class="cls-1" points="15.47 5.7 14.4 5.7 12.88 1.93 12.1 5.7 11.03 5.7 12.19 0.1 13.27 0.1 14.79 3.84 15.57 0.1 16.64 0.1 15.47 5.7 15.47 5.7"/><path class="cls-1" d="M19,5.7H17.88l.45-2.19L16.79.1H18l.7,1.58c.16.38.28.65.33.82.1-.17.2-.34.33-.53l.53-.74L20.69.1H22L19.46,3.62,19,5.7Z"/><polygon class="cls-1" points="26.49 5.7 27.66 0.1 31.82 0.1 31.62 1.03 28.62 1.03 28.36 2.3 31.25 2.3 31.06 3.24 28.16 3.24 27.81 4.76 31.07 4.76 30.87 5.7 26.49 5.7 26.49 5.7"/><path class="cls-1" d="M32.21,5.7H30.72l2.47-2.84L31.8.1H33l.54,1s.15.29.38.77L34,2c.31-.38.57-.7.78-.94l.88-1h1.45L34.53,3.05,35.91,5.7h-1.3l-.42-.85a9.82,9.82,0,0,1-.44-1,11.79,11.79,0,0,1-.77.94l-.77.87Z"/><path class="cls-1" d="M37.21,5.7H36.06L37.23.1h2.28a2.53,2.53,0,0,1,1,.14A1.12,1.12,0,0,1,41,.71a1.46,1.46,0,0,1,.21.79,2.2,2.2,0,0,1-.17.83,2,2,0,0,1-.4.64,1.7,1.7,0,0,1-.51.36,2.47,2.47,0,0,1-.75.19,7.65,7.65,0,0,1-1,0h-.74L37.21,5.7Zm.64-3.07h.36a4.54,4.54,0,0,0,1.22-.11,1,1,0,0,0,.48-.37,1,1,0,0,0,.17-.55A.54.54,0,0,0,40,1.27a.48.48,0,0,0-.25-.19A2.65,2.65,0,0,0,39,1h-.83l-.34,1.61Z"/><path class="cls-1" d="M42,5.7H40.87L42,.1h2.49a3,3,0,0,1,1,.13,1.17,1.17,0,0,1,.58.48,1.63,1.63,0,0,1,.22.85,1.69,1.69,0,0,1-.43,1.18,2.1,2.1,0,0,1-1.3.58,2.07,2.07,0,0,1,.42.52,14.26,14.26,0,0,1,.86,1.86H44.64c-.1-.32-.29-.81-.58-1.48a1.71,1.71,0,0,0-.51-.73A1,1,0,0,0,43,3.38h-.47L42,5.7Zm.67-3.16h.61a4.47,4.47,0,0,0,1.23-.11A1.07,1.07,0,0,0,45,2.08a.86.86,0,0,0,.17-.5.52.52,0,0,0-.25-.46A1.52,1.52,0,0,0,44.27,1H43l-.31,1.51Z"/><polygon class="cls-1" points="46.06 5.7 47.23 0.1 51.39 0.1 51.19 1.03 48.19 1.03 47.92 2.3 50.82 2.3 50.63 3.24 47.73 3.24 47.38 4.76 50.64 4.76 50.44 5.7 46.06 5.7 46.06 5.7"/><path class="cls-1" d="M51,3.88l1.1-.06a1.3,1.3,0,0,0,.18.71,1.18,1.18,0,0,0,.93.3,1.35,1.35,0,0,0,.82-.2.61.61,0,0,0,.25-.49.53.53,0,0,0-.2-.42,4,4,0,0,0-.8-.41,8.32,8.32,0,0,1-.95-.47,1.38,1.38,0,0,1-.65-1.2A1.49,1.49,0,0,1,52.22.47,2.12,2.12,0,0,1,53.7,0a2.25,2.25,0,0,1,1.52.46,1.73,1.73,0,0,1,.6,1.23l-1.11.05a.83.83,0,0,0-.29-.61,1,1,0,0,0-.73-.22,1.07,1.07,0,0,0-.68.17.52.52,0,0,0-.21.43A.49.49,0,0,0,53,1.9a3.54,3.54,0,0,0,.83.44A4.3,4.3,0,0,1,55.05,3a1.31,1.31,0,0,1,.4,1,1.66,1.66,0,0,1-.59,1.27,2.37,2.37,0,0,1-1.64.52A3,3,0,0,1,52,5.55a1.46,1.46,0,0,1-.74-.68,2,2,0,0,1-.21-1Z"/><path class="cls-1" d="M55.81,3.88l1.1-.06a1.23,1.23,0,0,0,.17.71,1.19,1.19,0,0,0,.94.3,1.32,1.32,0,0,0,.81-.2.62.62,0,0,0,.26-.49.51.51,0,0,0-.21-.42,3.75,3.75,0,0,0-.8-.41,9.28,9.28,0,0,1-.95-.47,1.38,1.38,0,0,1-.47-.49,1.49,1.49,0,0,1-.17-.71A1.52,1.52,0,0,1,57,.47,2.14,2.14,0,0,1,58.48,0,2.27,2.27,0,0,1,60,.46a1.69,1.69,0,0,1,.59,1.23l-1.1.05a.91.91,0,0,0-.29-.61,1.06,1.06,0,0,0-.73-.22,1.13,1.13,0,0,0-.69.17.54.54,0,0,0-.2.43.47.47,0,0,0,.19.39,3.41,3.41,0,0,0,.82.44A4.56,4.56,0,0,1,59.84,3a1.3,1.3,0,0,1,.39,1,1.66,1.66,0,0,1-.59,1.27A2.35,2.35,0,0,1,58,5.79a3,3,0,0,1-1.25-.24A1.48,1.48,0,0,1,56,4.87a2.06,2.06,0,0,1-.2-1Z"/><polygon class="cls-1" points="4.6 11.26 5.27 11.26 5.58 9.68 6.41 11.26 7.19 11.26 6.21 9.46 7.87 7.66 7.07 7.66 5.66 9.24 5.97 7.66 5.3 7.66 4.6 11.26 4.6 11.26"/><polygon class="cls-1" points="9.44 8.56 8.46 10.29 8.12 8.56 7.42 8.56 7.93 11.01 7.21 12.16 7.93 12.16 10.16 8.56 9.44 8.56 9.44 8.56"/><path class="cls-1" d="M9.78,12.16h.65L10.66,11h0a.93.93,0,0,0,.85.37A1.52,1.52,0,0,0,12.57,11,1.59,1.59,0,0,0,13,9.79a1.25,1.25,0,0,0-.42-1,1.15,1.15,0,0,0-.84-.3,1,1,0,0,0-.72.24h0l0-.16h-.6l-.7,3.6Zm1.9-3.11a.7.7,0,0,1,.72.78.87.87,0,0,1-.87.94.68.68,0,0,1-.7-.76.87.87,0,0,1,.85-1Z"/><path class="cls-1" d="M13.7,8.56l-.53,2.7H14.4a1.09,1.09,0,0,0,.77-.26.93.93,0,0,0,.32-.71.8.8,0,0,0-.21-.57.91.91,0,0,0-.64-.21h-.48l.18-.95Zm.35,1.52h.47a.38.38,0,0,1,.23.07.22.22,0,0,1,.09.21.27.27,0,0,1-.15.26.5.5,0,0,1-.27.07h-.49l.12-.61Z"/><path class="cls-1" d="M18.65,10.2a1.9,1.9,0,0,0,0-.41,1.36,1.36,0,0,0-.33-1,1.26,1.26,0,0,0-1-.35,1.51,1.51,0,0,0-1.1.4,1.63,1.63,0,0,0-.47,1.18,1.31,1.31,0,0,0,.36.93,1.18,1.18,0,0,0,.92.36,1.6,1.6,0,0,0,1-.28,1.42,1.42,0,0,0,.47-.59h-.73a.54.54,0,0,1-.22.2.83.83,0,0,1-.39.09.67.67,0,0,1-.5-.18.6.6,0,0,1-.2-.39Zm-2.08-.57a.76.76,0,0,1,.26-.4.85.85,0,0,1,.55-.18.65.65,0,0,1,.46.16.67.67,0,0,1,.2.42Z"/><path class="cls-1" d="M18.64,12.16h.65L19.52,11h0a.94.94,0,0,0,.85.37A1.52,1.52,0,0,0,21.43,11a1.56,1.56,0,0,0,.48-1.17,1.28,1.28,0,0,0-.42-1,1.17,1.17,0,0,0-.85-.3,1,1,0,0,0-.72.24h0l0-.16h-.6l-.7,3.6Zm1.91-3.11a.69.69,0,0,1,.71.78.86.86,0,0,1-.86.94.68.68,0,0,1-.7-.76.87.87,0,0,1,.85-1Z"/><path class="cls-1" d="M24.19,10.38a.69.69,0,0,1-.69.39.66.66,0,0,1-.5-.19.83.83,0,0,1-.19-.57A1,1,0,0,1,23,9.32a.86.86,0,0,1,.65-.27.58.58,0,0,1,.6.41H25a1.16,1.16,0,0,0-1.27-1,1.47,1.47,0,0,0-1.11.41,1.6,1.6,0,0,0-.46,1.16,1.28,1.28,0,0,0,.36.95,1.26,1.26,0,0,0,.95.35,1.39,1.39,0,0,0,1.42-1Z"/><polygon class="cls-1" points="25.15 11.26 25.8 11.26 26.05 9.97 26.82 11.26 27.59 11.26 26.71 9.89 28.06 8.56 27.29 8.56 26.08 9.8 26.32 8.56 25.68 8.56 25.15 11.26 25.15 11.26"/><polygon class="cls-1" points="28.5 8.56 27.97 11.26 28.62 11.26 30.16 9.56 29.82 11.26 30.47 11.26 31 8.56 30.35 8.56 28.82 10.26 29.15 8.56 28.5 8.56 28.5 8.56"/><path class="cls-1" d="M33.94,10.2a1.9,1.9,0,0,0,0-.41,1.36,1.36,0,0,0-.33-1,1.26,1.26,0,0,0-1-.35,1.51,1.51,0,0,0-1.1.4,1.63,1.63,0,0,0-.47,1.18,1.31,1.31,0,0,0,.36.93,1.18,1.18,0,0,0,.92.36,1.6,1.6,0,0,0,1-.28,1.42,1.42,0,0,0,.47-.59h-.73a.54.54,0,0,1-.22.2.8.8,0,0,1-.39.09.67.67,0,0,1-.5-.18.6.6,0,0,1-.2-.39Zm-2.08-.57a.82.82,0,0,1,.26-.4.85.85,0,0,1,.55-.18.7.7,0,0,1,.47.16.72.72,0,0,1,.2.42Z"/><polygon class="cls-1" points="37.55 8.56 36.57 10.29 36.23 8.56 35.54 8.56 36.05 11.01 35.33 12.16 36.05 12.16 38.27 8.56 37.55 8.56 37.55 8.56"/><path class="cls-1" d="M40,10.38a.78.78,0,0,1-1.19.2.83.83,0,0,1-.19-.57,1.08,1.08,0,0,1,.23-.69.88.88,0,0,1,.65-.27.57.57,0,0,1,.6.41h.72a1.17,1.17,0,0,0-1.28-1,1.47,1.47,0,0,0-1.11.41A1.6,1.6,0,0,0,38,10.05a1.22,1.22,0,0,0,1.31,1.3,1.38,1.38,0,0,0,1.42-1Z"/><polygon class="cls-1" points="42.97 8.56 42.24 8.56 40.76 11.26 41.49 11.26 42.51 9.31 42.88 11.26 43.54 11.26 42.97 8.56 42.97 8.56"/><polygon class="cls-1" points="46.13 8.56 45.15 10.29 44.81 8.56 44.12 8.56 44.63 11.01 43.91 12.16 44.63 12.16 46.85 8.56 46.13 8.56 46.13 8.56"/><polygon class="cls-1" points="47.18 8.56 46.65 11.26 47.3 11.26 47.71 9.14 48.59 9.14 48.71 8.56 47.18 8.56 47.18 8.56"/><polygon class="cls-1" points="49.03 8.56 48.5 11.26 49.15 11.26 50.68 9.56 50.35 11.26 51 11.26 51.52 8.56 50.88 8.56 49.34 10.26 49.67 8.56 49.03 8.56 49.03 8.56"/><polygon class="cls-2" points="0 7.14 0.3 6.25 61.36 6.25 52 10.52 54.31 7.14 0 7.14 0 7.14"/></g></g></svg>