<svg xmlns="http://www.w3.org/2000/svg" viewBox="0 0 47.69 10.59"><defs><style>.cls-1{fill:#d7ac79;}.cls-2{fill:#616262;}.cls-3{fill:#7db242;}.cls-4{fill:#fefefd;}.cls-5{fill:#86b742;}.cls-6{fill:#8fbb3f;}.cls-7{fill:#dbdad9;}.cls-8{fill:#73ae43;}</style></defs><title>delivery-methods-icon-1</title><g id="Слой_2" data-name="Слой 2"><g id="Layer_1" data-name="Layer 1"><circle class="cls-1" cx="5.29" cy="5.29" r="5.29"/><path class="cls-2" d="M21.65,6.82,22,6,23.64,1c0-.1.08-.12.18-.12h3.66A4.8,4.8,0,0,1,28.62,1a1.79,1.79,0,0,1,1.47,1.55,4.48,4.48,0,0,1-.15,2.12,10.62,10.62,0,0,1-2.13,4,4.62,4.62,0,0,1-3.18,1.69l-1,.06H20.55c-.13,0-.15,0-.11-.14.16-.45.32-.89.46-1.34A1,1,0,0,1,22,8.18c.84-.06,1.67,0,2.51,0l.31,0a2.27,2.27,0,0,0,1.34-.83,6.07,6.07,0,0,0,1.23-2.57,2.23,2.23,0,0,0,.06-1,.65.65,0,0,0-.65-.59H25.44c-.09,0-.1.05-.12.11-.26.79-.52,1.58-.79,2.37a3.28,3.28,0,0,1-.25.58,1,1,0,0,1-.88.57Z"/><path class="cls-2" d="M41.06,6.53,40,7.42a.34.34,0,0,0-.08.17c-.33.93-.66,1.85-1,2.78a.15.15,0,0,1-.17.12H36.59c-.16,0-.16,0-.11-.15L39.3,2.18,39.72,1c0-.08.05-.12.14-.12h2.37L40.8,5A.55.55,0,0,0,41,4.84c.5-.58,1-1.12,1.55-1.67L44.62.94a.19.19,0,0,1,.16-.08h2.91c0,.06-.07.08-.1.11L43.1,5a.14.14,0,0,0,0,.19c.62,1.7,1.23,3.4,1.85,5.09.06.17.06.17-.11.17H43.2a1,1,0,0,1-1-.65,16,16,0,0,1-.52-1.52l-.54-1.7Z"/><path class="cls-2" d="M20.56.88h1.91c.11,0,.14,0,.1.13-.17.45-.32.91-.49,1.37a1.11,1.11,0,0,1-1.17.82c-.78,0-1.57,0-2.35,0a1.76,1.76,0,0,0-1.36.56,4.64,4.64,0,0,0-1.26,2.49,2.74,2.74,0,0,0,0,1A1,1,0,0,0,17,8.16h1.64a2,2,0,0,1,.63.11.71.71,0,0,1,.49.94c-.12.4-.27.8-.4,1.2,0,.06-.05.07-.11.07-1,0-2.05,0-3.08,0a3.08,3.08,0,0,1-2-.75,2.64,2.64,0,0,1-.95-2,7.19,7.19,0,0,1,2.28-5.38A5.08,5.08,0,0,1,18.45.94C19.19.84,19.94.91,20.56.88Z"/><path class="cls-2" d="M36,8.16c-.15.48-.29.94-.44,1.41a1.11,1.11,0,0,1-1.2.9c-.85,0-1.69,0-2.54,0H29.07c-.18,0-.18,0-.12-.18.13-.43.28-.86.4-1.3a1,1,0,0,1,1-.82,4.35,4.35,0,0,1,.51,0H36Z"/><path class="cls-2" d="M38.52.88c-.13.43-.26.84-.39,1.25,0,.09-.06.18-.08.27a1,1,0,0,1-.95.77l-.57,0H31.38c.18-.57.34-1.13.53-1.67a.93.93,0,0,1,.84-.61,2.38,2.38,0,0,1,.46,0h5.31Z"/><path class="cls-2" d="M37.31,4.52c-.18.57-.35,1.13-.53,1.68a.92.92,0,0,1-.71.57,2.93,2.93,0,0,1-.72.07h-5c-.13,0-.14,0-.1-.14.14-.45.29-.89.41-1.34a1,1,0,0,1,1-.81,3.15,3.15,0,0,1,.44,0h5.28Z"/><path class="cls-3" d="M3.2,1s0,0-.06,0S3.18,1.05,3.2,1Z"/><path class="cls-3" d="M3.15,1.07s0,0,0,0Z"/><path class="cls-4" d="M2,7.65a.56.56,0,0,0,0-.22c0-.12.06-.25.1-.37a1.4,1.4,0,0,0,.06-.28,5.44,5.44,0,0,0,.15-.54A11,11,0,0,1,2.9,4.9a.11.11,0,0,0,0-.12c-.29-.39-.55-.8-.8-1.21l-.25-.5c0-.14-.16-.25-.11-.41l0,0h.09a1.09,1.09,0,0,0,.23.09,1.53,1.53,0,0,0,.41.14,1.15,1.15,0,0,0,.17.06A11.84,11.84,0,0,0,5,3.23c.64,0,1.29,0,1.93,0a2.26,2.26,0,0,0,.45,0,1.7,1.7,0,0,0,.39,0H9.86c.05,0,.11,0,.1.1s-.05.09-.11.11l-.08,0-.56.17a4.48,4.48,0,0,0-.62.2,5.7,5.7,0,0,0-.9.33l-.07,0A15.32,15.32,0,0,0,5.79,5,10,10,0,0,0,3.13,7.18a3.65,3.65,0,0,0-.38.48,1.88,1.88,0,0,0-.32.41,3.74,3.74,0,0,0-.35.53c-.06.05-.08.19-.18.14s0-.14,0-.22V8.46a1.36,1.36,0,0,0,.06-.36A.77.77,0,0,0,2,7.8a.12.12,0,0,0,0-.1Z"/><path class="cls-4" d="M2.46,9.26a1.88,1.88,0,0,0,0-.33c0-.06,0-.13.05-.18s0-.06.08-.1a10.66,10.66,0,0,1,1-1.23A9.3,9.3,0,0,1,5.2,6.05,12.28,12.28,0,0,1,7.88,4.63l1.27-.47h1.1c.08,0,.2,0,.22.09s-.13.1-.19.15a3,3,0,0,0-.4.11.6.6,0,0,0-.19.06,2.15,2.15,0,0,0-.45.14A.8.8,0,0,0,9,4.78l0,0h0a1.63,1.63,0,0,0-.31.11,1.9,1.9,0,0,0-.4.14,4.78,4.78,0,0,0-.48.19,3.93,3.93,0,0,0-.56.24,10,10,0,0,0-1.69.94,7.12,7.12,0,0,0-1.18,1,2.51,2.51,0,0,0-.37.36,2.17,2.17,0,0,0-.32.36,1.81,1.81,0,0,0-.28.34.76.76,0,0,0-.17.23A1.16,1.16,0,0,0,2.92,9a1.34,1.34,0,0,0-.22.36l-.06,0c0,.06-.06.13-.14.1s0-.11,0-.17Z"/><path class="cls-5" d="M10.25,4.14h0l0,0Z"/><path class="cls-6" d="M1.77,2.63h0S1.76,2.61,1.77,2.63Z"/><path class="cls-7" d="M2.56,8.75l.06-.5.13-.59a3.65,3.65,0,0,1,.38-.48A10,10,0,0,1,5.79,5a15.32,15.32,0,0,1,1.83-.87l.07,0H9.15l-1.27.47A12.28,12.28,0,0,0,5.2,6.05,9.3,9.3,0,0,0,3.63,7.42a10.66,10.66,0,0,0-1,1.23S2.6,8.73,2.56,8.75Z"/><path class="cls-8" d="M9,4.78l0,0Z"/></g></g></svg>