<svg xmlns="http://www.w3.org/2000/svg" viewBox="0 0 24.99 17.19"><defs><style>.cls-1{fill:#616262;}.cls-2{fill:#d7ac79;}</style></defs><title>delivery-methods-icon-3</title><g id="Слой_2" data-name="Слой 2"><g id="Layer_1" data-name="Layer 1"><path class="cls-1" d="M21.1,6.58a1.15,1.15,0,0,1-.14.17.52.52,0,0,1-.42.17h-2.3l.24.37.65,1a1,1,0,0,1,0,1.2,2.47,2.47,0,0,1-.9.77c-.05,0-.05.05-.05.1a5.65,5.65,0,0,1-.07,1,1.72,1.72,0,0,1-.55,1,1.25,1.25,0,0,1-1.4.12l-.09,0,.12.46.45,1.72a.52.52,0,0,1-.44.67c-.11,0-.42,0-.42.06a.53.53,0,0,1-.54.56H14.8c-.05,0-.07,0-.07.07a.51.51,0,0,1-.53.54h-.41c-.06,0-.09,0-.09.08a.52.52,0,0,1-.54.54H11.85a.53.53,0,0,1-.54-.55c0-.06,0-.07-.07-.07h-.43a.51.51,0,0,1-.53-.55s0-.06,0-.06H9.82a.53.53,0,0,1-.56-.57v0H8.85a.51.51,0,0,1-.45-.63c.17-.71.36-1.42.54-2.13a.11.11,0,0,0,0-.08H9a2.14,2.14,0,0,1-.42.16A1.26,1.26,0,0,1,7.13,12a2.59,2.59,0,0,1-.26-1.06c0-.18,0-.37,0-.55s0-.08-.07-.11a2.3,2.3,0,0,1-1-.93.84.84,0,0,1,0-.95c.29-.47.59-.92.89-1.38,0,0,0-.1-.13-.09H4.32A.5.5,0,0,1,4,6.71L2.59,5l-1-1.19,0,0-.13-.17a2.17,2.17,0,0,0-.17-.21l-.15-.19A.81.81,0,0,0,1,3L.26,2.1A1.09,1.09,0,0,1,0,1.72a.6.6,0,0,1,0-.19c.12-.31.27-.43.55-.43H7.68a3.92,3.92,0,0,1,.68.07,3.07,3.07,0,0,1,1.16.53,7.22,7.22,0,0,0,1.1.65c.27.13.4.08.54-.18s.11-.26.17-.38,0-.07-.05-.08-.65-.05-.89-.05h-.05A.51.51,0,0,1,10,1,1,1,0,0,1,10.1.71l.09-.14a.67.67,0,0,1,.52-.31.86.86,0,0,0,.47-.14.82.82,0,0,1,.4-.12h1.36a.33.33,0,0,1,.21.06,1,1,0,0,1,.44.65,7.81,7.81,0,0,0,.25,1,3.5,3.5,0,0,0,.17.52.25.25,0,0,0,.38.13c.3-.15.59-.33.88-.51l.42-.28A2.3,2.3,0,0,0,16,1.39a2.72,2.72,0,0,1,.91-.27,4,4,0,0,1,.6,0h7a.53.53,0,0,1,.55.44.51.51,0,0,1-.12.43l-1.2,1.48L21.34,6.3l0,0ZM16.05,5.27h0Z"/><path class="cls-2" d="M8.5,5.67c-.06-.07-.08-.16-.17-.19V5.42s0,0,.06,0a.17.17,0,0,0-.1,0H4s-.08,0-.09,0v0l0,0c-.07,0-.1,0-.14-.07s-.19-.23-.28-.34.11,0,.16,0,.05,0,.08,0h4s.09,0,.11,0,.07,0,.1,0,0,0,0,0h0s0-.06-.05-.07,0,0,0,0h0a.1.1,0,0,0,0-.06s-.07,0-.1,0H3.38s-.11-.06-.11,0-.1-.1-.15-.16l-.2-.25H3.1c0,.05.06,0,.09,0H7.13s.2,0,.23,0-.05-.06-.07-.1a1.44,1.44,0,0,1-.07-.16L7.11,4H2.94s-.15,0-.16.07a3.26,3.26,0,0,1-.39-.41s0,0,0,0,.06,0,.09,0H6.58a.17.17,0,0,0,.1,0h.1c0-.07-.07-.1-.1-.16s0-.08-.08-.08H2.28s-.08,0-.13,0L1.9,3.08V3S2,3,2,3H2s0,0,.07,0H3.58L5.51,3h.63s.06,0,0,0,0-.1-.06-.15L6,2.75H1.76a.38.38,0,0,1-.18,0l0-.05-.23-.29c0-.06.07,0,.1,0H5.55s.06,0,.07,0a.07.07,0,0,0,0-.06A.25.25,0,0,0,5.34,2H1.19c-.06,0-.11.05-.14,0H1L.65,1.55s0-.05,0-.05H7.73a3.11,3.11,0,0,1,1.17.21,1.68,1.68,0,0,1,.37.21,10.66,10.66,0,0,0,1.14.75.92.92,0,0,0,.79.1.86.86,0,0,0,.47-.45,5,5,0,0,0,.33-.8.14.14,0,0,0,0-.16,1,1,0,0,0-.74-.31c-.05,0-.1,0-.15,0a1.6,1.6,0,0,0-.38,0c-.08,0-.11,0-.1-.11a.71.71,0,0,1,.08-.15A.24.24,0,0,1,10.8.67h.29a.22.22,0,0,0,.19,0,.56.56,0,0,1,.35-.23H13a.25.25,0,0,1,.19.22,7.57,7.57,0,0,0,.29,1.16,2.05,2.05,0,0,0,.22.6.76.76,0,0,0,1,.3A7.37,7.37,0,0,0,15.84,2a2.86,2.86,0,0,1,.66-.37,2.19,2.19,0,0,1,.71-.14h7.14a.42.42,0,0,1,.16,0l-.42.5S24,2,24,2.06h0s-.05,0-.08,0H19.77a.17.17,0,0,0-.1,0v0a1.56,1.56,0,0,0-.16.2h4.37l-.36.44H19.17s-.08,0-.11,0l-.14.2h4.4l-.38.46H18.57s-.05,0-.07,0v0a1,1,0,0,0-.14.15s0,.05,0,.05h.11c0,.06.06,0,.09,0h3.94s.08,0,.1,0h.11v0l0,0-.26.32s-.05.06-.1.06h0V4s0,0,0,0H17.94s0,0,0,0v.07h0a.36.36,0,0,0-.14.16s0,0,0,.07H20.7c0,.05.05,0,.08,0H22s.09,0,.12,0h.07a.09.09,0,0,1,0,.07s-.29.36-.38.36H17.42a.11.11,0,0,0-.11.06l-.1.12s-.05,0-.05,0,0,0,.05,0h.19v0c0,.06.07,0,.1,0h3.95s.07,0,.08,0V5s0,0,.07,0a1.83,1.83,0,0,0-.24.31.21.21,0,0,1-.18.08H16.82s-.06,0-.06,0h0c-.05,0-.07.07-.11.11s0,0,0,.06.05,0,.07,0,.06,0,.09,0H21s.08,0,.09,0-.25.31-.37.46-.08,0-.13,0h-.09a.17.17,0,0,0-.1,0H16.84a1.7,1.7,0,0,0-.45,0H16.3c0-.17,0-.34.07-.5v-.2a1.62,1.62,0,0,0,0-.31.11.11,0,0,0-.1-.11c-.34-.07-.67-.16-1-.24l-1.14-.29a2.69,2.69,0,0,1-.46-.14.42.42,0,0,0-.31-.65s-.05,0-.08,0H13V3.08c0-.11,0-.22,0-.33s0-.07,0-.09,0,0,0-.05a.24.24,0,0,0,0-.22,0,0,0,0,0,0,0,.61.61,0,0,0-.79-.06.27.27,0,0,0-.07.3.43.43,0,0,1,.06.24V2.9h0l0,0c0,.1,0,.19,0,.29a1.82,1.82,0,0,1,0,.33.33.33,0,0,0,0,.17V3.8h-.4s-.06,0-.07,0h0a.34.34,0,0,0-.29.34.39.39,0,0,0,0,.26s0,.06-.05.07l-.52.15L10,4.89,8.9,5.14c-.14,0-.17.06-.16.2,0,.31,0,.62.08.93-.05,0-.1,0-.15,0s-.06,0-.09,0h-4s-.06,0-.09,0L4.41,6.2h0a1.93,1.93,0,0,0-.22-.28l-.13-.15c0-.06.05,0,.08,0,1.43,0,2.86,0,4.29,0,0,0,.07,0,.1,0S8.52,5.68,8.5,5.67Z"/><path class="cls-2" d="M13.1,15v.21a.82.82,0,0,0,0,.27s0,.1,0,.14v.31a2.25,2.25,0,0,0,0,.26s0,.08,0,.12v.14H11.83v-.14a3.85,3.85,0,0,0,0-.48.65.65,0,0,0,0-.24s0-.08,0-.11,0,0,0-.06v-.55a3,3,0,0,0,0-.42.82.82,0,0,0,0-.27l0,0s0-.06,0-.08,0-.11.1-.1h.41a2.94,2.94,0,0,0,.51-.05c.08,0,.06.05.07.08s0,.35,0,.52v.3s0,.08,0,.11Z"/><path class="cls-2" d="M11.62,15.63c0,.24,0,.24-.24.24h-.51c-.06,0-.07,0-.07-.07,0-.31.07-.62.11-.93s.07-.67.12-1a2,2,0,0,0,0-.24s0-.05,0,0a3.76,3.76,0,0,0,.58.25s0,0,0,.06c0,.3,0,.6,0,.89,0,.11,0,.22,0,.34s0,0,0,.08,0,0,0,.06S11.62,15.51,11.62,15.63Zm-.08.2v0H11v0Z"/><path class="cls-2" d="M13.27,13.9s0-.05,0-.06a3.27,3.27,0,0,0,.62-.26l.06.47c0,.22,0,.45.07.68s.06.51.1.77a1.09,1.09,0,0,0,0,.31s0,.06-.06.06h-.7s0,0,0,0a1.56,1.56,0,0,1,0-.31.71.71,0,0,0,0-.25V15a.67.67,0,0,0,0-.28s0-.07,0-.1a.86.86,0,0,0,0-.28A1.7,1.7,0,0,0,13.27,13.9Zm.22,1.91v0H14v0Z"/><path class="cls-2" d="M14.78,15.25h-.34c-.06,0-.08,0-.09-.07L14.2,13.9c0-.12,0-.24,0-.36a.12.12,0,0,1,.06-.14,3.52,3.52,0,0,0,.5-.36s.06,0,.08,0L15,14.2c.05.23.1.46.14.7a1.31,1.31,0,0,0,.06.27c0,.06,0,.09-.08.09Z"/><path class="cls-2" d="M9.87,15.26c-.06,0-.08,0-.07-.08.07-.33.13-.66.19-1s.15-.74.22-1.11c0-.05,0-.07.06,0a6.42,6.42,0,0,0,.53.38.09.09,0,0,1,0,.1l-.12,1c0,.21,0,.42-.08.62a.86.86,0,0,0,0,.16H9.87Z"/><path class="cls-2" d="M15.3,14.56c0-.2-.07-.4-.11-.6s-.12-.59-.18-.89c0,0,0-.07,0-.09s0-.17.07-.23h0a.16.16,0,0,0,.08-.06,3.73,3.73,0,0,0,.3-.26c.05,0,.07,0,.09,0,.07.29.14.58.22.87s.23.88.34,1.32h-.71a.07.07,0,0,1-.06,0Z"/><path class="cls-2" d="M8.91,14.63,9.06,14c.13-.52.27-1,.4-1.56,0-.11,0-.11.11,0l.41.36a.09.09,0,0,1,0,.11c-.11.51-.21,1-.32,1.53v.09l0,0s0,0,0,.08h0s-.06,0-.09,0Z"/><path class="cls-2" d="M15.87,6.63a1.67,1.67,0,0,1-.06.38c0,.16-.07.32-.11.48s-.12.4-.2.6-.14.32-.22.48,0,.14-.13.18H12.93a.5.5,0,0,0,0-.12v-2h2.92Z"/><path class="cls-2" d="M13,9.1h2.2a.58.58,0,0,1-.12.25,3.69,3.69,0,0,1-.29.4,1.63,1.63,0,0,1-.17.2,6.23,6.23,0,0,1-.52.51,4.54,4.54,0,0,1-.67.48,2.48,2.48,0,0,1-.58.25.63.63,0,0,1-.45,0L12,11a3,3,0,0,1-.45-.27l-.21-.15a.16.16,0,0,0-.09-.07h0a.11.11,0,0,0-.07-.06h0a.07.07,0,0,0-.07-.06h0a.61.61,0,0,0-.2-.19h0a.08.08,0,0,0-.07-.07h0a.17.17,0,0,0-.1-.1,2.17,2.17,0,0,0-.24-.29c-.1-.14-.21-.27-.3-.42a.49.49,0,0,1-.12-.25h2.2c0,.18,0,.35,0,.53a3.82,3.82,0,0,0,0,.83.94.94,0,0,0,.27.46s0,0,.05,0a1,1,0,0,0,.29-.66C13,9.87,13,9.48,13,9.1Z"/><path class="cls-2" d="M10.85,5.13a9,9,0,0,0,.89-.24c.16,0,.31-.09.46-.15s.07,0,.07.06,0,.29,0,.43V6.3H9.36a.1.1,0,0,1,0-.07c0-.14,0-.29-.05-.43a1.7,1.7,0,0,0,0-.22s0-.08.07-.08l.08,0c.36-.08.72-.16,1.08-.26A1.89,1.89,0,0,0,10.85,5.13Z"/><path class="cls-2" d="M15.87,6.26H13V5.9c0-.31,0-.63,0-1V4.82h0v0s0,0,0,0c.3.11.61.19.92.27.65.18,1.31.33,2,.48,0,0,.07,0,.06.06,0,.24,0,.47-.07.71Z"/><path class="cls-2" d="M12.3,7.81v.88s0,0,0,.06h-2.2a.06.06,0,0,1-.06,0,.5.5,0,0,0-.1-.19,6.25,6.25,0,0,1-.33-.81A5.63,5.63,0,0,1,9.43,7a1.68,1.68,0,0,1-.07-.44h2.91c0,.35,0,.69,0,1C12.28,7.7,12.26,7.76,12.3,7.81Z"/><path class="cls-2" d="M11.59,11.87a.57.57,0,0,1-.12.18h0a0,0,0,0,1,0,0,1.4,1.4,0,0,1,.1-.16s0,0,0,0A0,0,0,0,1,11.59,11.87Z"/><path class="cls-2" d="M14.2,12.17v0s0,0,0,0L14,12l-.2-.27s0,0,0-.05,0,0,0,0l.32.42Z"/><path class="cls-2" d="M13.61,12.24h0L13.43,12s0,0,0,0h0c0,.08.1.17.16.25S13.63,12.24,13.61,12.24Z"/><path class="cls-2" d="M18.42,8.09l-.55-.83-.12.16s0,0-.06,0-.06-.07-.07-.12,0-.07-.06-.09h0c-.28,0-.38,0-.5.28a2.69,2.69,0,0,0-.19.74c-.05.34-.05.67-.07,1a1.91,1.91,0,0,1-.31.94c0-.1-.13-.16-.15-.26s-.05-.05-.07-.08a.67.67,0,0,0-.12-.16,0,0,0,0,1-.05,0h0l-.16-.05a.78.78,0,0,0-.56.22c-.32.3-.62.63-.95.92a5.68,5.68,0,0,1-1.1.79,1.57,1.57,0,0,1-1.57,0,6.15,6.15,0,0,1-1.22-.93L9.7,9.78a.64.64,0,0,0-.56-.18L9,9.62l0,0c-.1.07-.14.19-.22.28a2.43,2.43,0,0,1-.15.26,1.9,1.9,0,0,1-.3-.81c0-.3,0-.6-.06-.9a2.64,2.64,0,0,0-.24-1,.36.36,0,0,0-.38-.25.14.14,0,0,0-.1,0,.15.15,0,0,0-.08.1c0,.06,0,.14-.09.15s-.08-.07-.11-.12,0,0,0-.06,0,0,0,0l-.6.91a.09.09,0,0,0,0,.11.67.67,0,0,0,.26.21A.25.25,0,0,1,7,8.7a.72.72,0,0,0,.18-.25s.09-.09.08-.15S7,8.16,6.92,8.22A.22.22,0,0,1,7.21,8a.55.55,0,0,1,.26.28A2.08,2.08,0,0,1,7.65,9a4.88,4.88,0,0,1,0,1.08,2,2,0,0,0,.18,1,.88.88,0,0,0,.31.35h0c.06,0,.08,0,.1-.08s.15-.25.25-.36a1,1,0,0,0-.3-.13c.09-.08.21-.07.38,0a1.9,1.9,0,0,1,.52.37c.51.43,1,.87,1.54,1.29a3.64,3.64,0,0,0,1.15.65A2.27,2.27,0,0,0,13.59,13a5.77,5.77,0,0,0,1.27-.88L16.15,11a1.07,1.07,0,0,1,.44-.25.28.28,0,0,1,.24,0,.86.86,0,0,0-.24.11c0,.06.05.09.08.13a1.24,1.24,0,0,0,.25.35h0a1,1,0,0,0,.4-.57,2.22,2.22,0,0,0,.08-.73,8.75,8.75,0,0,1,0-.89,2.62,2.62,0,0,1,.2-.87.9.9,0,0,1,.14-.2c.14-.15.32-.14.4,0a.18.18,0,0,0,.05.07.25.25,0,0,0-.33.09c0,.06.06.15.12.2s.06.15.14.19a.33.33,0,0,1,.14-.17l.08,0C18.56,8.31,18.56,8.3,18.42,8.09ZM9.11,10.43A.14.14,0,0,1,9,10.29a.15.15,0,0,1,.15-.14.14.14,0,0,1,.14.14A.15.15,0,0,1,9.11,10.43Zm.37.57c-.11,0-.16-.07-.23-.11a.1.1,0,0,1,0-.14c.12-.17.25-.33.38-.48l0,0c.11-.05.16.06.23.1a.11.11,0,0,1,0,.15l-.06.07s0,.1-.09.08-.06-.14,0-.19h0s0,0,0-.06-.05,0-.06,0l-.21.27-.1.12s0,0,0,0,0,0,.05,0h0c.09-.11.1-.11.24,0L9.52,11Zm.28.31s-.06-.05,0-.1l.35-.45s.06,0,0-.07,0,0-.06,0-.24.29-.35.45-.07,0-.11,0-.06-.06,0-.11l.41-.52s0,0,.1,0,.12.09.18.14,0,0,0,.05l0,0c-.14.18-.28.35-.41.53S9.79,11.32,9.76,11.31Zm.42.33s0,0,0,0l-.19-.15s0,0,0-.07c.15-.18.29-.37.44-.56a0,0,0,0,1,.06,0l.18.14s0,0,0,.06,0,0-.07,0-.1-.06-.17,0h0c-.07.06-.05.11,0,.15s0,.05,0,.08-.05,0-.07,0-.1-.05-.14,0l0,0s-.07.07-.08.11.06.06.09.09l0,0Zm.17.37c.08-.12.09-.13,0-.21s-.08-.08,0-.15.26-.32.38-.49.07,0,.11,0,.07.05,0,.1l-.36.46s0,0,0,.06,0,0,.05,0c.12-.16.25-.31.36-.47s.07,0,.11,0,.06.05,0,.1-.21.26-.31.4a.32.32,0,0,0-.08.14C10.56,12,10.49,12.06,10.35,12Zm.36.12c-.05-.05-.07-.1,0-.16l.35-.46a.11.11,0,0,1,.16,0c.2.13.2.19,0,.4-.09-.12-.09-.12,0-.23s0,0,0-.05,0,0,0,0l-.32.42s0,0,0,0,0,0,0,0l0,0a.14.14,0,0,1,.19,0s0,0,0,0l0,.06C10.92,12.28,10.88,12.28,10.71,12.13Zm.35.27s0,0,0-.05c.12-.2.25-.4.38-.6,0,0,0,0,.06,0l.19.12a.1.1,0,0,1,0,.09.32.32,0,0,1-.23.25.09.09,0,0,1,0,.13v0C11.35,12.59,11.27,12.6,11.06,12.4Zm.69.39c-.05,0-.05,0,0-.09l0-.1,0,0-.06.08c-.06.08-.09.08-.17,0s0,0,0,0l.11-.13s.09-.07,0-.14,0,0,0-.06l.12-.25c0-.07.09-.08.16-.06.23.1.23.09.12.31l-.21.46C11.84,12.86,11.8,12.8,11.75,12.79Zm.66-.26c.06,0,.08.08.06.14s0,.11,0,.16-.06.12-.16.11-.23-.06-.19-.3c0-.05,0-.07.08,0s.1.08.07.16,0,.07,0,.07,0,0,0-.06a.5.5,0,0,1,0-.12s0-.08-.05-.09,0,0,0-.05,0,0,0,0,.07,0,.08-.07a.59.59,0,0,0,0-.13s0,0,0,0,0,0,0,0v.05a.15.15,0,0,1-.16.11s0,0,0,0a.11.11,0,0,1,0-.05c0-.23.05-.24.3-.18l.06,0A.29.29,0,0,1,12.41,12.53Zm.45.42h-.13c-.08,0-.09,0-.1-.1s0-.42-.05-.63c0,0,0-.07.05-.06s.1-.05.11,0,0,.12,0,.18,0,.06.07,0,.16,0,.16.16a1.1,1.1,0,0,1,0,.18C13,12.91,13,12.93,12.86,13Zm.85-.56a.56.56,0,0,0,0,.08c.05.06,0,.09,0,.13s-.07,0-.1,0-.23-.38-.35-.57,0-.07,0-.09.14-.11.22-.12a.1.1,0,0,1,.1.06l.15.24a.11.11,0,0,1,0,.17C13.66,12.3,13.66,12.34,13.71,12.39Zm.57-.16-.09.06a.1.1,0,0,1-.14,0l-.37-.49a0,0,0,0,1,0,0,.12.12,0,0,1,.06-.11c.17-.14.19-.14.32,0l.26.34C14.39,12.11,14.38,12.15,14.28,12.23ZM14.6,12a.09.09,0,0,1-.15,0l-.38-.43a.1.1,0,0,1,0-.16c.16-.16.2-.16.35,0,0,0,0,0,.05.06-.14.06-.14.06-.24,0s0,0,0,0,0,0,0,.05l.34.39s0,0,0,0,0,0,0-.05h0c-.09-.12-.09-.12,0-.25.06.06.11.13.16.19s0,0,0,0S14.66,11.89,14.6,12Zm.42-.36c-.12.11-.15.1-.25,0l-.31-.34c-.08-.1-.07-.14,0-.22l0,0c.08-.07.13-.07.2,0l0,.06c.07.07.07.08,0,.09s-.11.08-.17,0,0-.09-.08-.06,0,.07,0,.1l.29.32s0,.07.07,0,0,0,0-.07-.08-.12,0-.21,0,0,0,0a.81.81,0,0,1,.17.24C15.12,11.52,15.07,11.55,15,11.59Zm.48-.41s-.06.07-.1,0L15.26,11l0,0s.07.12.11.17,0,.1,0,.13-.06,0-.08,0l-.45-.48s0-.07,0-.1.06-.07.1,0,.07.1.15.12-.07-.12-.11-.17,0-.09.06-.13,0,0,.07,0c.15.17.3.34.46.5S15.53,11.15,15.5,11.18Zm.4-.34s-.05.08-.1,0a.58.58,0,0,0-.17-.18,2.53,2.53,0,0,0,.13.22c.05.08,0,.09-.06.12s-.06,0-.08,0c-.14-.17-.29-.34-.44-.5s0-.07,0-.1.06-.09.11,0l.13.14,0,0-.11-.18c0-.07,0-.07.07-.11s.05,0,.07,0l.45.52C16,10.8,15.93,10.82,15.9,10.84Zm.12-.43a.15.15,0,0,1,0-.29.13.13,0,0,1,.13.15A.14.14,0,0,1,16,10.41Z"/><path class="cls-2" d="M11.2,12.41a1.93,1.93,0,0,1,.13-.21l0,0v0A.34.34,0,0,1,11.2,12.41Z"/><path class="cls-2" d="M11.85,12.41s0,0,0,0a2.56,2.56,0,0,1,.11-.24s0,0,0,0,0,0,0,0l-.11.24S11.87,12.41,11.85,12.41Z"/><path class="cls-2" d="M12.75,12.62s0-.1,0-.11,0,.07,0,.11a.76.76,0,0,1,0,.15s0,.05,0,.05,0,0,0,0S12.75,12.67,12.75,12.62Z"/></g></g></svg>