<svg xmlns="http://www.w3.org/2000/svg" viewBox="0 0 74.06 77.01"><defs><style>.cls-1{fill:#010101;}.cls-2{fill:#fff;}</style></defs><title>export-icon</title><g id="Слой_2" data-name="Слой 2"><g id="Layer_1" data-name="Layer 1"><polygon class="cls-1" points="40.7 71.11 14.68 1.28 0.34 6.49 0 5.55 15.27 0 15.44 0.47 41.29 69.83 67.74 60.13 68.08 61.07 40.7 71.11"/><circle class="cls-2" cx="41.6" cy="69.79" r="6.72"/><path d="M41.6,77a7.22,7.22,0,1,1,7.23-7.22A7.23,7.23,0,0,1,41.6,77Zm0-13.44a6.22,6.22,0,1,0,6.23,6.22A6.23,6.23,0,0,0,41.6,63.57Z"/><path class="cls-1" d="M52.73,43.36A7.2,7.2,0,0,1,46,38.73a7.17,7.17,0,0,1,13.41-5.09h0a7.18,7.18,0,0,1-4.16,9.25A7.28,7.28,0,0,1,52.73,43.36Zm0-13.35A6.17,6.17,0,0,0,47,38.37,6.18,6.18,0,1,0,58.51,34h0A6.19,6.19,0,0,0,52.73,30Z"/><polygon class="cls-1" points="50.13 30.01 46.47 28.3 46.84 26.57 50.47 25.18 51.91 26.14 50.13 30.01"/><rect class="cls-2" x="44.96" y="34.14" width="24.75" height="24.75" transform="translate(-12.77 23.36) rotate(-20.77)"/><path class="cls-1" d="M49.87,63.12,40.73,39l24.08-9.13L73.94,54ZM42,39.62l8.43,22.21,22.2-8.43L64.23,31.2Z"/><polygon class="cls-2" points="65.47 30.21 52.54 35.11 59.66 41.53 73.08 36.43 65.47 30.21"/><path d="M59.55,42.11,51.6,34.94l14-5.3,8.5,7Zm-6.07-6.82L59.77,41l12.32-4.69-6.72-5.49Z"/><polygon class="cls-2" points="39.59 40.02 52.52 35.12 51.45 44.65 38.02 49.73 39.59 40.02"/><path d="M37.39,50.5l1.76-10.84,14-5.3L51.91,45ZM40,40.39,38.65,49,51,44.29l1-8.41Z"/><line class="cls-2" x1="52.52" y1="35.12" x2="61.31" y2="58.3"/><rect x="56.42" y="34.32" width="1" height="24.79" transform="translate(-12.87 23.22) rotate(-20.77)"/></g></g></svg>