<svg xmlns="http://www.w3.org/2000/svg" viewBox="0 0 10.32 9.6"><title>favorites-icon</title><g id="Слой_2" data-name="Слой 2"><g id="Capa_1" data-name="Capa 1"><path d="M10.3,2.86A2.92,2.92,0,0,0,7.51,0,2.79,2.79,0,0,0,5.13,1.37,2.69,2.69,0,0,0,2.81,0,2.92,2.92,0,0,0,0,2.86,3.13,3.13,0,0,0,.1,4,4.71,4.71,0,0,0,1.53,6.33L5.13,9.6,8.79,6.33A4.63,4.63,0,0,0,10.21,4,3,3,0,0,0,10.3,2.86Zm-.47,1A4.3,4.3,0,0,1,8.52,6l-3.39,3L1.8,6A4.3,4.3,0,0,1,.49,3.86a2.59,2.59,0,0,1-.08-.94v0A2.54,2.54,0,0,1,2.81.4,2.33,2.33,0,0,1,5,1.89l.18.43.18-.43A2.4,2.4,0,0,1,7.51.4a2.54,2.54,0,0,1,2.4,2.52A2.59,2.59,0,0,1,9.83,3.86Z"/></g></g></svg>