<svg xmlns="http://www.w3.org/2000/svg" viewBox="0 0 24.1 24.1"><title>fb-icon</title><g id="Слой_2" data-name="Слой 2"><g id="Capa_1" data-name="Capa 1"><path d="M19.6,0H4.5A4.48,4.48,0,0,0,0,4.5V19.6a4.48,4.48,0,0,0,4.5,4.5H19.6a4.48,4.48,0,0,0,4.5-4.5V4.5A4.55,4.55,0,0,0,19.6,0ZM15.8,5.2a.43.43,0,0,1-.4.4h-2c-1,.1-1.1,1.2-1.1,3v.2h2.3a.43.43,0,0,1,.4.4v1.5a.43.43,0,0,1-.4.4H12.3l.1,8.6a.37.37,0,0,1-.1.3.76.76,0,0,1-.4.1h-2a.43.43,0,0,1-.4-.4l-.1-8.6H8.3a.43.43,0,0,1-.4-.4V9.2a.43.43,0,0,1,.4-.4H9.5V8.7c0-2,.1-4,1.1-4.9.8-.8,2.2-.8,3.2-.8H14a6.18,6.18,0,0,1,1.5.1c.2,0,.3.2.3.4Z"/></g></g></svg>