<svg xmlns="http://www.w3.org/2000/svg" viewBox="0 0 57.25 66.29"><defs><style>.cls-1{fill:#fff5ea;stroke:#000;stroke-miterlimit:10;stroke-width:0.5px;}</style></defs><title>gift-icon</title><g id="Слой_2" data-name="Слой 2"><g id="Layer_1" data-name="Layer 1"><rect class="cls-1" x="15.62" y="24.66" width="41.38" height="41.38" transform="translate(81.65 9.04) rotate(90)"/><polygon points="38.75 66.04 32.39 66.04 32.39 43.11 32.39 24.67 38.75 24.67 38.75 43.1 38.75 66.04"/><path class="cls-1" d="M19.09,16.57,13.26,9.2a5.79,5.79,0,1,0-3.73,9.32l9.3-1.3A.41.41,0,0,0,19.09,16.57Z"/><path class="cls-1" d="M19.81,16.21l7.64-5.47a5.79,5.79,0,1,0-9.13-4.18l.85,9.36A.41.41,0,0,0,19.81,16.21Z"/><path class="cls-1" d="M.79,14.68H46.61a2.11,2.11,0,0,1,2.11,2.11v9.95a0,0,0,0,1,0,0h-50a0,0,0,0,1,0,0V16.79A2.11,2.11,0,0,1,.79,14.68Z" transform="translate(-7.46 16.28) rotate(-33.05)"/><polygon points="28.36 25 22.93 28.31 19.46 22.62 16.67 18.05 22.1 14.74 24.89 19.31 28.36 25"/></g></g></svg>