<svg xmlns="http://www.w3.org/2000/svg" viewBox="0 0 10.1 13.4" fill="#fff"><path d="M5.9 3.5a7.7 7.7 0 0 0 2-1.3 1.3 1.3 0 0 0 0-1.8 1.2 1.2 0 0 0-1-.4 1.2 1.2 0 0 0-.8.4 8.1 8.1 0 0 0-1.2 2 8.2 8.2 0 0 0-1.2-2 1.2 1.2 0 0 0-.9-.4 1.2 1.2 0 0 0-.8.4 1.3 1.3 0 0 0 0 1.8 7.8 7.8 0 0 0 2 1.3H0v10H10v-10H5.8zM7 .9a.3.3 0 0 1 .2.1.4.4 0 0 1 0 .6 5.2 5.2 0 0 1-1.3.8A5.7 5.7 0 0 1 6.9 1 .2.2 0 0 1 7 1zm2.2 3.5v8.1H1V4.4h8.3zM2.7 1a.3.3 0 0 1 .2-.1.3.3 0 0 1 .2.1A5.7 5.7 0 0 1 4 2.4a5.2 5.2 0 0 1-1.2-.8.4.4 0 0 1 0-.6z"/></svg>