<svg id="Capa_1" data-name="Capa 1" xmlns="http://www.w3.org/2000/svg" viewBox="0 0 24.2 24.3"><title>test2</title><path d="M31.3,41.1H16.1a4.48,4.48,0,0,0-4.5,4.5V60.9a4.48,4.48,0,0,0,4.5,4.5H31.3a4.48,4.48,0,0,0,4.5-4.5V45.7A4.57,4.57,0,0,0,31.3,41.1ZM24,59.8a6.2,6.2,0,1,1,6.2-6.2A6.23,6.23,0,0,1,24,59.8ZM31.5,47a1.49,1.49,0,0,1-.9.4,1.09,1.09,0,0,1-.9-0.4,1.49,1.49,0,0,1-.4-0.9,1.09,1.09,0,0,1,.4-0.9,1.49,1.49,0,0,1,.9-0.4,1.09,1.09,0,0,1,.9.4,1.49,1.49,0,0,1,.4.9A1.8,1.8,0,0,1,31.5,47Z" transform="translate(-11.6 -41.1)"/><path d="M24,50a3.69,3.69,0,0,0-3.7,3.7,3.7,3.7,0,0,0,7.4,0A3.69,3.69,0,0,0,24,50Z" transform="translate(-11.6 -41.1)"/></svg>