<svg xmlns="http://www.w3.org/2000/svg" viewBox="0 0 13.24 12.69"><g id="Слой_2" data-name="Слой 2"><g id="Layer_1" data-name="Layer 1"><path d="M13,5.55a.73.73,0,0,0,.18-.75.74.74,0,0,0-.59-.5L9,3.78a.22.22,0,0,1-.16-.12L7.3.41A.74.74,0,0,0,6.64,0h0A.73.73,0,0,0,6,.41L4.38,3.66a.22.22,0,0,1-.16.12L.63,4.3A.71.71,0,0,0,0,4.8a.73.73,0,0,0,.18.75L2.81,8.08a.22.22,0,0,1,.06.19L2.3,11.83a.73.73,0,0,0,.72.86.71.71,0,0,0,.28-.09l3.24-1.72a.18.18,0,0,1,.2,0L10,12.56a.72.72,0,0,0,.77-.06.74.74,0,0,0,.28-.62l-.61-3.56a.2.2,0,0,1,.06-.19ZM10.5,11.88a.22.22,0,0,1-.09.21.2.2,0,0,1-.23,0L7,10.41a.74.74,0,0,0-.68,0L3.09,12.1a.24.24,0,0,1-.23,0,.2.2,0,0,1-.09-.22l.61-3.57a.76.76,0,0,0-.21-.64L.58,5.14a.2.2,0,0,1,0-.22A.2.2,0,0,1,.7,4.77l3.59-.52a.76.76,0,0,0,.54-.4L6.43.6A.21.21,0,0,1,6.62.48.22.22,0,0,1,6.81.6l1.6,3.25A.71.71,0,0,0,9,4.26l3.59.52a.22.22,0,0,1,.17.15.25.25,0,0,1-.05.22L10.09,7.68a.72.72,0,0,0-.21.65Z"/><circle cx="6.75" cy="7.06" r="1.77"/></g></g></svg>