<svg xmlns="http://www.w3.org/2000/svg" viewBox="0 0 24.1 24.1"><title>ok-icon</title><g id="Слой_2" data-name="Слой 2"><g id="Capa_1" data-name="Capa 1"><path d="M7.2,8.3C5.5,8.3,4.6,9.6,4.6,12s.9,3.7,2.6,3.7S9.8,14.4,9.8,12,8.9,8.3,7.2,8.3Z"/><path d="M19.6,0H4.5A4.48,4.48,0,0,0,0,4.5V19.6a4.48,4.48,0,0,0,4.5,4.5H19.6a4.48,4.48,0,0,0,4.5-4.5V4.5A4.48,4.48,0,0,0,19.6,0ZM7.2,18.1c-3.1,0-5-2.3-5-6s1.9-6,5-6,4.9,2.3,5,6S10.3,18.1,7.2,18.1Zm14.2-1.2c.1.1.2.3.1.4s-.2.2-.3.2H19.3a.37.37,0,0,1-.3-.1l-3.4-3.9v3.7a.43.43,0,0,1-.4.4H13.6a.43.43,0,0,1-.4-.4V6.8a.43.43,0,0,1,.4-.4h1.6a.43.43,0,0,1,.4.4v3.6L19,6.5a.37.37,0,0,1,.3-.1h2c.1,0,.2.1.3.2a.6.6,0,0,1-.1.4l-4.3,5Z"/></g></g></svg>