<svg xmlns="http://www.w3.org/2000/svg" viewBox="0 0 24.1 24.1"><path d="M7.2 8.3c-1.7 0-2.6 1.3-2.6 3.7s.9 3.7 2.6 3.7 2.6-1.3 2.6-3.7-.9-3.7-2.6-3.7z"/><path d="M19.6 0H4.5A4.5 4.5 0 0 0 0 4.5v15.1a4.5 4.5 0 0 0 4.5 4.5h15.1a4.5 4.5 0 0 0 4.5-4.5V4.5A4.5 4.5 0 0 0 19.6 0zM7.2 18.1c-3.1 0-5-2.3-5-6s1.9-6 5-6 4.9 2.3 5 6-1.9 6-5 6zm14.2-1.2c.1.1.2.3.1.4l-.3.2h-1.9a.4.4 0 0 1-.3-.1l-3.4-3.9v3.7a.4.4 0 0 1-.4.4h-1.6a.4.4 0 0 1-.4-.4V6.8a.4.4 0 0 1 .4-.4h1.6a.4.4 0 0 1 .4.4v3.6L19 6.5a.4.4 0 0 1 .3-.1h2l.3.2a.6.6 0 0 1-.1.4l-4.3 5z"/></svg>
