<svg xmlns="http://www.w3.org/2000/svg" viewBox="0 0 9.15 12.96">
    <g id="Слой_2" data-name="Слой 2">
        <g id="Layer_1" data-name="Layer 1">
            <path d="M7.52,4.19H1.59A3.22,3.22,0,0,1,7.38,1.84V1.9l.4-.29V1.55A3.71,3.71,0,0,0,1.1,4.28,1.6,1.6,0,0,0,0,5.81v5.52A1.63,1.63,0,0,0,1.63,13H7.52a1.63,1.63,0,0,0,1.63-1.63V5.81A1.63,1.63,0,0,0,7.52,4.19ZM8.66,5.82v5.52a1.14,1.14,0,0,1-1.14,1.13H1.64A1.14,1.14,0,0,1,.52,11.34V5.82A1.14,1.14,0,0,1,1.66,4.69H7.52A1.14,1.14,0,0,1,8.66,5.82Z"/>
            <rect x="3.73" y="6.39" width="1.63" height="4.5" rx="0.13" ry="0.13"/>
        </g>
    </g>
</svg>