<svg xmlns="http://www.w3.org/2000/svg" viewBox="0 0 30.12 32.79"><g id="Слой_2" data-name="Слой 2"><g id="Layer_1" data-name="Layer 1"><path d="M18.79,30.84,2.44,14.39a8.52,8.52,0,0,1,0-11.93,8.31,8.31,0,0,1,11.78,0L28.63,17l-.73.54L13.55,3c-2-2.1-7.4-3.32-10.36.13a7.41,7.41,0,0,0-.08,10.59L19.57,30.26A5.78,5.78,0,0,0,27.49,30a5.58,5.58,0,0,0,.16-7.74L13.4,7.84A4.07,4.07,0,0,0,8.08,8,4.25,4.25,0,0,0,8,13.43l12.12,12.2-.66.75L7.36,14.18a4.86,4.86,0,0,1,0-6.83,4.8,4.8,0,0,1,6.8,0l14,14.08a6.64,6.64,0,1,1-9.36,9.41Z"/></g></g></svg>