<svg xmlns="http://www.w3.org/2000/svg" id="Layer_1" data-name="Layer 1" viewBox="0 0 50 26"><defs><style>.cls-2{fill-rule:evenodd;fill:#616262}</style></defs><path fill="#d7ac79" fill-rule="evenodd" d="M10.8 24.4a47 47 0 0 1 29.3-3l.1-3.2a51 51 0 0 0-29.4 5.9v.3z"/><path d="M17.8 15.2l3-9.8h2.7l-3 9.8h-2.7zM16.6 5.4l-2.3 4.2a10 10 0 0 0-1.2 2.3L13 9.4l-.3-4H8.3v.3a1.9 1.9 0 0 1 2 1.7l.8 7.8H14l5.5-9.8zM37.3 15.3v-1.5h-3.4l-.7 1.4h-2.9l5.3-9.8H39l.9 9.8zM37 9.4a22.2 22.2 0 0 1 0-2.3c-.2.4-.8 2-1.2 2.6l-1 2.2h2.3L37 9.5zM26.3 15.5a7.4 7.4 0 0 1-4-1.1l1.2-2a4.9 4.9 0 0 0 2.9 1 1.2 1.2 0 0 0 1.1-.5c.4-.6 0-1-1-1.6l-.6-.3c-1.5-1-2.2-2-1.5-3.8.5-1.1 1.7-2 3.7-2a6 6 0 0 1 3.5 1.2L30 8.1a3.3 3.3 0 0 0-2-.9 1.3 1.3 0 0 0-1.2.5c-.2.6.1 1 1 1.5l.5.4c2 1.1 2.3 2.4 1.9 3.5a3.9 3.9 0 0 1-4 2.5z" class="cls-2"/></svg>