<svg xmlns="http://www.w3.org/2000/svg" data-name="Layer 1" viewBox="0 0 50 26"><path fill="#616262" fill-rule="evenodd" d="M5.6 8.7h4.3a2.2 2.2 0 0 1 2.2 2.8 3.5 3.5 0 0 1-3.5 2.8H6.8L6.2 17H3.7l1.9-8.4zm30.8 2.1a12.7 12.7 0 0 1 2.7-.4c1.6 0 3.3.5 3 2.3l-1 4.4h-2.3l.1-.7c-1.3 1.2-4.4 1.3-3.9-1.4.4-1.6 2-2.1 4.7-2.1.1-.7-.4-1-1.2-.9a7.5 7.5 0 0 0-2.3.5l.2-1.6zm1 4c-.4.5 0 1 .6 1a1.1 1.1 0 0 0 1.2-1l.1-.5h-.5c-.5 0-1.2 0-1.4.5zm-24-4l-.3 1.5a7 7 0 0 1 2.3-.4c.8 0 1.3.1 1.2.9-2.6 0-4.3.5-4.7 2-.5 2.8 2.6 2.8 3.9 1.6l-.2.6H18l1-4.4c.4-1.8-1.4-2.3-3-2.3a11 11 0 0 0-2.6.4zm.9 4c.2-.5 1-.6 1.4-.6h.6l-.2.6a1.2 1.2 0 0 1-1.2.9c-.5 0-1-.4-.6-1zm5.8-4.3h2.3l.4 3.7 2.3-3.7h2.5l-5.6 9h-2.7l1.7-2.7-1-6.2zm24.3-2.4l-2 9h2.5l2-9zm-15.7.6l-2 8.4h2.5l.7-2.8h1.8a3.5 3.5 0 0 0 3.5-2.7 2.2 2.2 0 0 0-2.3-2.9zm2 1.7H32a.9.9 0 0 1 .9 1.2 1.6 1.6 0 0 1-1.5 1.1h-1.2l.6-2.3zm-23 0l-.5 2.3h1.1a1.5 1.5 0 0 0 1.5-1.1.9.9 0 0 0-.9-1.2z"/></svg>