<svg xmlns="http://www.w3.org/2000/svg" id="Layer_1" data-name="Layer 1" viewBox="0 0 50 26"><defs><style>.cls-1{fill:#d7ac79}.cls-1,.cls-2,.cls-3{fill-rule:evenodd}.cls-2{fill:#616262}.cls-3{fill:#fff}.cls-4{fill:none;stroke:#fff;stroke-miterlimit:2.61;stroke-width:.08px}</style></defs><path d="M32.5 23.4h.6l.5-.1h.5l.5-.2h.5l.5-.2.5-.2.5-.2.5-.2.4-.2.5-.3.4-.2.4-.3.4-.4.4-.3.4-.3.3-.4.4-.4.3-.4.3-.4.2-.4.3-.4.2-.5.2-.5.2-.4.2-.5.1-.5.1-.6.1-.5.1-.5v-2.7l-.1-.5-.2-.5-.1-.5-.2-.5-.2-.5-.2-.4-.2-.5-.3-.4-.2-.4-.3-.5-.3-.3-.4-.4-.3-.4-.4-.4-.4-.3-.4-.3-.4-.3-.4-.3-.5-.2-.4-.2-.5-.3-.5-.1-.4-.2-.5-.1-.6-.2h-.5l-.5-.1h-2.7l-.5.1-.5.1-.5.2-.5.2-.5.1-.4.3-.5.2-.4.2-.5.3-.4.3-.4.3-.3.3-.4.4-.4.4-.3.3-.3.4-.3.5-.3.4-.2.4-.3.5-.2.4-.1.5-.2.5-.1.5-.2.5v.5l-.1.5v2.7l.1.5.2.5v.5l.3.5.1.5.3.5.2.4.2.5.3.4.3.4.3.4.3.4.4.4.3.3.4.3.4.4.4.3.5.2.4.3.5.2.4.2.5.2.5.2.5.1.5.1.5.1.5.1h1.1z" class="cls-1"/><path d="M18.4 23.4h.6l.5-.1h.5l.6-.2h.5l.5-.2.4-.2.5-.2.5-.2.4-.2.5-.3.4-.3.4-.2.4-.4.4-.3.4-.3.3-.4.4-.4.3-.4.3-.4.2-.4.3-.5.2-.4.2-.5.2-.5.2-.4.1-.6.1-.5.1-.5V14l.1-.5v-2.2l-.2-.5v-.5l-.2-.5-.2-.5-.2-.5-.2-.4-.2-.5-.3-.4-.2-.5-.3-.4-.3-.4-.4-.3-.3-.4-.4-.4-.4-.3-.4-.3-.4-.3-.4-.3-.4-.2-.5-.3-.5-.2-.4-.1-.5-.2-.5-.2h-.5l-.6-.2H17l-.6.1-.5.1-.5.2-.5.2-.5.1-.4.3-.5.2-.4.2-.4.3-.5.3-.3.3-.4.3-.4.4-.3.3-.4.4-.3.4-.3.4-.3.5-.2.4-.3.5-.2.4-.1.5-.2.5-.2.5v.5l-.2.5v3.2l.1.5.1.5.2.5.1.5.2.5.3.5.2.4.2.5.3.4.3.4.3.4.3.4.4.4.4.3.3.3.4.4.5.3.4.2.4.3.5.2.4.2.5.2.5.2.5.1.5.1.5.1.6.1h1z" class="cls-2"/><path d="M24.3 6.3h5.5v-.5h-5l-.6.5zM23.4 7.6h6.4v-.5h-6l-.4.5zM22.8 8.9h7v-.6H23l-.2.6zM22.4 10.2h7.4v-.6h-7.3l-.1.6zM22.6 16.3H30v-.6h-7.5l.2.6zM23.1 17.6H30V17h-7l.2.6zM23.9 18.8h6v-.5h-6.4l.4.5zM25 20.1h4.9v-.6h-5.5l.5.6zM22.1 11.4h7.7v-.6h-7.6v.6zM26.8 15h3v-.5h-2.9v.5zM27 13.8h2.8v-.6h-2.6l-.1.6z" class="cls-1"/><path d="M22 13.2h.7v.6h-.8v-.6z" class="cls-2"/><path d="M20.5 12.5h-1.3l-.1.1V13l.1.1h.1l.1.1h.1l.1.1H20v.1l.2.1.2.2v.2l.1.2V14.7l-.1.1v.1l-.2.2-.1.1h-.1l-.2.1-.2.1H17.5l.2-.9h.1l.1.1h.5l.1.1h.6l.1-.1v-.1l.1-.1V14H19V14h-.2l-.1-.1h-.2l-.1-.2h-.1l-.2-.1v-.1l-.2-.2V12.2h.1V12l.2-.1v-.1h.1l.2-.1h.1l.1-.1h.4l.2-.1h1.2l-.1.9z" class="cls-3"/><path d="M20.5 12.5h-1.3l-.1.1V13l.1.1h.1l.1.1h.1l.1.1H20v.1l.2.1.2.2v.2l.1.2V14.7l-.1.1v.1l-.2.2-.1.1h-.1l-.2.1-.2.1H17.5l.2-.9h.1l.1.1h.5l.1.1h.6l.1-.1v-.1l.1-.1V14H19V14h-.2l-.1-.1h-.2l-.1-.2h-.1l-.2-.1v-.1l-.2-.2V12.2h.1V12l.2-.1v-.1h.1l.2-.1h.1l.1-.1h.4l.2-.1h1.2l-.1.9" class="cls-4"/><path d="M21.3 10.8h1l-.1.9h.6l-.2.8H22l-.3 2v.1h.1v.1h.6v.6h-.2v.1H20.8l-.1-.1-.1-.1v-.5l.6-3.9z" class="cls-3"/><path d="M21.3 10.8h1l-.1.9h.6l-.2.8H22l-.3 2v.1h.1v.1h.6v.6h-.2v.1H20.8l-.1-.1-.1-.1v-.5l.6-3.9" class="cls-4"/><path d="M23.5 13.8V14.2l.1.1v.1h.1v.1l.1.1h.1l.1.1H24.6v.1h.6l.1-.1h.2l.1-.1.1-.1-.1.9H25.2v.1H23.4l-.1-.1-.2-.1-.1-.1-.2-.2h-.1l-.1-.3v-.1l-.1-.3V14l-.1-.3V13.2l.1-.2v-.1l.1-.2.1-.1.1-.2.1-.1.2-.2h.1l.2-.2h.2l.2-.1h.3l.3-.1H25l.1.1h.1l.2.2.2.2v.1l.2.2v1.4h-2.6l.1-.7H25v-.4h-.1v-.1h-.1v-.1h-.2v-.1H24v.1H24l-.1.1-.1.1v.2l-.1.1-.2.8z" class="cls-3"/><path d="M23.5 13.8V14.2l.1.1v.1h.1v.1l.1.1h.1l.1.1H24.6v.1h.6l.1-.1h.2l.1-.1.1-.1-.1.9H25.2v.1H23.4l-.1-.1-.2-.1-.1-.1-.2-.2h-.1l-.1-.3v-.1l-.1-.3V14l-.1-.3V13.2l.1-.2v-.1l.1-.2.1-.1.1-.2.1-.1.2-.2h.1l.2-.2h.2l.2-.1h.3l.3-.1H25l.1.1h.1l.2.2.2.2v.1l.2.2v1.4h-2.6l.1-.7H25v-.4h-.1v-.1h-.1v-.1h-.2v-.1H24v.1H24l-.1.1-.1.1v.2l-.1.1-.2.8" class="cls-4"/><path d="M32 11.9h-.1v-.1H31.5l-.1-.1h-1.2l-.1.2H30l-.1.1-.1.1v.2l-.2.1v.2l-.1.2v.4h-.1v.7h.1v.2h.1v.1l.2.1.2.1h.1l.1.1h1l.1-.1h.1v-.1 1H31.1l-.2.1H29.5l-.2-.1-.2-.1-.1-.1-.2-.1-.1-.2-.1-.1-.1-.2-.1-.2V14l-.1-.3v-1.1l.1-.1v-.2h.1V12l.1-.1.1-.1v-.1l.1-.1v-.1l.1-.1.1-.1.1-.2h.2l.1-.1V11h.2v-.1h.2l.2-.1h.2l.1-.1h1.4l.1.1h.2v.1l-.1 1z" class="cls-3"/><path d="M32 11.9h-.1v-.1H31.5l-.1-.1h-1.2l-.1.2H30l-.1.1-.1.1v.2l-.2.1v.2l-.1.2v.4h-.1v.7h.1v.2h.1v.1l.2.1.2.1h.1l.1.1h1l.1-.1h.1v-.1 1H31.1l-.2.1H29.5l-.2-.1-.2-.1-.1-.1-.2-.1-.1-.2-.1-.1-.1-.2-.1-.2V14l-.1-.3v-1.1l.1-.1v-.2h.1V12l.1-.1.1-.1v-.1l.1-.1v-.1l.1-.1.1-.1.1-.2h.2l.1-.1V11h.2v-.1h.2l.2-.1h.2l.1-.1h1.4l.1.1h.2v.1l-.1 1" class="cls-4"/><path d="M40.7 15.5h-1l.1-.4-.1.1h-.1v.1h-.1l-.1.1h-.2v.1h-.9l-.2-.2H38l-.1-.2-.1-.1-.1-.2v-.1l-.1-.2v-.2l-.1-.2V13.3l.2-.2v-.2l.1-.1.1-.2.1-.1.1-.2h.1l.2-.2h.1l.1-.2h.5l.1-.1h.6v.1h.2v.1h.1v.1h.1v.1h.1v.1l.3-1.4h1l-.9 4.7z" class="cls-3"/><path d="M40.7 15.5h-1l.1-.4-.1.1h-.1v.1h-.1l-.1.1h-.2v.1h-.9l-.2-.2H38l-.1-.2-.1-.1-.1-.2v-.1l-.1-.2v-.2l-.1-.2V13.3l.2-.2v-.2l.1-.1.1-.2.1-.1.1-.2h.1l.2-.2h.1l.1-.2h.5l.1-.1h.6v.1h.2v.1h.1v.1h.1v.1h.1v.1l.3-1.4h1l-.9 4.7" class="cls-4"/><path d="M39.1 14.6H39.4l.2-.1.1-.1.1-.2.1-.1V14l.1-.2v-1.1h-.1l-.1-.1H39v.1l-.1.2h-.1v.1l-.1.1v.2h-.1v1.1l.2.1.2.1z" class="cls-1"/><path d="M17.3 14.7l-.1.8h-.9V15l-.1.1-.2.1h-.1l-.1.1h-.2l-.2.1H14.8l-.2-.1-.2-.1V15h-.1V15h-.1V13.8l.1-.2h.1l.1-.2.2-.1.2-.2h.5V13h1.2v-.4l-.1-.1-.1-.1h-1.6v.1h-.1l.2-.8H15.2v-.1H17.2v.1h.2v.1l.2.1v.1h.1v.2l.1.1v.4l-.4 1.9z" class="cls-3"/><path d="M17.3 14.7l-.1.8h-.9V15l-.1.1-.2.1h-.1l-.1.1h-.2l-.2.1H14.8l-.2-.1-.2-.1V15h-.1V15h-.1V13.8l.1-.2h.1l.1-.2.2-.1.2-.2h.5V13h1.2v-.4l-.1-.1-.1-.1h-1.6v.1h-.1l.2-.8H15.2v-.1H17.2v.1h.2v.1l.2.1v.1h.1v.2l.1.1v.4l-.4 1.9" class="cls-4"/><path d="M16.5 13.8v-.1h-.7l-.1.1h-.1l-.1.1h-.1v.1h-.1V14.7h.8l.1-.1v-.1h.1v-.2l.1-.1V13.8z" class="cls-2"/><path d="M9.9 15.5h-1l.8-4.7h1.7l.2 2.8 1.1-2.8h1.8l-.9 4.7h-1l.7-3.5-1.5 3.5h-1v-.2l-.1-.4v-1.2l-.1-.6V12h-.1l-.6 3.5z" class="cls-3"/><path d="M9.9 15.5h-1l.8-4.7h1.7l.2 2.8 1.1-2.8h1.8l-.9 4.7h-1l.7-3.5-1.5 3.5h-1v-.2l-.1-.4v-1.2l-.1-.6V12h-.1l-.6 3.5" class="cls-4"/><path d="M35 14.7l-.2.8h-.9V15l-.1.1h-.1v.1h-.2v.1h-.2l-.1.1H32.3v-.1H32v-.1H32v-.1l-.1-.1v-.2h-.1v-1l.2-.2.1-.2h.1l.1-.1h.1l.1-.1h.1l.1-.1H33l.1-.1H34.3v-.5H34v-.1h-1.5l-.1.1.2-.8h.2v-.1H34.7l.2.1.2.1v.1l.1.1.1.1v.1l.1.1v.4l-.3 1.9zM34.8 15.5l.2-.8-.2.8zM33.9 15.5h.9-.9z" class="cls-3"/><path d="M34 15l-.1.1v.4-.4z" class="cls-3"/><path d="M32.6 15.5h.8l.1-.1h.1l.1-.1.1-.1h.1V15l-.1.1h-.1v.1h-.2l-.1.1H33l-.1.1h-.4z" class="cls-3"/><path d="M31.7 14.5v.4l.1.1v.1h.1v.1l.1.1h.1l.1.1h.1l.1.1h.2H32.3v-.1h-.1l-.1-.1-.2-.2V14.8h-.1V14.5zM33 13.1H32.7l-.2.1-.1.1h-.1l-.1.1-.1.1v.1l-.2.1v.2l-.1.2v.4V13.9h.1v-.2h.1l.1-.1.1-.1.1-.1h.1l.1-.1h.1l.2-.1h.2V13z" class="cls-3"/><path d="M33.7 13H33l-.1.1h.7zM34.2 13h-.4.4zM34.2 12.8v.2-.1zM33.8 12.5H34.2v.2h.1v.1-.2l-.1-.1h-.2z" class="cls-3"/><path d="M32.3 12.7h.1l.1-.1h.5l.1-.1h.7H32.3v.1h-.1z" class="cls-3"/><path d="M32.5 11.8l-.2.8.3-.8zM34.1 11.6H32.8l-.1.1h-.2v.1h.2l.2-.1H34.2z" class="cls-3"/><path d="M35.3 12.8v-.6l-.1-.1-.1-.1H35l-.1-.1-.1-.1h-.1l-.1-.1H34 34.7v.1h.2v.2h.2v.1l.1.1v.1l.1.1v.4z" class="cls-3"/><path d="M35 14.7l.3-1.9-.4 1.9z" class="cls-3"/><path d="M34 13.8v-.1h-.6l-.1.1h-.1l-.1.1-.1.1-.1.1v.5h.8l.1-.1h.1v-.1l.1-.1v-.5z" class="cls-1"/><path d="M42 14.7l.1-.2.1-.2h.7v.1l.1.1v.1l-.1-.1-.1-.1-.2-.1h-.2l-.1.1-.1.1v.1H42z" class="cls-3"/><path d="M42.4 14.7v-.2H42.7v.1H42.4z" class="cls-3"/><path d="M42 14.7v.1l.1.1.1.2h.2v.1h.4l.1-.1V15h.1V14.6v.2h-.1v.1h-.1l-.2.1h-.2l-.1-.1-.1-.1v-.2H42z" class="cls-3"/><path d="M42.4 14.7v.2-.2h.2v.2h.1v-.2H42.4z" class="cls-3"/><path d="M42 14.7v-.2l.1-.1v-.1h.7v.1l.1.1v.4l.1.1-.1.1h-.7V14.8m.4.1h-.1v-.4h.2V14.8l-.1-.2h-.1v.2m0-.2h.2-.2m0 .5H42.9V14.4h-.4v.6h.1" class="cls-4"/><path d="M35.2 15.5h1l.4-2V13h.1V13l.1-.1.1-.1.2-.1h.1l.2-.1H37.8l.2-1H37.6v.1h-.2l-.1.1-.1.1H37v.1H37v.1h-.1v.2h-.1v-.6h-1l-.6 3.8z" class="cls-3"/><path d="M35.2 15.5h1l.4-2V13h.1V13l.1-.1.1-.1.2-.1h.1l.2-.1H37.8l.2-1H37.6v.1h-.2l-.1.1-.1.1H37v.1H37v.1h-.1v.2h-.1v-.6h-1l-.6 3.8" class="cls-4"/><path d="M25.8 15.5h1l.4-2V13h.1V13l.1-.1.1-.1h.1l.2-.1h.4v-.1h.1v-.4h.1V12l.1-.2h.1v-.1h-.7v.1h-.1l-.1.1-.1.2h-.1v.2h-.1l.1-.6h-1l-.7 3.8z" class="cls-3"/><path d="M25.8 15.5h1l.4-2V13h.1V13l.1-.1.1-.1h.1l.2-.1h.4v-.1h.1v-.4h.1V12l.1-.2h.1v-.1h-.7v.1h-.1l-.1.1-.1.2h-.1v.2h-.1l.1-.6h-1l-.7 3.8" class="cls-4"/></svg>