<svg xmlns="http://www.w3.org/2000/svg" id="Layer_1" data-name="Layer 1" viewBox="0 0 50 26"><defs><style>.cls-2{fill:#616262}.cls-3{fill:#f0912b}.cls-4{fill:#e2ae6d}</style></defs><path fill="#d7ac79" d="M16.6 14.4a1 1 0 0 0-.6-.2h.1a1.6 1.6 0 0 1 .8.2l.3.1h.1a3.8 3.8 0 0 0 .1-.7v-.1-.1a7.4 7.4 0 0 0 0-1 7.2 7.2 0 0 0-.2-1 .4.4 0 0 0 0-.2 6.8 6.8 0 0 0-1-1.7 6.2 6.2 0 0 0-2-1.7 4.8 4.8 0 0 0-2.2-.8 3.6 3.6 0 0 0-3 1.5 4.5 4.5 0 0 0-.9 1.9 5.5 5.5 0 0 0 .4 3.1 5 5 0 0 0 2.4 2.7 6.3 6.3 0 0 0 2 .6h.4a2 2 0 0 1 0-.8.4.4 0 0 1 0-.2c0 .2.2.4.4.6a3.3 3.3 0 0 0 1 .7 4.3 4.3 0 0 0 1.3.3 7 7 0 0 1 1.7.4 5.3 5.3 0 0 1 2.1 1.7 3.5 3.5 0 0 1 .4.6.9.9 0 0 1 0 .2v.1c0 .1 0 0 0 0a4.2 4.2 0 0 0-1.4-1.4 5.3 5.3 0 0 0-2.2-.9 4.7 4.7 0 0 0-2.1.1 6.7 6.7 0 0 1-3.3 0 7.2 7.2 0 0 1-2.7-1 5.3 5.3 0 0 1-1.7-2 6.2 6.2 0 0 1-.6-2.4 6.3 6.3 0 0 1 .1-1.9 6.7 6.7 0 0 1 1-2.2 6.8 6.8 0 0 1 2-1.9 7 7 0 0 1 2.6-1 6.7 6.7 0 0 1 3.4.3 6.2 6.2 0 0 1 2.2 1.3 6 6 0 0 1 1.8 5.2 6.8 6.8 0 0 1-1.2 3 1.2 1.2 0 0 1-.2.3 1.3 1.3 0 0 1-.1-.3 2.6 2.6 0 0 0-1-1.3l-.2-.1z"/><path d="M31.8 8.7h.8c.2 0 .2.1.2.2l.3 1.2a516.6 516.6 0 0 0 .9 3.3l.2-.6L35.3 9c.1-.2.1-.2.4-.2s.3 0 .4.3l1 3.1.3 1.2v.1a.9.9 0 0 0 .1-.3l1-3.5v.1-.3a3.8 3.8 0 0 0 0-.4.2.2 0 0 1 .2-.2h.8l.1.1v.3l-.3 1.2-1 3.6-.4 1.5c0 .2-.1.2-.3.2a2.5 2.5 0 0 0-.4 0c-.1 0-.2 0-.2-.2l-.7-2-.7-2a.5.5 0 0 0 0-.1l-.2.5-1.1 3.5c-.1.3-.1.3-.5.3h-.2c-.2 0-.2 0-.3-.2a106.6 106.6 0 0 1-1.6-6.8h-.2 1.2-.7-.2zM20.7 14a3.6 3.6 0 0 1-.4-1.3 4.8 4.8 0 0 1 .3-2.1 2.9 2.9 0 0 1 1.9-2 3 3 0 0 1 2.7.4 3.1 3.1 0 0 1 1.3 2 .2.2 0 0 0 0 .1 3.7 3.7 0 0 1 .1 1V13a3.3 3.3 0 0 1-2 2.7c-.1 0-.1 0 0 .2a2.3 2.3 0 0 0 1 1.1 5 5 0 0 0 1.1.5c.3 0 .3.1.3.3a.3.3 0 0 1-.4.2 5.3 5.3 0 0 1-1.4-.3 4.3 4.3 0 0 1-1.5-1 3 3 0 0 1-.6-.8.2.2 0 0 0-.1 0 3 3 0 0 1-1.8-1l-.1-.3a2.1 2.1 0 0 1-.3-.4.4.4 0 0 0-.1-.2zm4.5-1.2a8 8 0 0 0 0-1.4V11.1a2.7 2.7 0 0 0-.5-1 1.4 1.4 0 0 0-1.9-.5A2 2 0 0 0 22 11a6.3 6.3 0 0 0-.1 1v.7a5 5 0 0 0 .1 1 2.2 2.2 0 0 0 .8 1.3 1.8 1.8 0 0 0 .7.3.4.4 0 0 0 .4 0 1.7 1.7 0 0 0 1-.8 3 3 0 0 0 .4-1v-.1a1.3 1.3 0 0 0 0-.5zM33.4 17.6a2.5 2.5 0 0 1 1 0 .5.5 0 0 1 .4.4.6.6 0 0 1-.2.5l-.1.1c0 .1 0 0 0 0a.6.6 0 0 1 .5.7.6.6 0 0 1-.5.5 2.5 2.5 0 0 1-1 0h-.1v-2a.2.2 0 0 0 0-.2zm.3 1a1 1 0 0 0 .3 0s.2 0 .2-.2 0 0 .1 0a.4.4 0 0 0 0-.4c0-.3-.4-.3-.6-.3l-.1.1v.7zm0 .6v.4h.5a.4.4 0 0 0 .4-.3.5.5 0 0 0-.4-.5 1.8 1.8 0 0 0-.4 0h-.1zM37.2 18a1.6 1.6 0 0 0-.3.5l-1 1.3a.2.2 0 0 1-.2 0v-2.1l.1-.2.2.1v1.5l1.1-1.5a.3.3 0 0 1 .4 0v2.1a.1.1 0 0 0 0 .2h-.1l-.1-.2v-1.5-.1zM30.9 19.3l.3-.3 1-1.4c0-.1.1-.1.2 0v2.2l-.1.1c-.1 0-.2 0-.2-.2v-1.3a.2.2 0 0 0 0-.2L31 19.9h-.2l-.1-.2v-2.2l.2.1V19.3zm1.3.5v-1.6zM28.5 17.5a.2.2 0 0 1 .2 0 .6.6 0 0 1 0 .3v.6h.2l.6-.8a.3.3 0 0 1 .3-.1c.1 0 0 0 0 .1l-.2.3-.4.6c-.1 0-.1 0 0 .1l.8 1.1v.2a.4.4 0 0 1-.5-.3l-.6-.8v-.1.3a7.3 7.3 0 0 0 0 .8.5.5 0 0 1-.4 0v-2 2-2.2zM29.7 15.7h-1.1c-.1 0-.2 0-.2-.2V9v-.1a.1.1 0 0 1 .2-.2h1l.2.1c-.1-.1-.3 0-.4 0h-.7c-.2 0-.2 0-.2.2v6.6c0 .1 0 0 .1 0h1.1z" class="cls-2"/><path d="M16.2 17a.5.5 0 0 1-.4-.6.3.3 0 0 1 .4-.2.5.5 0 0 1 .2.7.3.3 0 0 1-.2.1z" class="cls-3"/><path d="M42.7 12.2v3.1a1.5 1.5 0 0 1 0 .2.1.1 0 0 1-.1.2h-1c-.2 0-.2 0-.3-.2V9c0-.3 0-.3.3-.3h.9c.2 0 .2 0 .2.3v3.2zm-1 3.5h.9a.1.1 0 0 0 0-.2V9.1a2.5 2.5 0 0 0 0-.3l-.1-.1c-.1 0 0 0 0 0h-1c-.1 0 0 .1 0 .2v6.6z" class="cls-2"/><path d="M17.6 16.3a.5.5 0 0 1 0 .1s-.1.1-.2 0a1 1 0 0 1-.2-.5v-.1a.1.1 0 0 1 .2 0 .7.7 0 0 1 .2.5z" class="cls-3"/><path d="M17.4 13.5v.2a3.8 3.8 0 0 1-.1.7H17l-.2-.1a1.6 1.6 0 0 0-.8-.2H16a1 1 0 0 1 .5.2.5.5 0 0 1-.2 0 1.6 1.6 0 0 0-.6-.2.6.6 0 0 1 .2 0 2 2 0 0 1 1.2.2c0 .1.1 0 .1 0l.2-.8z" class="cls-4"/><path d="M29.8 8.9v6.4-5V9zM39.6 9.2v-.3-.1h-.8a.2.2 0 0 0-.2.1 3.8 3.8 0 0 1-.1.5V9.6l.1-.8a.2.2 0 0 1 .2 0h.9a1.2 1.2 0 0 1 0 .4zM30.7 17.5V20h.3a.5.5 0 0 1-.3 0V17.6z" class="cls-2"/><path d="M17.1 11.2a.4.4 0 0 1 .1.3 7.2 7.2 0 0 1 .2.9 7.4 7.4 0 0 1 0 1 .6.6 0 0 1 0-.2 5.7 5.7 0 0 0-.1-1.6 2 2 0 0 1-.2-.4z" class="cls-4"/><path d="M37.2 18c.1 0 0 .2 0 .2v1.5c0 .1 0 .2.2.2-.2 0-.2 0-.2-.2zM26.6 12.8V12a3.7 3.7 0 0 0-.1-.9.2.2 0 0 1 0-.1 3 3 0 0 1 .1.8 3.6 3.6 0 0 1 0 1z" class="cls-2"/><path fill="#3872a1" d="M20.7 14a.4.4 0 0 1 .1.2 2.1 2.1 0 0 0 .3.4v.2a2.8 2.8 0 0 1-.4-.8z"/><path d="M33.4 17.6a.2.2 0 0 1 0 .1v2.1-2.2zM35.7 17.6V17.6zM37.5 19.9a.1.1 0 0 1 0-.2v-2 2.2zM30.9 19.3v-1.6zM31.8 8.7H32.7h-1.2.2zM28.8 19.9a7.3 7.3 0 0 1 0-.9 4.4 4.4 0 0 1 0 .9zM30.9 17.6s0-.1-.2 0a.3.3 0 0 1 .1 0c0-.1.1 0 .1 0zM29.8 15.4v.1l-.1.2v-.3zM28.5 17.5v.1c0 .1 0 0 0 0z" class="cls-2"/><path d="M28.5 19.8a.5.5 0 0 0 .3 0c0 .1 0 0-.1 0a.6.6 0 0 1-.2 0zM28.8 17.5h-.2.2z" class="cls-2"/><path d="M16.5 14.3h.1z" class="cls-4"/><path d="M26.6 13v-.2a.5.5 0 0 1 0 .2z" class="cls-2"/><path d="M16.6 14.4h.1z" class="cls-4"/><path d="M28.5 19.8zM25.2 12.8a7.2 7.2 0 0 0 0-1.6v.2a8 8 0 0 1 0 1.4zM23.4 15h.4a.4.4 0 0 1-.4 0zM25.2 12.8a1.3 1.3 0 0 1 0 .3v.1z" class="cls-2"/><path fill="#1c679d" d="M21.7 11.9v.6-.7z"/><path d="M33.7 18.5a1 1 0 0 0 .6 0h-.2a1 1 0 0 1-.3 0zM33.7 18.5zM33.7 18.5zM32.2 19.8v-1.6 1.6zM28.5 19.8v-2zM29.8 15.4c-.1 0 0 .2 0 .2h-1.2v-.1V9l.1-.2h1.1v6.6zM28.5 9v6.4V9 9zM28.6 15.7h1-1zM29.6 15.7h.1zM42.7 15.4v.1a.1.1 0 0 1 0 .1h-.9-.2l-.1-.1V9l.1-.2h1l.2.1a2.5 2.5 0 0 1 0 .3v.1zM41.4 9V9z" class="cls-2"/><path fill="#075ea0" d="M42.7 15.4V9.3v-.1 6.2z"/><path d="M41.6 15.7h1zM42.5 8.8h-1 1zM41.5 15.6z" class="cls-2"/></svg>