<svg xmlns="http://www.w3.org/2000/svg" id="Layer_1" data-name="Layer 1" viewBox="0 0 50 26"><defs><style>.cls-3{fill-rule:evenodd;fill:#fff}</style></defs><path fill="#616262" fill-rule="evenodd" d="M25.5 21.4a10.4 10.4 0 0 0 0-15.3 10.2 10.2 0 0 0-6.9-2.7 10.3 10.3 0 0 0 0 20.6 10.2 10.2 0 0 0 7-2.6z"/><path fill="#d7ac79" fill-rule="evenodd" d="M32.5 3.4a10.2 10.2 0 0 0-7 2.6 10.7 10.7 0 0 0-1 1.1h2.1a9.2 9.2 0 0 1 .8 1.1h-3.7a10.4 10.4 0 0 0-.6 1.1H28a10.3 10.3 0 0 1 .4 1.1h-5.7a9.7 9.7 0 0 0-.3 1.1h6.3a9.9 9.9 0 0 1 .2 2.2 10.2 10.2 0 0 1-.5 3.3h-5.7a10.3 10.3 0 0 0 .4 1H28a10.4 10.4 0 0 1-.6 1.2h-3.7a9.2 9.2 0 0 0 .8 1h2a10.7 10.7 0 0 1-1 1.2 10.2 10.2 0 0 0 7 2.7 10.3 10.3 0 0 0 0-20.7z"/><path d="M17.4 16.3H16l.8-4-1.8 4H14l-.2-4-.7 4h-1.2l1-5.3h2l.1 3.3 1.4-3.3h2l-1 5.3zM31.6 16.2a3.2 3.2 0 0 1-.9.2c-.6 0-1-.3-1-1v-.3l.1-.5v-.3l.7-3.3h1.2l-.2 1h.7l-.2 1h-.6l-.3 1.8v.2c0 .2 0 .3.4.3a1 1 0 0 0 .3 0l-.1 1zM35.4 12H35a1.4 1.4 0 0 0-1.1.7l.1-.7h-1.1l-.8 4.3h1.2c.5-2.6.7-3.1 1.3-3.1H35l.5-1.2zM26.6 13.4c0 .5.3.9 1 1.2s.6.2.6.4-.2.4-.8.4a4 4 0 0 1-1.1-.1l-.2 1h1.4c1.3 0 2-.5 2-1.4a1.2 1.2 0 0 0-1-1.2c-.5-.2-.6-.3-.6-.5s.3-.3.7-.3a8.5 8.5 0 0 1 1 0v-1h-1c-1.5 0-2 .6-2 1.4zM21.5 16.3h-1v-.5a1.7 1.7 0 0 1-1.4.6 1.1 1.1 0 0 1-1.1-1.2c0-1 .8-1.6 2.3-1.6h.5a1 1 0 0 0 0-.3c0-.3-.2-.4-.8-.4a4.3 4.3 0 0 0-1 .1H18.6l.1-1a5.8 5.8 0 0 1 1.6-.2c1 0 1.6.4 1.6 1.2a4.6 4.6 0 0 1 0 .9l-.3 1.5v.7zm-.9-2a1.7 1.7 0 0 0-.3 0c-.7 0-1 .3-1 .7a.4.4 0 0 0 .4.5c.5 0 .9-.5.9-1zM25.7 16.2a4.9 4.9 0 0 1-1.3.2c-1.4 0-2.2-.7-2.2-2a2.3 2.3 0 0 1 2.3-2.5 1.5 1.5 0 0 1 1.7 1.6 4.1 4.1 0 0 1-.2 1h-2.5a1.1 1.1 0 0 0 0 .1c0 .5.4.8 1.1.8A3.3 3.3 0 0 0 26 15l-.2 1zm-.7-2.5a1.9 1.9 0 0 0 0-.3.5.5 0 0 0-.6-.5c-.4 0-.7.3-.8.8zM39.4 14.4a2.3 2.3 0 0 1-2.5 2 1.8 1.8 0 0 1-2-2 2.4 2.4 0 0 1 2.5-2.5 1.8 1.8 0 0 1 2 2 3 3 0 0 1 0 .4zm-1.4-.6c0-.4-.2-.8-.7-.8s-1 .7-1 1.4.2 1 .7 1a1.3 1.3 0 0 0 1-1 2.6 2.6 0 0 0 0-.5z" class="cls-3"/></svg>