<svg xmlns="http://www.w3.org/2000/svg" id="Layer_1" data-name="Layer 1" viewBox="0 0 50 26"><defs><style>.cls-1{fill:#d7ac79}.cls-2{fill:#616262}</style></defs><path d="M6.3 13.5v4.6c0 .3 0 .4-.3.4-.8 0-.8 0-.8-.8v-2.8c0-.2-.1-.3-.4-.3a.7.7 0 0 0-.8.5l-1.4 3c0 .2-.2.4-.5.3a5.3 5.3 0 0 0-.6 0c-.3 0-.4 0-.2-.3L3 14.7c0-.2.2-.3 0-.4a2.9 2.9 0 0 1-1.3-3.1 2.8 2.8 0 0 1 3-2.7H6c.3 0 .3 0 .3.3v4.7zm-1.1-2V9.8c0-.1 0-.3-.2-.3a1.8 1.8 0 0 0-1.9.9 3 3 0 0 0-.2 1.4 1.7 1.7 0 0 0 2 2c.2 0 .3 0 .3-.3v-1.8z" class="cls-1"/><path d="M17 14.5v2.7c0 .2 0 .4.3.3s.3 0 .3.3v1.8c0 .2 0 .2-.3.2-.8 0-.8 0-.8-.7s0-.6-.6-.6h-2.1c-.3 0-.4 0-.3.3s0 .5 0 .8-.1.3-.4.3c-.7 0-.7 0-.7-.8v-1.3c0-.1 0-.3.2-.3s.3-.1.4-.3a11.2 11.2 0 0 0 .5-3.2v-2.3c0-.2 0-.3.3-.3h2.8c.3 0 .4.1.4.3v2.8zm-1.2.5v-1.9c0-.8 0-.8-.8-.8-.3 0-.4 0-.4.4a14.2 14.2 0 0 1-.6 4.6c0 .2 0 .2.2.2h1.3c.3 0 .3 0 .3-.3V15zM11.7 15v3.2c0 .2 0 .3-.3.3-.8 0-.8 0-.8-.8v-2c0-.3-.1-.4-.4-.4-.4 0-1-.1-1.2.1s0 .8 0 1.2v1.6c0 .2-.1.3-.3.3-1 0-1 0-1-.8v-5.8c0-.4.1-.5.5-.5.7 0 .7 0 .7.8v2c0 .1 0 .2.3.2a9 9 0 0 1 1 0c.3 0 .3 0 .3-.3v-2.3c0-.3.1-.4.4-.4.8 0 .8 0 .8.8zM24.9 14.3l.7-1.3.6-1a.7.7 0 0 1 .8-.6c.7 0 .7 0 .3.6L26 14.5a.5.5 0 0 0 0 .5l1.8 3.2c.1.2.1.3-.2.3-1 0-1 0-1.4-.8L25 15.3c-.2 0-.1.2-.1.3v2.6c0 .2 0 .3-.3.3-1 0-1 0-1-.9v-5.8c0-.3.2-.4.5-.4.8 0 .8 0 .8.8v2.1zM21 15.2h-1.4s-.2 0-.2.2a4.8 4.8 0 0 0 .2 1.3 1.3 1.3 0 0 0 1.7.8 2.2 2.2 0 0 0 .7-.3l.3.1c.2.7.2.8-.5 1a2.4 2.4 0 0 1-3.4-1.7 6.5 6.5 0 0 1 .2-4 1.9 1.9 0 0 1 3.6.2 7.6 7.6 0 0 1 .3 2.2c0 .2-.2.2-.3.2zm-.7-1h1a3.6 3.6 0 0 0-.3-1.6.6.6 0 0 0-1-.1 1.6 1.6 0 0 0-.5 1c0 1-.2.8.7.8zM29.3 15a5 5 0 0 0 .1 1.4 1.3 1.3 0 0 0 2.2 1c.2-.2.3 0 .3.1.2.6.2.7-.4 1a2.3 2.3 0 0 1-3.1-1.5 5.8 5.8 0 0 1 0-4.3 2.5 2.5 0 0 1 3.3-1.2c.2 0 .3.2.3.5a1.3 1.3 0 0 0 0 .2c-.1.5-.1.5-.6.3a1.2 1.2 0 0 0-1.9.7 4.3 4.3 0 0 0-.2 1.8z" class="cls-2"/><path d="M46.8 10.8h1.7c.2 0 .3 0 .3.3a.8.8 0 0 0 0 .1v8.4c0 .3 0 .4-.4.4H37.9a1.2 1.2 0 0 1-1.4-1.3v-6.5a2.4 2.4 0 0 1 .8-1.9l2.4-1.8 5-3.8.3-.2v6.3a.8.8 0 0 0 0 .4v3a.5.5 0 0 1-.3.5l-6 4-.4.3.5-.1 7.7-2.4a.4.4 0 0 0 .3-.5v-5.2zm-3.4 0a.6.6 0 0 0-.8-.7 1.5 1.5 0 0 0-1.1 1.3.6.6 0 0 0 .7.6 1.5 1.5 0 0 0 1.2-1.2z" class="cls-1"/><path d="M46.8 10.8V16a.4.4 0 0 1-.3.5l-7.8 2.4-.4.1.3-.3 6.1-4a.5.5 0 0 0 .3-.4v-3a.8.8 0 0 1 0-.5zM43.4 10.8a1.5 1.5 0 0 1-1.2 1.2.6.6 0 0 1-.7-.7 1.5 1.5 0 0 1 1.1-1.2.6.6 0 0 1 .8.7z" class="cls-2"/></svg>