<svg xmlns="http://www.w3.org/2000/svg" viewBox="0 0 32.04 19.16"><defs><style>.cls-1{fill:#d7ac79;}.cls-1,.cls-2{fill-rule:evenodd;}.cls-2{fill:#616262;}</style></defs><title>payment-methods-icon-1</title><g id="Слой_2" data-name="Слой 2"><g id="Layer_1" data-name="Layer 1"><path class="cls-1" d="M2.63,19.16A47,47,0,0,1,31.9,16.23L32,13C18.57,11.51,8.91,15.8,2.63,18.84v.32Z"/><polygon class="cls-2" points="9.62 10.03 12.6 0.21 15.25 0.21 12.27 10.03 9.62 10.03 9.62 10.03"/><path class="cls-2" d="M8.43.21,6,4.37A10.07,10.07,0,0,0,4.91,6.7h0c0-.87-.08-1.94-.09-2.55L4.52.21H.05L0,.48A1.85,1.85,0,0,1,2,2.23L2.89,10H5.64L11.21.22Z"/><path class="cls-2" d="M29.09,10,29,8.57H25.7L25,10H22.13L27.37.24h3.54l.88,9.8Zm-.31-5.79a22,22,0,0,1,0-2.3h0c-.16.49-.86,2-1.16,2.67l-1,2.15h2.33l-.14-2.52Z"/><path class="cls-2" d="M18,10.31a7.42,7.42,0,0,1-4-1.13L15.3,7.25a4.85,4.85,0,0,0,2.86,1,1.22,1.22,0,0,0,1.16-.56c.37-.63-.08-1-1.12-1.57l-.51-.33c-1.54-1-2.2-2-1.48-3.79.47-1.12,1.69-2,3.7-2a5.93,5.93,0,0,1,3.46,1.19l-1.46,1.7A3.26,3.26,0,0,0,19.85,2a1.24,1.24,0,0,0-1.13.51c-.28.55.09.92.9,1.42l.61.39c1.86,1.18,2.31,2.41,1.84,3.57a3.85,3.85,0,0,1-4,2.43Z"/></g></g></svg>