<svg xmlns="http://www.w3.org/2000/svg" viewBox="0 0 47.55 15.47"><defs><style>.cls-1{fill:#d7ac79;}.cls-2{fill:#616262;}</style></defs><title>payment-methods-icon-4</title><g id="Слой_2" data-name="Слой 2"><g id="Layer_1" data-name="Layer 1"><path class="cls-1" d="M5.12,9c0,1.53,0,3.06,0,4.58,0,.32-.1.39-.4.38C4,14,4,14,4,13.2s0-1.83,0-2.74c0-.25-.08-.31-.33-.33a.69.69,0,0,0-.8.5c-.44,1-.94,2-1.4,3-.1.23-.22.35-.48.32a5.45,5.45,0,0,0-.7,0c-.25,0-.31,0-.18-.29.57-1.16,1.11-2.34,1.67-3.5.07-.15.18-.28-.05-.42A2.87,2.87,0,0,1,.41,6.67,2.8,2.8,0,0,1,3.51,4c.42,0,.85,0,1.27,0,.27,0,.35.07.34.34C5.11,5.89,5.12,7.46,5.12,9ZM4,7.09c0-.62,0-1.25,0-1.88C4,5.1,4,5,3.81,4.91a1.8,1.8,0,0,0-1.9.86,3.05,3.05,0,0,0-.28,1.49,1.73,1.73,0,0,0,2,2c.26,0,.36-.06.35-.34C3.94,8.3,4,7.7,4,7.09Z"/><path class="cls-2" d="M15.73,10c0,.9,0,1.8,0,2.69,0,.26,0,.4.33.35s.26.06.26.27q0,.88,0,1.77c0,.22-.08.27-.29.28-.79,0-.79,0-.79-.75s0-.63-.62-.63-1.41,0-2.12,0c-.27,0-.35.09-.33.35s0,.49,0,.73-.09.3-.32.31c-.76,0-.76,0-.76-.73V13.32c0-.15,0-.31.2-.27s.33-.14.39-.33a11.18,11.18,0,0,0,.55-3.24c0-.76.06-1.51.07-2.27,0-.22,0-.31.3-.31.93,0,1.87,0,2.8,0,.27,0,.33.08.33.33C15.73,8.15,15.73,9.08,15.73,10Zm-1.13.46V8.65c0-.84,0-.82-.85-.84-.31,0-.42.06-.42.4a13.93,13.93,0,0,1-.58,4.63c-.08.22,0,.21.18.21.45,0,.9,0,1.34,0,.26,0,.34-.07.33-.32C14.59,12,14.6,11.21,14.6,10.46Z"/><path class="cls-2" d="M10.5,10.47c0,1.06,0,2.13,0,3.19,0,.25-.07.33-.32.33-.85,0-.85,0-.85-.85,0-.66,0-1.33,0-2,0-.25-.08-.34-.33-.33-.42,0-1-.16-1.23.08s-.08.79-.09,1.21,0,1.07,0,1.61c0,.2-.06.26-.26.27-.92,0-.92,0-.92-.84,0-1.94,0-3.87,0-5.81,0-.32.06-.45.41-.43.76,0,.76,0,.76.78s0,1.28,0,1.92c0,.22,0,.32.29.31a9,9,0,0,1,1,0c.25,0,.34-.06.33-.32,0-.76,0-1.52,0-2.27,0-.31.06-.43.39-.42.77,0,.77,0,.77.76Z"/><path class="cls-2" d="M23.63,9.86l.77-1.39A11.29,11.29,0,0,0,25,7.38a.69.69,0,0,1,.79-.48c.69,0,.69,0,.35.61-.46.82-.89,1.65-1.35,2.46a.45.45,0,0,0,0,.52c.6,1.06,1.18,2.13,1.78,3.19.13.22.13.3-.16.3-1,0-.95,0-1.4-.79s-.89-1.6-1.34-2.41c-.19.09-.12.24-.12.35,0,.85,0,1.7,0,2.54,0,.23-.07.31-.3.31-.9,0-.9,0-.9-.86,0-1.94,0-3.88,0-5.81,0-.32.07-.42.4-.41.79,0,.79,0,.79.78V9.83Z"/><path class="cls-2" d="M19.68,10.7H18.41c-.13,0-.27,0-.25.19a5.18,5.18,0,0,0,.24,1.36,1.28,1.28,0,0,0,1.7.77,2.47,2.47,0,0,0,.67-.29c.13-.09.21-.06.28.11.24.65.2.75-.45,1a2.4,2.4,0,0,1-3.48-1.73,6.51,6.51,0,0,1,.29-4A1.87,1.87,0,0,1,21,8.3a7.59,7.59,0,0,1,.22,2.18c0,.2-.11.22-.28.22Zm-.57-.91h.72c.11,0,.22,0,.21-.16a3.75,3.75,0,0,0-.3-1.52A.63.63,0,0,0,18.66,8a1.59,1.59,0,0,0-.39,1c-.09,1-.28.8.68.82A.86.86,0,0,0,19.11,9.79Z"/><path class="cls-2" d="M28,10.45a5.52,5.52,0,0,0,.13,1.46,1.32,1.32,0,0,0,2.17.93c.24-.14.29-.07.36.14.2.59.17.65-.42.91a2.3,2.3,0,0,1-3.15-1.34,5.81,5.81,0,0,1,.06-4.28A2.46,2.46,0,0,1,30.48,7c.22.09.33.23.25.47a1.23,1.23,0,0,0,0,.19c-.08.55-.08.55-.54.3a1.22,1.22,0,0,0-1.88.71A4.12,4.12,0,0,0,28,10.45Z"/><path class="cls-1" d="M45.59,6.32c.56,0,1.13,0,1.69,0,.21,0,.28.08.26.28v.15q0,4.16,0,8.31c0,.32,0,.44-.41.44H36.63a1.21,1.21,0,0,1-1.34-1.33c0-2.14,0-4.28,0-6.43a2.46,2.46,0,0,1,.82-1.91c.74-.68,1.59-1.22,2.38-1.83l5-3.79L43.72,0c.11.11.06.23.06.34V5.88c0,.14,0,.28,0,.42a.87.87,0,0,0-.06.45q0,1.48,0,3a.48.48,0,0,1-.26.46l-6.07,4c-.11.07-.27.12-.33.28.18,0,.29-.08.42-.12l7.73-2.4a.41.41,0,0,0,.36-.47C45.58,9.73,45.59,8,45.59,6.32Zm-3.46-.05a.59.59,0,0,0-.72-.64A1.51,1.51,0,0,0,40.24,6.9a.59.59,0,0,0,.7.65A1.47,1.47,0,0,0,42.13,6.27Z"/><path class="cls-2" d="M45.59,6.32c0,1.71,0,3.41,0,5.12a.41.41,0,0,1-.36.47l-7.73,2.4c-.13,0-.24.15-.42.12.06-.16.22-.21.33-.28l6.07-4a.48.48,0,0,0,.26-.46q0-1.49,0-3a.87.87,0,0,1,.06-.45Z"/><path class="cls-2" d="M42.13,6.27a1.47,1.47,0,0,1-1.19,1.28.59.59,0,0,1-.7-.65,1.51,1.51,0,0,1,1.17-1.27A.59.59,0,0,1,42.13,6.27Z"/></g></g></svg>