<svg xmlns="http://www.w3.org/2000/svg" viewBox="0 0 34.32 20.7"><defs><style>.cls-1{fill:#616262;}.cls-1,.cls-2,.cls-3{fill-rule:evenodd;}.cls-2{fill:#d7ac79;}.cls-3{fill:#fff;}</style></defs><title>payment-methods-icon-2</title><g id="Слой_2" data-name="Слой 2"><g id="Layer_1" data-name="Layer 1"><path class="cls-1" d="M17.15,18a10.41,10.41,0,0,0,0-15.34A10.2,10.2,0,0,0,10.28,0a10.35,10.35,0,0,0,0,20.69A10.19,10.19,0,0,0,17.15,18Z"/><path class="cls-2" d="M24.06,0a10.19,10.19,0,0,0-6.89,2.67,10.82,10.82,0,0,0-1,1.1H18.2A9.49,9.49,0,0,1,19,4.88H15.34c-.21.35-.41.72-.59,1.1h4.82A10.51,10.51,0,0,1,20,7.07H14.32a9.89,9.89,0,0,0-.3,1.1h6.29a10.57,10.57,0,0,1,.22,2.19A10.22,10.22,0,0,1,20,13.64H14.31a10.45,10.45,0,0,0,.43,1.1h4.82a8.93,8.93,0,0,1-.59,1.1H15.33a9.57,9.57,0,0,0,.79,1.1h2.07a10.82,10.82,0,0,1-1,1.1A10.2,10.2,0,0,0,24,20.7,10.35,10.35,0,0,0,24.06,0Z"/><polygon class="cls-3" points="8.98 12.92 7.7 12.92 8.47 8.88 6.71 12.91 5.55 12.91 5.34 8.91 4.58 12.91 3.42 12.91 4.41 7.67 6.41 7.67 6.51 10.92 7.92 7.67 9.99 7.67 8.98 12.92 8.98 12.92"/><path class="cls-3" d="M23.26,12.88a3.55,3.55,0,0,1-.92.14c-.65,0-1-.33-1-.94a2.58,2.58,0,0,1,0-.38l.08-.42.06-.34.6-3.25h1.27l-.19,1h.65l-.17,1H23l-.34,1.78c0,.08,0,.14,0,.18,0,.22.13.31.44.31a1.05,1.05,0,0,0,.34,0l-.17,1Z"/><path class="cls-3" d="M27,8.71c-.11-.05-.13-.05-.15-.05l-.11,0h-.13c-.41,0-.72.19-1.11.69l.11-.64H24.46l-.79,4.26H25c.46-2.6.66-3.06,1.27-3.06h.16l.15,0L27,8.71Z"/><path class="cls-3" d="M18.2,10c0,.54.3.91,1,1.19s.61.28.61.47-.23.38-.75.38a4,4,0,0,1-1.15-.17l-.18,1h.05l.24,0,.34,0a6.85,6.85,0,0,0,.71,0c1.37,0,2-.44,2-1.42,0-.58-.26-.92-.91-1.18s-.61-.27-.61-.47.22-.35.64-.34a8.3,8.3,0,0,1,.93.06l.18-1c-.33,0-.84-.08-1.14-.08-1.44,0-1.94.65-1.94,1.44Z"/><path class="cls-3" d="M13.14,12.92H12.07l0-.44a1.71,1.71,0,0,1-1.34.51,1.11,1.11,0,0,1-1.17-1.16c0-1,.83-1.65,2.25-1.65.14,0,.33,0,.52,0a.91.91,0,0,0,.05-.28c0-.28-.22-.39-.82-.39a4.76,4.76,0,0,0-1.06.12l-.18.05-.11,0,.17-1a5.91,5.91,0,0,1,1.53-.22c1.1,0,1.68.43,1.68,1.25a4.81,4.81,0,0,1-.1.85l-.27,1.51-.05.27,0,.22,0,.15v.11ZM12.2,11l-.28,0c-.72,0-1.09.22-1.09.65a.42.42,0,0,0,.46.44A1,1,0,0,0,12.2,11Z"/><path class="cls-3" d="M17.33,12.83A4.49,4.49,0,0,1,16,13c-1.43,0-2.17-.65-2.17-1.91a2.33,2.33,0,0,1,2.23-2.54,1.54,1.54,0,0,1,1.73,1.55,4.63,4.63,0,0,1-.16,1.06H15.11a.83.83,0,0,0,0,.13c0,.49.38.75,1.12.75a3.51,3.51,0,0,0,1.33-.27l-.21,1.06Zm-.68-2.53a1.94,1.94,0,0,0,0-.22.53.53,0,0,0-.6-.55c-.41,0-.7.27-.82.76Z"/><path class="cls-3" d="M31,11a2.26,2.26,0,0,1-2.49,2.05,1.82,1.82,0,0,1-2-2A2.38,2.38,0,0,1,29,8.55a1.85,1.85,0,0,1,2,1.93A2.91,2.91,0,0,1,31,11Zm-1.32-.54c0-.45-.18-.87-.7-.87s-1.06.78-1.06,1.46.28,1,.73,1a1.27,1.27,0,0,0,1-1,2.78,2.78,0,0,0,0-.51Z"/></g></g></svg>