<svg xmlns="http://www.w3.org/2000/svg" viewBox="0 0 36.59 14.78"><defs><style>.cls-1{fill:#d7ac79;}.cls-2{fill:#616262;}.cls-3{fill:#f0912b;}.cls-4{fill:#e2ae6d;}.cls-5{fill:#3872a1;}.cls-6{fill:#1c679d;}.cls-7{fill:#075ea0;}</style></defs><title>payment-methods-icon-6</title><g id="Слой_2" data-name="Слой 2"><g id="Layer_1" data-name="Layer 1"><path class="cls-1" d="M10.5,8.52h0a.08.08,0,0,0-.1-.06h0a1.21,1.21,0,0,0-.52-.19s.05,0,.08,0a1.44,1.44,0,0,1,.81.2l.26.13c.06,0,.1,0,.13-.06a3.07,3.07,0,0,0,.14-.67c0-.05.05-.1,0-.15v0s0,0,0,0a7.48,7.48,0,0,0,0-1.06,5.43,5.43,0,0,0-.18-.91c0-.09,0-.2-.12-.27A6.34,6.34,0,0,0,10,3.6,6.14,6.14,0,0,0,8,1.9a5,5,0,0,0-2.14-.57A3.62,3.62,0,0,0,2.8,2.81,4.36,4.36,0,0,0,2,4.72a5.54,5.54,0,0,0,.34,3.14,5.07,5.07,0,0,0,2.4,2.64,6.37,6.37,0,0,0,2,.65l.41,0c.1,0,.11,0,.09-.11a2,2,0,0,1-.1-.69.47.47,0,0,1,0-.17c.14.17.26.36.4.53a3.35,3.35,0,0,0,1.08.74,4,4,0,0,0,1.31.33,7.16,7.16,0,0,1,1.69.4,4.32,4.32,0,0,1,.82.44,5.09,5.09,0,0,1,1.26,1.19,2.93,2.93,0,0,1,.37.67.85.85,0,0,1,0,.17s0,.07,0,.08-.06,0-.08,0a4.05,4.05,0,0,0-1.35-1.38,5.2,5.2,0,0,0-2.21-.85,4.86,4.86,0,0,0-2.08.08,6.78,6.78,0,0,1-3.29.07,7.24,7.24,0,0,1-2.67-1.12,5.14,5.14,0,0,1-1.72-2A6,6,0,0,1,0,7.15,6.28,6.28,0,0,1,.18,5.27a6.6,6.6,0,0,1,1-2.2A6.61,6.61,0,0,1,3.07,1.18,7,7,0,0,1,5.75.11,6.44,6.44,0,0,1,9.12.38,6,6,0,0,1,12.6,3.5a6,6,0,0,1,.53,3.44,6.58,6.58,0,0,1-1.18,3,1.21,1.21,0,0,1-.2.26,2.24,2.24,0,0,1-.11-.34,2.52,2.52,0,0,0-1-1.25l-.07-.06S10.53,8.52,10.5,8.52Z"/><path class="cls-2" d="M25.64,2.85a8.42,8.42,0,0,1,.87,0c.12,0,.15.08.17.18.1.38.19.76.29,1.15.28,1.08.55,2.17.82,3.25a.14.14,0,0,0,.05.09c.06-.19.12-.37.17-.56.4-1.29.79-2.59,1.19-3.89.07-.22.08-.23.32-.23s.31,0,.42.31c.33,1,.65,2.08,1,3.12.12.39.24.79.37,1.18a.13.13,0,0,0,0,.07,1.39,1.39,0,0,0,.1-.33l.87-3.43s0,0,0,0,0,0,0,.06a2,2,0,0,0,0-.26,3.78,3.78,0,0,0,.1-.46.18.18,0,0,1,.17-.17h.75c.08,0,.1,0,.11.1a1.84,1.84,0,0,0,0,.33l-.33,1.2c-.33,1.19-.67,2.37-1,3.56-.14.52-.29,1-.44,1.55-.05.18-.07.2-.25.2h-.39c-.15,0-.21-.06-.25-.19-.22-.69-.45-1.37-.68-2.06s-.46-1.35-.68-2a.89.89,0,0,1-.05-.1c-.06.18-.12.34-.17.51L28.13,9.51c-.1.33-.1.33-.44.33h-.21c-.22,0-.25,0-.31-.24C27,9,26.8,8.3,26.62,7.65c-.43-1.5-.86-3-1.28-4.49-.08-.26,0-.34.25-.31-.06.06-.15,0-.2,0h1.12c-.22,0-.44,0-.66,0S25.71,2.9,25.64,2.85Z"/><path class="cls-2" d="M14.51,8.15a3.83,3.83,0,0,1-.32-1.28,4.93,4.93,0,0,1,.24-2.12,2.92,2.92,0,0,1,1.91-1.91,3,3,0,0,1,4,2.3.27.27,0,0,0,0,.09,3.72,3.72,0,0,1,.11.94c0,.26,0,.52,0,.77h0c-.05.06,0,.13,0,.2a3.3,3.3,0,0,1-2,2.67c-.11,0-.12.1-.08.21a2.3,2.3,0,0,0,1.1,1.16,5,5,0,0,0,1.13.43c.22.06.29.15.26.33s-.16.25-.37.23A5.34,5.34,0,0,1,19,11.82a4,4,0,0,1-1.49-.93,2.72,2.72,0,0,1-.59-.84.17.17,0,0,0-.13-.1,3,3,0,0,1-1.79-1c0-.08,0-.13-.07-.18a1.67,1.67,0,0,1-.25-.4A.49.49,0,0,0,14.51,8.15Zm4.58-1.21s0,0,0,0a9.09,9.09,0,0,0,0-1.38c0-.07,0-.15-.06-.2s0-.08,0-.13a2.66,2.66,0,0,0-.44-1,1.44,1.44,0,0,0-1.92-.44A1.93,1.93,0,0,0,15.73,5,7.53,7.53,0,0,0,15.57,6V6h0v.64h0V6.54s0,0,0,.07a4.86,4.86,0,0,0,.16,1.08,2.13,2.13,0,0,0,.77,1.22,1.78,1.78,0,0,0,.69.27.37.37,0,0,0,.4,0,1.68,1.68,0,0,0,1.06-.8,3.21,3.21,0,0,0,.36-1s0,0,0-.06A1.87,1.87,0,0,0,19.09,6.94Z"/><path class="cls-2" d="M27.21,11.72a.08.08,0,0,1,.09-.07,2.32,2.32,0,0,1,.91,0,.52.52,0,0,1,.44.43.54.54,0,0,1-.24.56s-.09,0-.08.08.06,0,.09,0a.61.61,0,0,1,.39.64.57.57,0,0,1-.43.54,2.55,2.55,0,0,1-1.1,0,.09.09,0,0,1-.05,0c0-.71,0-1.42,0-2.13C27.22,11.8,27.24,11.76,27.21,11.72Zm.34.94h0s0,0,0,0a.79.79,0,0,0,.31,0c.08,0,.21,0,.23-.14s.05-.06.07-.09a.38.38,0,0,0,0-.36c-.09-.25-.36-.28-.61-.26-.07,0-.1,0-.1.12s0,.42,0,.63c0,0,0,0,0,0S27.56,12.65,27.55,12.66Zm0,.68c0,.12,0,.25,0,.38s0,.08.08.08H28a.46.46,0,0,0,.42-.39.5.5,0,0,0-.37-.51,1.93,1.93,0,0,0-.41,0c-.08,0-.1,0-.1.1S27.56,13.22,27.56,13.34Z"/><path class="cls-2" d="M31.1,12.22a1.65,1.65,0,0,0-.33.41l-.93,1.3a.21.21,0,0,1-.32.05.18.18,0,0,0,0-.1V11.83a.15.15,0,0,0,0-.09c0-.14.08-.1.15-.11s.14,0,.14.12v1.57c.06,0,.08-.06.1-.09L31,11.73a.38.38,0,0,1,.35-.09c.06,0,0,.08,0,.12a.17.17,0,0,0,0,.12v2s0,.07,0,.11-.07,0-.12,0-.13-.08-.13-.18c0-.51,0-1,0-1.51C31.14,12.29,31.17,12.24,31.1,12.22Z"/><path class="cls-2" d="M24.76,13.45c.13-.07.18-.21.25-.31.35-.47.69-1,1-1.42.07-.11.17-.09.27-.08s0,.06,0,.09v2.15c0,.11,0,.15-.14.15s-.16,0-.16-.16c0-.46,0-.92,0-1.39a.22.22,0,0,0,0-.15L24.81,14h-.17c-.09,0-.13,0-.13-.13V11.65h0l.05,0c.09,0,.13,0,.17.09,0,.54,0,1.08,0,1.62C24.72,13.42,24.74,13.43,24.76,13.45Zm1.32.5h0V12.32h0Z"/><path class="cls-2" d="M22.39,11.64h.11c0,.08.08.06.13,0a.57.57,0,0,1,0,.26v.66c.07,0,.09-.05.11-.08l.62-.77a.28.28,0,0,1,.32-.1c.08,0,.05.08,0,.13l-.24.3c-.14.18-.28.37-.43.54s-.05.11,0,.17l.79,1.07s.08.09.05.14-.09,0-.13,0a.38.38,0,0,1-.42-.21c-.19-.3-.4-.58-.61-.86,0,0,0-.05-.07-.1l0,.32a7.09,7.09,0,0,0,0,.8h0a.51.51,0,0,1-.3,0h0V12h0v2h0s0-.06,0-.09V11.78s0-.06,0-.09,0,.06,0,.06S22.44,11.72,22.39,11.64Z"/><path class="cls-2" d="M23.56,9.81s-.08,0-.13,0h-.92c-.16,0-.2-.05-.21-.21a.37.37,0,0,1,0-.11V3.14s0-.09,0-.14.06-.16.17-.16h1c.09,0,.16,0,.15.15l0,0c-.09-.15-.24-.12-.39-.12s-.44,0-.66,0-.23.07-.23.23,0,.08,0,.12V9.47s0,.07,0,.09.09,0,.07.1,0,.09,0,.12a.09.09,0,0,0,.07,0h.84a.09.09,0,0,0,.07,0s0,0,.05,0a.05.05,0,0,0,.07,0Z"/><path class="cls-3" d="M10.09,11.17a.5.5,0,0,1-.47-.6.36.36,0,0,1,.49-.2.47.47,0,0,1,.17.73A.3.3,0,0,1,10.09,11.17Z"/><path class="cls-2" d="M36.59,6.33V9.67a.16.16,0,0,1-.18.17h-1c-.18,0-.22-.05-.23-.21V3.12c0-.24,0-.28.29-.28h.84c.21,0,.24,0,.24.24V6.33Zm-1.1,3.48h.87s.1,0,.13,0a.14.14,0,0,0,.06-.13s0-.08,0-.12,0-.07,0-.1V3.33a2.46,2.46,0,0,0,0-.28c0-.12,0-.16-.15-.15l-.06,0h-.87l-.06,0c-.16,0-.13.13-.15.22a.22.22,0,0,0,0,.14V9.47a.22.22,0,0,0,0,.14c0,.06,0,.13.08.15s0,.06,0,0Z"/><path class="cls-3" d="M11.44,10.41c0,.05,0,.09,0,.12s-.09.12-.15.05A.93.93,0,0,1,11,10a.11.11,0,0,1,.06-.11.11.11,0,0,1,.13,0A.71.71,0,0,1,11.44,10.41Z"/><path class="cls-4" d="M11.27,7.67c.05,0,0,.1,0,.15a3.07,3.07,0,0,1-.14.67c0,.1-.07.08-.13.06l-.26-.13a1.44,1.44,0,0,0-.81-.2s-.06,0-.08,0a1.21,1.21,0,0,1,.52.19.51.51,0,0,1-.24-.07,1.79,1.79,0,0,0-.57-.09s-.05,0-.06,0a.5.5,0,0,1,.29-.07A1.85,1.85,0,0,1,11,8.48c.09,0,.12,0,.15-.07S11.19,7.91,11.27,7.67Z"/><path class="cls-2" d="M23.63,3l0,0s0,.09,0,.13V9.58s0,.07,0,.1,0-.07,0-.1V3Z"/><path class="cls-2" d="M33.48,3.33a1.84,1.84,0,0,1,0-.33c0-.07,0-.1-.11-.1h-.75a.18.18,0,0,0-.17.17,3.78,3.78,0,0,1-.1.46,2,2,0,0,1,0,.26s0-.06,0-.06A6.46,6.46,0,0,1,32.48,3a.17.17,0,0,1,.18-.13h.78c.09,0,.14.05.13.15A1.31,1.31,0,0,1,33.48,3.33Z"/><path class="cls-2" d="M24.51,11.65v2.22c0,.1,0,.13.13.13h.17a.44.44,0,0,1-.3,0c-.05,0-.05-.06-.05-.1,0-.73,0-1.46,0-2.19C24.47,11.7,24.45,11.65,24.51,11.65Z"/><path class="cls-4" d="M11,5.33c.09.07.09.18.12.27a5.43,5.43,0,0,1,.18.91,7.48,7.48,0,0,1,0,1.06s0,0,0,0a.82.82,0,0,1,0-.27,4.93,4.93,0,0,0-.17-1.53A2.7,2.7,0,0,1,11,5.33Z"/><path class="cls-2" d="M31.1,12.22c.07,0,0,.07,0,.11,0,.5,0,1,0,1.51,0,.1,0,.17.13.18-.17,0-.17,0-.17-.15Z"/><path class="cls-2" d="M20.44,6.94c0-.25,0-.51,0-.77a3.72,3.72,0,0,0-.11-.94.27.27,0,0,1,0-.09,3.2,3.2,0,0,1,.14.82A3.57,3.57,0,0,1,20.44,6.94Z"/><path class="cls-5" d="M14.51,8.15a.49.49,0,0,1,.16.21,1.67,1.67,0,0,0,.25.4c0,.05.09.1.07.18A2.79,2.79,0,0,1,14.51,8.15Z"/><path class="cls-2" d="M27.21,11.72s0,.08,0,.13c0,.71,0,1.42,0,2.13-.05,0,0-.06,0-.09V11.75A0,0,0,0,1,27.21,11.72Z"/><path class="cls-2" d="M29.52,11.74a.15.15,0,0,1,0,.09v2.05a.18.18,0,0,1,0,.1c0-.24,0-.47,0-.7C29.51,12.76,29.51,12.25,29.52,11.74Z"/><path class="cls-2" d="M31.39,14s0-.07,0-.11v-2a.17.17,0,0,1,0-.12Q31.4,12.87,31.39,14Z"/><path class="cls-2" d="M24.76,13.45s0,0,0-.06c0-.54,0-1.08,0-1.62h0Z"/><path class="cls-2" d="M25.64,2.85c.07,0,.14,0,.21,0s.44,0,.66,0H25.39c.05-.06.14,0,.2,0Z"/><path class="cls-2" d="M22.63,14a7.09,7.09,0,0,1,0-.8A4.29,4.29,0,0,1,22.63,14Z"/><path class="cls-2" d="M24.76,11.77h0c0-.06-.08-.13-.17-.09l-.05,0a.2.2,0,0,1,.13,0C24.75,11.63,24.78,11.67,24.76,11.77Z"/><path class="cls-2" d="M23.63,9.58s0,.07,0,.1,0,.12-.09.13h0l0,0C23.6,9.7,23.54,9.62,23.63,9.58Z"/><path class="cls-2" d="M22.39,11.64c.05.08-.07.06-.06.11s0,0,0-.06S22.35,11.64,22.39,11.64Z"/><path class="cls-2" d="M22.33,14a.51.51,0,0,0,.3,0c0,.06,0,0-.08,0s-.15,0-.23,0Z"/><path class="cls-2" d="M22.63,11.67c-.05,0-.1.05-.13,0S22.59,11.61,22.63,11.67Z"/><path class="cls-4" d="M10.37,8.45a.08.08,0,0,1,.1.06A.08.08,0,0,1,10.37,8.45Z"/><path class="cls-2" d="M20.42,7.14c0-.07,0-.14,0-.2A.44.44,0,0,1,20.42,7.14Z"/><path class="cls-4" d="M10.5,8.52s.05,0,.07,0S10.51,8.55,10.5,8.52Z"/><path class="cls-2" d="M22.33,14v0s0,0,0,0h0Z"/><path class="cls-2" d="M19.07,6.94A8.68,8.68,0,0,0,19,5.33c.08,0,0,.13.06.2a9.09,9.09,0,0,1,0,1.38s0,0,0,0Z"/><path class="cls-2" d="M17.2,9.18l.4,0A.37.37,0,0,1,17.2,9.18Z"/><path class="cls-2" d="M19.07,6.94h0a1.87,1.87,0,0,1,0,.34s0,.06,0,.06Z"/><path class="cls-6" d="M15.57,6v.59h0V6h0Z"/><path class="cls-2" d="M27.58,12.68a1.13,1.13,0,0,0,.57-.12c0,.14-.15.11-.23.14a.79.79,0,0,1-.31,0S27.58,12.7,27.58,12.68Z"/><path class="cls-2" d="M27.55,12.6v0S27.53,12.61,27.55,12.6Z"/><path class="cls-2" d="M27.55,12.66h0Z"/><path class="cls-2" d="M26.08,14V12.32h0V14Z"/><path class="cls-2" d="M22.33,14h0V12h0Z"/><path class="cls-2" d="M23.63,9.58c-.09,0,0,.12-.05.18a.16.16,0,0,0-.1,0s0,0-.05,0h-1c-.06,0-.05-.07,0-.12s0-.11-.07-.1V3.12c0-.16.08-.24.23-.23s.44,0,.66,0,.3,0,.39.12V9.58Z"/><path class="cls-2" d="M22.35,3.12V9.56c-.05,0,0-.07,0-.09V3.24S22.31,3.16,22.35,3.12Z"/><path class="cls-2" d="M22.45,9.78h1a.09.09,0,0,1-.07,0h-.84A.09.09,0,0,1,22.45,9.78Z"/><path class="cls-2" d="M23.48,9.78a.16.16,0,0,1,.1,0l0,0A.05.05,0,0,1,23.48,9.78Z"/><path class="cls-2" d="M36.55,9.53s0,.08,0,.12a.14.14,0,0,1-.06.13h-.87s-.09,0-.13,0l-.1,0s0,0,0,0-.07-.09-.08-.15V3.12c0-.09,0-.22.15-.22h1c.1,0,.15,0,.15.15a2.46,2.46,0,0,1,0,.28s0,.07,0,.11Z"/><path class="cls-2" d="M35.26,3.12V9.61a.22.22,0,0,1,0-.14V3.26A.22.22,0,0,1,35.26,3.12Z"/><path class="cls-7" d="M36.55,9.53V3.44s0-.08,0-.11v6.1S36.58,9.5,36.55,9.53Z"/><path class="cls-2" d="M35.49,9.81c0-.05.09,0,.13,0h.87s-.08,0-.13,0Z"/><path class="cls-2" d="M36.4,2.9h-1l.06,0h.87Z"/><path class="cls-2" d="M35.34,9.76s0,0,0,0S35.34,9.79,35.34,9.76Z"/></g></g></svg>