<svg xmlns="http://www.w3.org/2000/svg" viewBox="0 0 43.19 11.35"><defs><style>.cls-1{fill:#616262;fill-rule:evenodd;}</style></defs><title>payment-methods-icon-5</title><g id="Слой_2" data-name="Слой 2"><g id="Layer_1" data-name="Layer 1"><path class="cls-1" d="M1.9.55H6.16A2.21,2.21,0,0,1,8.43,3.42,3.48,3.48,0,0,1,4.9,6.17H3.12L2.5,9H0L1.9.55ZM32.73,2.72a12,12,0,0,1,2.62-.4c1.61,0,3.37.43,3,2.3L37.31,9H35l.16-.66c-1.26,1.2-4.4,1.27-3.88-1.49.36-1.61,2.09-2.11,4.67-2.11.18-.72-.33-.89-1.2-.87a7.62,7.62,0,0,0-2.24.46l.21-1.61Zm.93,4c-.33.51.13,1,.64.92a1.14,1.14,0,0,0,1.2-.86c0-.21.08-.39.13-.59h-.56c-.44,0-1.15.1-1.41.53Zm-24-4.07L9.47,4.29a7.31,7.31,0,0,1,2.23-.46c.86,0,1.37.16,1.22.87-2.58,0-4.31.51-4.67,2.12C7.73,9.57,10.87,9.5,12.1,8.3L11.94,9h2.32l1-4.39c.41-1.86-1.38-2.32-3-2.3a12.19,12.19,0,0,0-2.61.4Zm.94,4c.25-.44,1-.54,1.38-.54h.58c0,.2-.1.38-.12.58a1.18,1.18,0,0,1-1.23.87c-.51,0-.94-.41-.61-.92Zm5.77-4.23h2.37l.38,3.71,2.33-3.7h2.45l-5.65,8.85H15.61l1.74-2.6-1-6.25ZM40.69,0l-2,9h2.47l2.06-9ZM25,.59,23.07,9h2.47l.65-2.78H28A3.48,3.48,0,0,0,31.5,3.46,2.22,2.22,0,0,0,29.23.6ZM27.06,2.3h1.22a.86.86,0,0,1,.87,1.14h0A1.58,1.58,0,0,1,27.69,4.6H26.54l.52-2.3Zm-23,0L3.48,4.56H4.65A1.56,1.56,0,0,0,6.08,3.42h0a.86.86,0,0,0-.84-1.15Z"/></g></g></svg>