<svg xmlns="http://www.w3.org/2000/svg" viewBox="0 0 35.15 21.05"><defs><style>.cls-1{fill:#d7ac79;}.cls-1,.cls-2,.cls-3{fill-rule:evenodd;}.cls-2{fill:#616262;}.cls-3{fill:#fff;}.cls-4{fill:none;stroke:#fff;stroke-miterlimit:2.61;stroke-width:0.08px;}</style></defs><title>payment-methods-icon-3</title><g id="Слой_2" data-name="Слой 2"><g id="Layer_1" data-name="Layer 1"><polygon class="cls-1" points="24.61 21.05 25.15 21.03 25.69 20.99 26.21 20.93 26.73 20.83 27.24 20.72 27.74 20.57 28.23 20.41 28.71 20.22 29.18 20.01 29.63 19.78 30.07 19.52 30.5 19.25 30.92 18.95 31.31 18.64 31.7 18.31 32.06 17.96 32.41 17.6 32.74 17.21 33.06 16.82 33.35 16.41 33.63 15.98 33.88 15.54 34.11 15.08 34.32 14.61 34.51 14.13 34.68 13.64 34.82 13.14 34.94 12.64 35.03 12.12 35.1 11.59 35.14 11.05 35.15 10.51 35.14 9.97 35.1 9.44 35.03 8.91 34.94 8.4 34.83 7.89 34.68 7.4 34.52 6.91 34.33 6.43 34.12 5.97 33.88 5.51 33.63 5.08 33.36 4.65 33.06 4.23 32.75 3.84 32.42 3.46 32.07 3.09 31.7 2.74 31.32 2.41 30.92 2.1 30.51 1.8 30.08 1.53 29.64 1.28 29.19 1.05 28.72 0.83 28.24 0.65 27.75 0.48 27.25 0.34 26.75 0.22 26.22 0.13 25.7 0.06 25.16 0.02 24.62 0.01 24.08 0.02 23.54 0.06 23.02 0.13 22.5 0.22 21.99 0.34 21.49 0.48 21.01 0.64 20.53 0.83 20.06 1.04 19.61 1.27 19.17 1.53 18.75 1.8 18.33 2.09 17.93 2.4 17.56 2.73 17.19 3.08 16.84 3.45 16.51 3.83 16.2 4.22 15.91 4.64 15.63 5.07 15.38 5.5 15.15 5.96 14.94 6.42 14.75 6.89 14.59 7.39 14.45 7.88 14.33 8.39 14.23 8.9 14.17 9.43 14.13 9.96 14.11 10.5 14.13 11.04 14.17 11.58 14.23 12.11 14.32 12.63 14.44 13.13 14.58 13.63 14.75 14.13 14.94 14.6 15.14 15.07 15.38 15.53 15.63 15.97 15.9 16.4 16.19 16.81 16.5 17.21 16.84 17.59 17.18 17.95 17.55 18.31 17.93 18.64 18.32 18.95 18.74 19.25 19.16 19.52 19.6 19.77 20.05 20 20.52 20.22 21 20.41 21.48 20.57 21.98 20.71 22.49 20.83 23.01 20.93 23.53 20.99 24.07 21.03 24.61 21.05 24.61 21.05"/><polygon class="cls-2" points="10.54 21.04 11.07 21.02 11.61 20.99 12.14 20.92 12.65 20.83 13.16 20.71 13.66 20.57 14.15 20.4 14.63 20.21 15.09 20 15.54 19.77 15.98 19.52 16.41 19.24 16.82 18.95 17.22 18.64 17.6 18.31 17.96 17.95 18.31 17.59 18.64 17.21 18.95 16.81 19.25 16.4 19.52 15.97 19.77 15.53 20 15.07 20.21 14.61 20.4 14.13 20.57 13.64 20.71 13.14 20.83 12.63 20.92 12.11 20.99 11.58 21.03 11.05 21.04 10.51 21.03 9.97 20.99 9.43 20.92 8.91 20.83 8.39 20.71 7.89 20.57 7.39 20.41 6.9 20.22 6.42 20.01 5.96 19.78 5.5 19.52 5.07 19.25 4.64 18.96 4.23 18.65 3.83 18.32 3.45 17.97 3.08 17.61 2.73 17.23 2.4 16.83 2.09 16.42 1.8 15.99 1.52 15.55 1.27 15.1 1.04 14.64 0.83 14.16 0.64 13.67 0.47 13.17 0.33 12.66 0.21 12.14 0.12 11.62 0.05 11.08 0.01 10.54 0 10 0.01 9.47 0.05 8.94 0.12 8.42 0.21 7.91 0.33 7.41 0.47 6.92 0.64 6.44 0.82 5.97 1.04 5.52 1.27 5.08 1.52 4.65 1.79 4.24 2.09 3.84 2.4 3.46 2.73 3.09 3.08 2.74 3.44 2.41 3.83 2.1 4.22 1.8 4.63 1.53 5.06 1.27 5.5 1.04 5.95 0.83 6.42 0.64 6.89 0.47 7.38 0.33 7.88 0.21 8.38 0.12 8.9 0.06 9.42 0.01 9.96 0 10.49 0.01 11.04 0.05 11.57 0.12 12.1 0.21 12.62 0.33 13.13 0.47 13.63 0.64 14.12 0.83 14.6 1.04 15.07 1.27 15.52 1.52 15.96 1.8 16.39 2.09 16.8 2.4 17.2 2.73 17.58 3.08 17.95 3.45 18.3 3.83 18.63 4.23 18.94 4.64 19.24 5.07 19.51 5.51 19.77 5.96 20 6.43 20.21 6.91 20.4 7.4 20.57 7.9 20.71 8.41 20.82 8.93 20.92 9.46 20.99 9.99 21.02 10.54 21.04 10.54 21.04"/><polygon class="cls-1" points="16.35 4.04 21.94 4.04 21.94 3.47 16.83 3.46 16.35 4.04 16.35 4.04"/><polygon class="cls-1" points="15.51 5.31 21.94 5.31 21.94 4.74 15.85 4.74 15.51 5.31 15.51 5.31"/><polygon class="cls-1" points="14.89 6.57 21.94 6.58 21.94 6 15.13 6 14.89 6.57 14.89 6.57"/><polygon class="cls-1" points="14.46 7.84 21.94 7.85 21.94 7.28 14.63 7.27 14.46 7.84 14.46 7.84"/><polygon class="cls-1" points="14.7 13.98 21.95 13.99 21.95 13.41 14.52 13.41 14.7 13.98 14.7 13.98"/><polygon class="cls-1" points="15.24 15.25 21.95 15.26 21.95 14.69 14.97 14.68 15.24 15.25 15.24 15.25"/><polygon class="cls-1" points="15.99 16.52 21.95 16.52 21.95 15.95 15.63 15.95 15.99 16.52 15.99 16.52"/><polygon class="cls-1" points="17.02 17.79 21.95 17.79 21.95 17.22 16.52 17.22 17.02 17.79 17.02 17.79"/><polygon class="cls-1" points="14.2 9.11 21.93 9.12 21.94 8.54 14.31 8.54 14.2 9.11 14.2 9.11"/><polygon class="cls-1" points="18.91 12.72 21.86 12.72 21.86 12.15 19.02 12.15 18.91 12.72 18.91 12.72"/><polygon class="cls-1" points="19.15 11.45 21.86 11.45 21.86 10.88 19.25 10.88 19.15 11.45 19.15 11.45"/><polygon class="cls-2" points="14.01 10.87 14.77 10.88 14.77 11.45 14.04 11.45 14.01 10.87 14.01 10.87"/><polygon class="cls-3" points="12.58 10.18 12.53 10.18 12.48 10.17 12.43 10.16 12.39 10.16 12.34 10.15 12.3 10.14 12.25 10.14 12.2 10.13 12.15 10.12 12.1 10.12 12.03 10.11 11.96 10.11 11.89 10.11 11.81 10.11 11.71 10.12 11.61 10.13 11.54 10.14 11.47 10.15 11.41 10.17 11.36 10.19 11.31 10.22 11.26 10.24 11.23 10.28 11.2 10.31 11.18 10.35 11.16 10.39 11.15 10.43 11.15 10.47 11.16 10.52 11.18 10.57 11.2 10.61 11.24 10.66 11.31 10.73 11.39 10.78 11.49 10.83 11.6 10.87 11.71 10.9 11.83 10.94 11.95 10.98 12.06 11.03 12.17 11.09 12.27 11.16 12.36 11.25 12.43 11.36 12.49 11.5 12.52 11.66 12.54 11.85 12.52 12.07 12.5 12.24 12.46 12.38 12.4 12.52 12.33 12.64 12.25 12.74 12.15 12.83 12.05 12.91 11.95 12.97 11.83 13.03 11.71 13.07 11.59 13.11 11.47 13.14 11.35 13.16 11.23 13.17 11.11 13.18 11 13.18 10.85 13.18 10.71 13.17 10.59 13.18 10.47 13.17 10.36 13.17 10.27 13.16 10.18 13.15 10.1 13.14 10.02 13.14 9.96 13.12 9.89 13.11 9.83 13.09 9.77 13.08 9.71 13.06 9.65 13.04 9.6 13.01 9.76 12.23 9.79 12.24 9.83 12.25 9.88 12.26 9.94 12.28 10 12.29 10.07 12.3 10.15 12.32 10.23 12.34 10.32 12.35 10.41 12.37 10.51 12.38 10.61 12.39 10.71 12.39 10.81 12.39 10.92 12.39 11.02 12.39 11.13 12.37 11.21 12.34 11.27 12.3 11.32 12.25 11.36 12.2 11.38 12.15 11.4 12.09 11.42 12.04 11.42 11.93 11.39 11.85 11.33 11.77 11.24 11.71 11.13 11.66 11.01 11.61 10.87 11.56 10.73 11.5 10.59 11.44 10.46 11.36 10.33 11.27 10.22 11.16 10.13 11.03 10.07 10.87 10.04 10.67 10.04 10.45 10.06 10.31 10.08 10.18 10.12 10.06 10.16 9.94 10.22 9.84 10.28 9.74 10.36 9.65 10.44 9.58 10.55 9.51 10.66 9.45 10.79 9.4 10.93 9.36 11.09 9.33 11.27 9.3 11.46 9.29 11.67 9.29 11.8 9.29 11.92 9.29 12.03 9.29 12.13 9.3 12.22 9.3 12.3 9.31 12.37 9.32 12.43 9.33 12.49 9.33 12.54 9.34 12.59 9.35 12.63 9.36 12.67 9.37 12.7 9.37 12.73 9.38 12.76 9.38 12.58 10.18 12.58 10.18"/><polyline class="cls-4" points="12.58 10.18 12.58 10.18 12.53 10.18 12.48 10.17 12.43 10.16 12.39 10.16 12.34 10.15 12.3 10.14 12.25 10.14 12.2 10.13 12.15 10.12 12.1 10.12 12.03 10.11 11.96 10.11 11.89 10.11 11.81 10.11 11.71 10.12 11.61 10.13 11.54 10.14 11.47 10.15 11.41 10.17 11.36 10.19 11.31 10.22 11.26 10.24 11.23 10.28 11.2 10.31 11.18 10.35 11.16 10.39 11.15 10.43 11.15 10.47 11.16 10.52 11.18 10.57 11.2 10.61 11.24 10.66 11.31 10.73 11.39 10.78 11.49 10.83 11.6 10.87 11.71 10.9 11.83 10.94 11.95 10.98 12.06 11.03 12.17 11.09 12.27 11.16 12.36 11.25 12.43 11.36 12.49 11.5 12.52 11.66 12.54 11.85 12.52 12.07 12.5 12.24 12.46 12.38 12.4 12.52 12.33 12.64 12.25 12.74 12.15 12.83 12.05 12.91 11.95 12.97 11.83 13.03 11.71 13.07 11.59 13.11 11.47 13.14 11.35 13.16 11.23 13.17 11.11 13.18 11 13.18 10.85 13.18 10.71 13.17 10.59 13.18 10.47 13.17 10.36 13.17 10.27 13.16 10.18 13.15 10.1 13.14 10.02 13.14 9.96 13.12 9.89 13.11 9.83 13.09 9.77 13.08 9.71 13.06 9.65 13.04 9.6 13.01 9.76 12.23 9.79 12.24 9.83 12.25 9.88 12.26 9.94 12.28 10 12.29 10.07 12.3 10.15 12.32 10.23 12.34 10.32 12.35 10.41 12.37 10.51 12.38 10.61 12.39 10.71 12.39 10.81 12.39 10.92 12.39 11.02 12.39 11.13 12.37 11.21 12.34 11.27 12.3 11.32 12.25 11.36 12.2 11.38 12.15 11.4 12.09 11.42 12.04 11.42 11.93 11.39 11.85 11.33 11.77 11.24 11.71 11.13 11.66 11.01 11.61 10.87 11.56 10.73 11.5 10.59 11.44 10.46 11.36 10.33 11.27 10.22 11.16 10.13 11.03 10.07 10.87 10.04 10.67 10.04 10.45 10.06 10.31 10.08 10.18 10.12 10.06 10.16 9.94 10.22 9.84 10.28 9.74 10.36 9.65 10.44 9.58 10.55 9.51 10.66 9.45 10.79 9.4 10.93 9.36 11.09 9.33 11.27 9.3 11.46 9.29 11.67 9.29 11.8 9.29 11.92 9.29 12.03 9.29 12.13 9.3 12.22 9.3 12.3 9.31 12.37 9.32 12.43 9.33 12.49 9.33 12.54 9.34 12.59 9.35 12.63 9.36 12.67 9.37 12.7 9.37 12.73 9.38 12.76 9.38 12.58 10.18"/><polygon class="cls-3" points="13.42 8.5 14.4 8.5 14.26 9.36 14.85 9.36 14.72 10.16 14.1 10.15 13.75 12.13 13.75 12.2 13.77 12.26 13.8 12.3 13.85 12.34 13.91 12.37 13.98 12.39 14.06 12.4 14.15 12.41 14.22 12.41 14.3 12.4 14.36 12.39 14.42 12.37 14.46 12.36 14.5 12.35 14.52 12.34 14.52 12.34 14.4 13 14.37 13.02 14.35 13.03 14.32 13.05 14.3 13.06 14.28 13.07 14.25 13.08 14.21 13.09 14.18 13.1 14.15 13.11 14.11 13.12 14.07 13.13 14.03 13.13 13.98 13.14 13.93 13.15 13.87 13.15 13.81 13.16 13.54 13.16 13.4 13.15 13.27 13.14 13.16 13.12 13.06 13.09 12.98 13.06 12.92 13.02 12.86 12.98 12.81 12.93 12.78 12.88 12.75 12.82 12.73 12.76 12.72 12.7 12.72 12.62 12.72 12.54 12.73 12.46 12.74 12.37 13.42 8.5 13.42 8.5"/><polyline class="cls-4" points="13.42 8.5 14.4 8.5 14.26 9.36 14.85 9.36 14.72 10.16 14.1 10.15 13.75 12.13 13.75 12.2 13.77 12.26 13.8 12.3 13.85 12.34 13.91 12.37 13.98 12.39 14.06 12.4 14.15 12.41 14.22 12.41 14.3 12.4 14.36 12.39 14.42 12.37 14.46 12.36 14.5 12.35 14.52 12.34 14.52 12.34 14.4 13 14.37 13.02 14.35 13.03 14.32 13.05 14.3 13.06 14.28 13.07 14.25 13.08 14.21 13.09 14.18 13.1 14.15 13.11 14.11 13.12 14.07 13.13 14.03 13.13 13.98 13.14 13.93 13.15 13.87 13.15 13.81 13.16 13.54 13.16 13.4 13.15 13.27 13.14 13.16 13.12 13.06 13.09 12.98 13.06 12.92 13.02 12.86 12.98 12.81 12.93 12.78 12.88 12.75 12.82 12.73 12.76 12.72 12.7 12.72 12.62 12.72 12.54 12.73 12.46 12.74 12.37 13.42 8.5"/><polygon class="cls-3" points="15.63 11.5 15.62 11.56 15.62 11.63 15.62 11.7 15.64 11.76 15.66 11.83 15.69 11.89 15.73 11.96 15.77 12.02 15.82 12.08 15.88 12.13 15.93 12.19 16 12.23 16.06 12.27 16.13 12.3 16.2 12.33 16.27 12.34 16.37 12.35 16.45 12.37 16.55 12.38 16.64 12.38 16.73 12.39 16.83 12.39 16.92 12.38 17.02 12.38 17.11 12.36 17.21 12.35 17.31 12.32 17.4 12.29 17.5 12.25 17.61 12.21 17.7 12.15 17.81 12.09 17.66 12.97 17.61 12.99 17.55 13.02 17.49 13.04 17.44 13.06 17.39 13.08 17.33 13.1 17.27 13.11 17.21 13.13 17.15 13.14 17.08 13.14 17 13.15 16.92 13.16 16.83 13.16 16.73 13.16 16.62 13.16 16.51 13.16 16.33 13.16 16.16 13.14 15.98 13.12 15.8 13.08 15.63 13.02 15.46 12.95 15.3 12.87 15.15 12.76 15.01 12.64 14.89 12.49 14.79 12.33 14.71 12.14 14.64 11.94 14.61 11.7 14.6 11.44 14.61 11.14 14.63 11.03 14.65 10.9 14.68 10.76 14.72 10.61 14.77 10.46 14.83 10.31 14.92 10.15 15.02 10 15.13 9.86 15.27 9.72 15.42 9.6 15.6 9.5 15.81 9.41 16.04 9.35 16.29 9.3 16.58 9.29 16.72 9.29 16.86 9.31 17.01 9.33 17.16 9.37 17.3 9.42 17.44 9.48 17.56 9.57 17.68 9.67 17.79 9.79 17.88 9.93 17.95 10.1 18 10.28 18.02 10.5 18.03 10.74 18 11.01 17.95 11.3 17.93 11.52 15.34 11.52 15.51 10.82 17.06 10.82 17.07 10.73 17.07 10.65 17.06 10.57 17.04 10.5 17.02 10.43 17 10.37 16.96 10.32 16.92 10.27 16.88 10.23 16.84 10.19 16.78 10.16 16.73 10.13 16.67 10.11 16.61 10.1 16.55 10.09 16.49 10.08 16.42 10.08 16.36 10.09 16.3 10.11 16.24 10.13 16.18 10.15 16.13 10.19 16.07 10.23 16.03 10.27 15.98 10.32 15.94 10.37 15.9 10.43 15.87 10.49 15.84 10.55 15.81 10.62 15.79 10.69 15.77 10.77 15.63 11.5 15.63 11.5"/><polyline class="cls-4" points="15.63 11.5 15.63 11.5 15.62 11.56 15.62 11.63 15.62 11.7 15.64 11.76 15.66 11.83 15.69 11.89 15.73 11.96 15.77 12.02 15.82 12.08 15.88 12.13 15.93 12.19 16 12.23 16.06 12.27 16.13 12.3 16.2 12.33 16.27 12.34 16.37 12.35 16.45 12.37 16.55 12.38 16.64 12.38 16.73 12.39 16.83 12.39 16.92 12.38 17.02 12.38 17.11 12.36 17.21 12.35 17.31 12.32 17.4 12.29 17.5 12.25 17.61 12.21 17.7 12.15 17.81 12.09 17.66 12.97 17.61 12.99 17.55 13.02 17.49 13.04 17.44 13.06 17.39 13.08 17.33 13.1 17.27 13.11 17.21 13.13 17.15 13.14 17.08 13.14 17 13.15 16.92 13.16 16.83 13.16 16.73 13.16 16.62 13.16 16.51 13.16 16.33 13.16 16.16 13.14 15.98 13.12 15.8 13.08 15.63 13.02 15.46 12.95 15.3 12.87 15.15 12.76 15.01 12.64 14.89 12.49 14.79 12.33 14.71 12.14 14.64 11.94 14.61 11.7 14.6 11.44 14.61 11.14 14.63 11.03 14.65 10.9 14.68 10.76 14.72 10.61 14.77 10.46 14.83 10.31 14.92 10.15 15.02 10 15.13 9.86 15.27 9.72 15.42 9.6 15.6 9.5 15.81 9.41 16.04 9.35 16.29 9.3 16.58 9.29 16.72 9.29 16.86 9.31 17.01 9.33 17.16 9.37 17.3 9.42 17.44 9.48 17.56 9.57 17.68 9.67 17.79 9.79 17.88 9.93 17.95 10.1 18 10.28 18.02 10.5 18.03 10.74 18 11.01 17.95 11.3 17.93 11.52 15.34 11.52 15.51 10.82 17.06 10.82 17.07 10.73 17.07 10.65 17.06 10.57 17.04 10.5 17.02 10.43 17 10.37 16.96 10.32 16.92 10.27 16.88 10.23 16.84 10.19 16.78 10.16 16.73 10.13 16.67 10.11 16.61 10.1 16.55 10.09 16.49 10.08 16.42 10.08 16.36 10.09 16.3 10.11 16.24 10.13 16.18 10.15 16.13 10.19 16.07 10.23 16.03 10.27 15.98 10.32 15.94 10.37 15.9 10.43 15.87 10.49 15.84 10.55 15.81 10.62 15.79 10.69 15.77 10.77 15.63 11.5"/><polygon class="cls-3" points="24.1 9.58 24.05 9.56 24 9.53 23.95 9.51 23.9 9.48 23.85 9.46 23.79 9.44 23.73 9.42 23.66 9.4 23.6 9.38 23.53 9.37 23.45 9.35 23.38 9.34 23.3 9.34 23.22 9.33 23.13 9.33 23.04 9.33 22.95 9.33 22.86 9.34 22.77 9.35 22.67 9.36 22.57 9.39 22.47 9.43 22.37 9.48 22.27 9.54 22.17 9.62 22.08 9.71 21.99 9.83 21.91 9.96 21.83 10.12 21.75 10.29 21.69 10.49 21.63 10.72 21.61 10.85 21.59 10.97 21.59 11.09 21.59 11.21 21.6 11.34 21.63 11.45 21.66 11.55 21.7 11.66 21.75 11.76 21.81 11.85 21.89 11.93 21.97 12.01 22.07 12.07 22.18 12.12 22.3 12.17 22.43 12.2 22.48 12.21 22.53 12.22 22.6 12.23 22.67 12.24 22.75 12.24 22.83 12.24 22.92 12.24 23 12.24 23.1 12.23 23.19 12.21 23.28 12.19 23.37 12.16 23.46 12.12 23.54 12.07 23.61 12.02 23.68 11.95 23.52 12.9 23.5 12.92 23.48 12.94 23.45 12.96 23.42 12.98 23.38 13.01 23.33 13.04 23.27 13.06 23.21 13.08 23.13 13.11 23.04 13.12 22.93 13.14 22.81 13.15 22.67 13.16 22.51 13.16 22.33 13.16 22.13 13.15 21.96 13.13 21.8 13.1 21.64 13.04 21.48 12.97 21.32 12.89 21.17 12.78 21.03 12.66 20.9 12.51 20.78 12.35 20.68 12.18 20.6 11.98 20.53 11.76 20.49 11.52 20.48 11.27 20.48 10.99 20.52 10.7 20.55 10.55 20.58 10.41 20.62 10.28 20.65 10.14 20.69 10.02 20.74 9.89 20.79 9.78 20.84 9.67 20.89 9.56 20.94 9.46 21 9.36 21.07 9.26 21.13 9.18 21.2 9.09 21.27 9.01 21.35 8.94 21.43 8.87 21.51 8.8 21.59 8.74 21.68 8.68 21.78 8.63 21.88 8.58 21.97 8.54 22.08 8.5 22.19 8.46 22.3 8.44 22.41 8.41 22.53 8.39 22.65 8.37 22.78 8.36 22.91 8.35 23.04 8.35 23.16 8.35 23.27 8.36 23.37 8.37 23.48 8.38 23.58 8.4 23.68 8.42 23.77 8.44 23.85 8.46 23.93 8.48 24 8.5 24.07 8.52 24.13 8.54 24.18 8.56 24.22 8.58 24.25 8.59 24.27 8.6 24.1 9.58 24.1 9.58"/><polyline class="cls-4" points="24.1 9.58 24.1 9.58 24.05 9.56 24 9.53 23.95 9.51 23.9 9.48 23.85 9.46 23.79 9.44 23.73 9.42 23.66 9.4 23.6 9.38 23.53 9.37 23.45 9.35 23.38 9.34 23.3 9.34 23.22 9.33 23.13 9.33 23.04 9.33 22.95 9.33 22.86 9.34 22.77 9.35 22.67 9.36 22.57 9.39 22.47 9.43 22.37 9.48 22.27 9.54 22.17 9.62 22.08 9.71 21.99 9.83 21.91 9.96 21.83 10.12 21.75 10.29 21.69 10.49 21.63 10.72 21.61 10.85 21.59 10.97 21.59 11.09 21.59 11.21 21.6 11.34 21.63 11.45 21.66 11.55 21.7 11.66 21.75 11.76 21.81 11.85 21.89 11.93 21.97 12.01 22.07 12.07 22.18 12.12 22.3 12.17 22.43 12.2 22.48 12.21 22.53 12.22 22.6 12.23 22.67 12.24 22.75 12.24 22.83 12.24 22.92 12.24 23 12.24 23.1 12.23 23.19 12.21 23.28 12.19 23.37 12.16 23.46 12.12 23.54 12.07 23.61 12.02 23.68 11.95 23.52 12.9 23.5 12.92 23.48 12.94 23.45 12.96 23.42 12.98 23.38 13.01 23.33 13.04 23.27 13.06 23.21 13.08 23.13 13.11 23.04 13.12 22.93 13.14 22.81 13.15 22.67 13.16 22.51 13.16 22.33 13.16 22.13 13.15 21.96 13.13 21.8 13.1 21.64 13.04 21.48 12.97 21.32 12.89 21.17 12.78 21.03 12.66 20.9 12.51 20.78 12.35 20.68 12.18 20.6 11.98 20.53 11.76 20.49 11.52 20.48 11.27 20.48 10.99 20.52 10.7 20.55 10.55 20.58 10.41 20.62 10.28 20.65 10.14 20.69 10.02 20.74 9.89 20.79 9.78 20.84 9.67 20.89 9.56 20.94 9.46 21 9.36 21.07 9.26 21.13 9.18 21.2 9.09 21.27 9.01 21.35 8.94 21.43 8.87 21.51 8.8 21.59 8.74 21.68 8.68 21.78 8.63 21.88 8.58 21.97 8.54 22.08 8.5 22.19 8.46 22.3 8.44 22.41 8.41 22.53 8.39 22.65 8.37 22.78 8.36 22.91 8.35 23.04 8.35 23.16 8.35 23.27 8.36 23.37 8.37 23.48 8.38 23.58 8.4 23.68 8.42 23.77 8.44 23.85 8.46 23.93 8.48 24 8.5 24.07 8.52 24.13 8.54 24.18 8.56 24.22 8.58 24.25 8.59 24.27 8.6 24.1 9.58"/><polygon class="cls-3" points="32.83 13.17 31.85 13.17 31.92 12.78 31.92 12.74 31.86 12.81 31.8 12.88 31.74 12.93 31.68 12.98 31.61 13.03 31.55 13.07 31.49 13.1 31.42 13.13 31.35 13.16 31.28 13.17 31.22 13.19 31.15 13.2 31.07 13.21 31.01 13.22 30.94 13.22 30.86 13.22 30.68 13.21 30.51 13.17 30.36 13.11 30.21 13.03 30.09 12.93 29.97 12.8 29.87 12.67 29.79 12.52 29.72 12.37 29.66 12.2 29.62 12.02 29.59 11.84 29.58 11.66 29.59 11.48 29.6 11.3 29.64 11.12 29.69 10.91 29.75 10.71 29.83 10.53 29.92 10.36 30.01 10.2 30.11 10.05 30.23 9.93 30.34 9.81 30.47 9.71 30.6 9.62 30.73 9.54 30.87 9.48 31.01 9.43 31.15 9.4 31.29 9.38 31.44 9.37 31.54 9.37 31.64 9.38 31.73 9.4 31.82 9.43 31.9 9.46 31.97 9.49 32.04 9.53 32.11 9.57 32.16 9.61 32.22 9.65 32.26 9.7 32.3 9.75 32.34 9.79 32.37 9.84 32.4 9.88 32.42 9.92 32.67 8.53 33.64 8.53 32.83 13.17 32.83 13.17"/><polyline class="cls-4" points="32.83 13.17 31.85 13.17 31.92 12.78 31.92 12.74 31.86 12.81 31.8 12.88 31.74 12.93 31.68 12.98 31.61 13.03 31.55 13.07 31.49 13.1 31.42 13.13 31.35 13.16 31.28 13.17 31.22 13.19 31.15 13.2 31.07 13.21 31.01 13.22 30.94 13.22 30.86 13.22 30.68 13.21 30.51 13.17 30.36 13.11 30.21 13.03 30.09 12.93 29.97 12.8 29.87 12.67 29.79 12.52 29.72 12.37 29.66 12.2 29.62 12.02 29.59 11.84 29.58 11.66 29.59 11.48 29.6 11.3 29.64 11.12 29.69 10.91 29.75 10.71 29.83 10.53 29.92 10.36 30.01 10.2 30.11 10.05 30.23 9.93 30.34 9.81 30.47 9.71 30.6 9.62 30.73 9.54 30.87 9.48 31.01 9.43 31.15 9.4 31.29 9.38 31.44 9.37 31.54 9.37 31.64 9.38 31.73 9.4 31.82 9.43 31.9 9.46 31.97 9.49 32.04 9.53 32.11 9.57 32.16 9.61 32.22 9.65 32.26 9.7 32.3 9.75 32.34 9.79 32.37 9.84 32.4 9.88 32.42 9.92 32.67 8.53 33.64 8.53 32.83 13.17"/><polygon class="cls-1" points="31.22 12.31 31.32 12.3 31.41 12.28 31.5 12.26 31.58 12.22 31.66 12.18 31.73 12.13 31.8 12.06 31.86 12 31.91 11.93 31.96 11.85 32.01 11.77 32.04 11.69 32.08 11.6 32.11 11.5 32.13 11.41 32.15 11.31 32.17 11.21 32.18 11.11 32.18 11.02 32.18 10.91 32.16 10.82 32.15 10.73 32.13 10.65 32.1 10.57 32.06 10.49 32.02 10.43 31.97 10.37 31.92 10.32 31.86 10.28 31.8 10.25 31.73 10.23 31.65 10.22 31.56 10.23 31.47 10.25 31.39 10.28 31.31 10.31 31.24 10.36 31.16 10.41 31.1 10.47 31.04 10.54 30.99 10.62 30.94 10.7 30.89 10.79 30.86 10.88 30.82 10.97 30.79 11.07 30.76 11.17 30.74 11.28 30.72 11.43 30.73 11.6 30.76 11.78 30.8 11.94 30.87 12.09 30.96 12.21 31.08 12.28 31.22 12.31 31.22 12.31"/><polygon class="cls-3" points="9.43 12.37 9.29 13.16 8.39 13.16 8.42 13.01 8.44 12.88 8.45 12.78 8.47 12.73 8.42 12.79 8.36 12.84 8.29 12.9 8.22 12.95 8.13 13 8.04 13.04 7.95 13.08 7.86 13.12 7.75 13.15 7.65 13.17 7.55 13.2 7.44 13.21 7.34 13.22 7.23 13.22 7.14 13.21 7.04 13.2 6.92 13.16 6.8 13.13 6.7 13.08 6.61 13.03 6.54 12.97 6.47 12.91 6.41 12.84 6.36 12.77 6.32 12.69 6.28 12.62 6.25 12.54 6.23 12.46 6.22 12.38 6.21 12.3 6.2 12.22 6.2 12.14 6.21 12 6.23 11.87 6.27 11.75 6.31 11.63 6.37 11.51 6.43 11.41 6.51 11.31 6.59 11.22 6.68 11.14 6.78 11.07 6.88 11 6.99 10.94 7.11 10.89 7.22 10.85 7.34 10.82 7.47 10.8 7.47 10.8 7.49 10.8 7.52 10.79 7.55 10.79 7.6 10.78 7.65 10.78 7.7 10.77 7.76 10.76 7.82 10.76 7.88 10.75 7.95 10.75 8 10.74 8.06 10.74 8.11 10.73 8.16 10.73 8.2 10.73 8.28 10.73 8.37 10.73 8.45 10.74 8.53 10.74 8.59 10.74 8.64 10.74 8.67 10.75 8.68 10.75 8.69 10.72 8.71 10.66 8.73 10.58 8.74 10.52 8.72 10.44 8.69 10.37 8.65 10.3 8.59 10.25 8.53 10.2 8.45 10.17 8.37 10.15 8.27 10.14 8.17 10.14 8.07 10.14 7.96 10.14 7.84 10.14 7.72 10.15 7.61 10.16 7.5 10.17 7.39 10.18 7.28 10.2 7.18 10.21 7.09 10.23 7 10.25 6.92 10.27 6.86 10.29 6.81 10.32 6.77 10.34 7.02 9.48 7.1 9.45 7.18 9.42 7.26 9.4 7.35 9.38 7.43 9.36 7.53 9.35 7.62 9.33 7.71 9.33 7.82 9.32 7.92 9.32 8.03 9.31 8.13 9.31 8.25 9.31 8.37 9.31 8.49 9.32 8.61 9.32 8.71 9.33 8.82 9.35 8.93 9.37 9.04 9.4 9.15 9.45 9.26 9.5 9.37 9.55 9.46 9.62 9.55 9.7 9.63 9.79 9.7 9.88 9.76 9.99 9.79 10.1 9.81 10.22 9.81 10.36 9.79 10.5 9.43 12.37 9.43 12.37"/><polyline class="cls-4" points="9.43 12.37 9.29 13.16 8.39 13.16 8.42 13.01 8.44 12.88 8.45 12.78 8.47 12.73 8.42 12.79 8.36 12.84 8.29 12.9 8.22 12.95 8.13 13 8.04 13.04 7.95 13.08 7.86 13.12 7.75 13.15 7.65 13.17 7.55 13.2 7.44 13.21 7.34 13.22 7.23 13.22 7.14 13.21 7.04 13.2 6.92 13.16 6.8 13.13 6.7 13.08 6.61 13.03 6.54 12.97 6.47 12.91 6.41 12.84 6.36 12.77 6.32 12.69 6.28 12.62 6.25 12.54 6.23 12.46 6.22 12.38 6.21 12.3 6.2 12.22 6.2 12.14 6.21 12 6.23 11.87 6.27 11.75 6.31 11.63 6.37 11.51 6.43 11.41 6.51 11.31 6.59 11.22 6.68 11.14 6.78 11.07 6.88 11 6.99 10.94 7.11 10.89 7.22 10.85 7.34 10.82 7.47 10.8 7.47 10.8 7.49 10.8 7.52 10.79 7.55 10.79 7.6 10.78 7.65 10.78 7.7 10.77 7.76 10.76 7.82 10.76 7.88 10.75 7.95 10.75 8 10.74 8.06 10.74 8.11 10.73 8.16 10.73 8.2 10.73 8.28 10.73 8.37 10.73 8.45 10.74 8.53 10.74 8.59 10.74 8.64 10.74 8.67 10.75 8.68 10.75 8.69 10.72 8.71 10.66 8.73 10.58 8.74 10.52 8.72 10.44 8.69 10.37 8.65 10.3 8.59 10.25 8.53 10.2 8.45 10.17 8.37 10.15 8.27 10.14 8.17 10.14 8.07 10.14 7.96 10.14 7.84 10.14 7.72 10.15 7.61 10.16 7.5 10.17 7.39 10.18 7.28 10.2 7.18 10.21 7.09 10.23 7 10.25 6.92 10.27 6.86 10.29 6.81 10.32 6.77 10.34 7.02 9.48 7.1 9.45 7.18 9.42 7.26 9.4 7.35 9.38 7.43 9.36 7.53 9.35 7.62 9.33 7.71 9.33 7.82 9.32 7.92 9.32 8.03 9.31 8.13 9.31 8.25 9.31 8.37 9.31 8.49 9.32 8.61 9.32 8.71 9.33 8.82 9.35 8.93 9.37 9.04 9.4 9.15 9.45 9.26 9.5 9.37 9.55 9.46 9.62 9.55 9.7 9.63 9.79 9.7 9.88 9.76 9.99 9.79 10.1 9.81 10.22 9.81 10.36 9.79 10.5 9.43 12.37"/><polygon class="cls-2" points="8.58 11.45 8.57 11.43 8.56 11.41 8.54 11.4 8.5 11.39 8.46 11.38 8.42 11.38 8.36 11.38 8.31 11.38 8.26 11.39 8.2 11.39 8.14 11.4 8.08 11.41 8.03 11.41 7.98 11.43 7.93 11.44 7.89 11.45 7.87 11.45 7.84 11.46 7.8 11.48 7.76 11.5 7.72 11.52 7.67 11.54 7.62 11.57 7.58 11.6 7.53 11.63 7.48 11.67 7.44 11.71 7.4 11.75 7.36 11.8 7.34 11.85 7.32 11.9 7.31 11.96 7.3 12.08 7.32 12.18 7.36 12.25 7.4 12.3 7.46 12.34 7.51 12.36 7.57 12.37 7.63 12.37 7.74 12.37 7.83 12.36 7.92 12.34 8 12.32 8.08 12.3 8.14 12.27 8.2 12.23 8.26 12.2 8.3 12.16 8.35 12.12 8.38 12.08 8.41 12.04 8.44 11.99 8.46 11.95 8.47 11.91 8.48 11.87 8.51 11.77 8.54 11.65 8.56 11.54 8.58 11.45 8.58 11.45"/><polygon class="cls-3" points="1.97 13.16 1 13.16 1.81 8.5 3.49 8.5 3.64 11.26 4.81 8.5 6.56 8.5 5.73 13.16 4.77 13.16 5.38 9.68 5.34 9.68 3.9 13.16 2.81 13.16 2.8 13.01 2.77 12.63 2.74 12.07 2.71 11.44 2.67 10.81 2.64 10.25 2.62 9.85 2.61 9.68 2.6 9.68 2.58 9.68 2.56 9.68 1.97 13.16 1.97 13.16"/><polyline class="cls-4" points="1.97 13.16 1 13.16 1.81 8.5 3.49 8.5 3.64 11.26 4.81 8.5 6.56 8.5 5.73 13.16 4.77 13.16 5.38 9.68 5.34 9.68 3.9 13.16 2.81 13.16 2.8 13.01 2.77 12.63 2.74 12.07 2.71 11.44 2.67 10.81 2.64 10.25 2.62 9.85 2.61 9.68 2.6 9.68 2.58 9.68 2.56 9.68 1.97 13.16"/><polygon class="cls-3" points="27.04 12.38 26.9 13.17 26.01 13.17 26.01 13.02 26.02 12.89 26.02 12.8 26.02 12.76 25.98 12.81 25.93 12.86 25.86 12.91 25.79 12.96 25.72 13.01 25.63 13.05 25.54 13.09 25.45 13.13 25.36 13.16 25.26 13.19 25.16 13.2 25.06 13.22 24.96 13.22 24.86 13.23 24.76 13.22 24.67 13.2 24.54 13.17 24.43 13.14 24.32 13.09 24.23 13.04 24.16 12.98 24.09 12.92 24.03 12.85 23.98 12.78 23.94 12.7 23.91 12.63 23.88 12.55 23.86 12.47 23.85 12.39 23.84 12.31 23.83 12.23 23.83 12.15 23.84 12.01 23.86 11.88 23.89 11.76 23.94 11.63 23.99 11.52 24.06 11.42 24.13 11.32 24.21 11.23 24.3 11.15 24.4 11.07 24.5 11.01 24.61 10.95 24.72 10.9 24.84 10.86 24.96 10.83 25.08 10.81 25.09 10.81 25.1 10.8 25.13 10.8 25.16 10.8 25.21 10.79 25.26 10.79 25.31 10.78 25.37 10.77 25.43 10.77 25.49 10.76 25.55 10.76 25.61 10.75 25.67 10.74 25.72 10.74 25.77 10.74 25.81 10.74 25.89 10.74 25.98 10.74 26.06 10.74 26.14 10.74 26.21 10.75 26.27 10.75 26.3 10.76 26.31 10.76 26.32 10.73 26.33 10.67 26.34 10.59 26.35 10.53 26.33 10.45 26.3 10.38 26.26 10.31 26.2 10.26 26.14 10.21 26.07 10.18 25.99 10.16 25.9 10.15 25.8 10.15 25.7 10.15 25.59 10.14 25.47 10.15 25.36 10.15 25.24 10.17 25.13 10.18 25.02 10.19 24.91 10.21 24.81 10.22 24.72 10.24 24.63 10.26 24.55 10.28 24.49 10.3 24.44 10.33 24.4 10.35 24.65 9.49 24.73 9.46 24.81 9.43 24.89 9.41 24.98 9.39 25.07 9.37 25.15 9.36 25.25 9.34 25.34 9.34 25.44 9.33 25.54 9.33 25.65 9.32 25.76 9.32 25.87 9.32 25.98 9.32 26.1 9.33 26.22 9.33 26.32 9.34 26.43 9.35 26.54 9.38 26.65 9.41 26.76 9.45 26.87 9.5 26.98 9.56 27.08 9.63 27.17 9.71 27.25 9.79 27.32 9.89 27.37 10 27.41 10.11 27.43 10.23 27.44 10.37 27.42 10.51 27.04 12.38 27.04 12.38"/><polygon class="cls-3" points="26.9 13.19 26.92 13.17 27.07 12.38 27.02 12.38 26.88 13.16 26.9 13.14 26.9 13.19 26.92 13.19 26.92 13.17 26.9 13.19 26.9 13.19"/><polygon class="cls-3" points="25.99 13.17 26.01 13.19 26.9 13.19 26.9 13.14 26.01 13.14 26.03 13.17 25.99 13.17 25.98 13.19 26.01 13.19 25.99 13.17 25.99 13.17"/><polygon class="cls-3" points="26.04 12.77 26.01 12.74 26 12.8 25.99 12.89 25.99 13.02 25.99 13.17 26.03 13.17 26.04 13.02 26.04 12.89 26.04 12.8 26.04 12.77 26.01 12.74 26.04 12.77 26.04 12.77"/><polygon class="cls-3" points="24.66 13.22 24.66 13.22 24.76 13.24 24.86 13.25 24.96 13.25 25.06 13.24 25.16 13.23 25.26 13.21 25.36 13.18 25.46 13.15 25.55 13.12 25.64 13.07 25.73 13.03 25.8 12.98 25.88 12.93 25.94 12.88 26 12.82 26.04 12.77 26.01 12.74 25.96 12.8 25.91 12.85 25.85 12.89 25.78 12.95 25.7 12.99 25.62 13.03 25.54 13.07 25.45 13.11 25.35 13.14 25.25 13.16 25.16 13.18 25.06 13.2 24.96 13.2 24.86 13.21 24.76 13.2 24.67 13.18 24.66 13.22 24.66 13.22"/><polygon class="cls-3" points="23.8 12.15 23.8 12.15 23.81 12.23 23.82 12.31 23.83 12.39 23.84 12.47 23.86 12.55 23.89 12.63 23.92 12.71 23.96 12.79 24.01 12.86 24.07 12.93 24.14 13 24.22 13.05 24.32 13.11 24.42 13.16 24.54 13.19 24.66 13.22 24.67 13.18 24.54 13.15 24.43 13.11 24.34 13.07 24.24 13.02 24.17 12.96 24.11 12.9 24.05 12.83 24 12.77 23.96 12.69 23.93 12.62 23.9 12.54 23.88 12.47 23.87 12.38 23.86 12.31 23.85 12.23 23.85 12.15 23.8 12.15 23.8 12.15"/><polygon class="cls-3" points="25.08 10.79 25.08 10.79 24.95 10.81 24.83 10.84 24.72 10.88 24.6 10.93 24.49 10.98 24.39 11.06 24.29 11.13 24.2 11.21 24.11 11.3 24.04 11.4 23.97 11.51 23.91 11.63 23.87 11.75 23.84 11.88 23.82 12.01 23.8 12.15 23.85 12.15 23.86 12.01 23.88 11.88 23.91 11.76 23.96 11.64 24.01 11.53 24.07 11.43 24.15 11.33 24.23 11.24 24.32 11.17 24.41 11.09 24.51 11.03 24.62 10.97 24.73 10.92 24.85 10.88 24.96 10.85 25.08 10.83 25.08 10.79 25.08 10.79"/><polygon class="cls-3" points="25.81 10.71 25.81 10.71 25.77 10.71 25.72 10.72 25.67 10.72 25.61 10.73 25.55 10.73 25.49 10.74 25.43 10.74 25.37 10.75 25.31 10.76 25.26 10.77 25.21 10.77 25.16 10.78 25.13 10.78 25.1 10.78 25.09 10.79 25.08 10.79 25.08 10.83 25.09 10.83 25.11 10.83 25.13 10.82 25.16 10.82 25.21 10.81 25.26 10.81 25.31 10.8 25.37 10.79 25.43 10.79 25.49 10.78 25.55 10.78 25.61 10.77 25.67 10.77 25.72 10.76 25.77 10.76 25.81 10.76 25.81 10.71 25.81 10.71"/><polygon class="cls-3" points="26.29 10.75 26.31 10.73 26.3 10.73 26.26 10.73 26.21 10.73 26.14 10.72 26.06 10.72 25.98 10.72 25.89 10.71 25.81 10.71 25.81 10.76 25.89 10.76 25.98 10.76 26.06 10.77 26.14 10.77 26.21 10.77 26.26 10.77 26.3 10.78 26.31 10.78 26.33 10.76 26.31 10.78 26.33 10.78 26.33 10.76 26.29 10.75 26.29 10.75"/><polygon class="cls-3" points="26.32 10.53 26.32 10.53 26.32 10.59 26.31 10.66 26.3 10.73 26.29 10.75 26.33 10.76 26.34 10.73 26.35 10.67 26.36 10.59 26.37 10.53 26.37 10.52 26.32 10.53 26.32 10.53"/><polygon class="cls-3" points="25.9 10.17 25.9 10.18 25.98 10.18 26.06 10.2 26.13 10.23 26.19 10.28 26.24 10.33 26.28 10.39 26.31 10.45 26.32 10.53 26.37 10.52 26.35 10.44 26.32 10.37 26.27 10.3 26.22 10.24 26.15 10.19 26.07 10.16 25.99 10.14 25.9 10.13 25.9 10.13 25.9 10.17 25.9 10.17"/><polygon class="cls-3" points="24.38 10.34 24.41 10.36 24.45 10.35 24.5 10.32 24.56 10.3 24.64 10.28 24.72 10.26 24.81 10.24 24.92 10.23 25.02 10.21 25.13 10.2 25.24 10.19 25.36 10.18 25.47 10.17 25.59 10.17 25.7 10.17 25.8 10.17 25.9 10.17 25.9 10.13 25.8 10.13 25.7 10.12 25.59 10.12 25.47 10.13 25.36 10.13 25.24 10.14 25.13 10.16 25.02 10.17 24.91 10.18 24.81 10.2 24.71 10.22 24.63 10.24 24.55 10.26 24.48 10.28 24.43 10.3 24.39 10.33 24.42 10.35 24.38 10.34 24.38 10.34"/><polygon class="cls-3" points="24.64 9.47 24.63 9.49 24.38 10.34 24.42 10.35 24.67 9.5 24.66 9.51 24.64 9.47 24.63 9.47 24.63 9.49 24.64 9.47 24.64 9.47"/><polygon class="cls-3" points="26.22 9.31 26.22 9.31 26.1 9.3 25.98 9.3 25.87 9.3 25.76 9.3 25.65 9.3 25.54 9.3 25.44 9.31 25.34 9.31 25.25 9.32 25.15 9.34 25.06 9.35 24.97 9.37 24.89 9.38 24.8 9.41 24.72 9.44 24.64 9.47 24.66 9.51 24.73 9.48 24.82 9.45 24.89 9.43 24.98 9.41 25.07 9.39 25.16 9.38 25.25 9.36 25.34 9.36 25.44 9.35 25.54 9.35 25.65 9.35 25.76 9.35 25.87 9.35 25.98 9.35 26.1 9.35 26.22 9.35 26.22 9.31 26.22 9.31"/><polygon class="cls-3" points="27.44 10.51 27.44 10.51 27.46 10.37 27.46 10.23 27.43 10.11 27.39 9.99 27.34 9.88 27.27 9.78 27.18 9.69 27.09 9.61 26.99 9.55 26.88 9.48 26.77 9.43 26.66 9.39 26.54 9.36 26.43 9.33 26.32 9.31 26.22 9.31 26.22 9.35 26.32 9.36 26.43 9.38 26.53 9.4 26.64 9.43 26.75 9.47 26.86 9.53 26.97 9.58 27.06 9.65 27.15 9.73 27.23 9.81 27.3 9.9 27.35 10 27.39 10.11 27.41 10.23 27.41 10.37 27.4 10.5 27.44 10.51 27.44 10.51"/><polygon class="cls-3" points="27.07 12.38 27.07 12.38 27.44 10.51 27.4 10.5 27.02 12.38 27.07 12.38 27.07 12.38"/><polygon class="cls-1" points="26.18 11.46 26.18 11.43 26.16 11.42 26.14 11.41 26.1 11.39 26.07 11.39 26.02 11.39 25.96 11.39 25.91 11.39 25.86 11.4 25.8 11.4 25.74 11.41 25.69 11.42 25.64 11.43 25.59 11.44 25.54 11.45 25.51 11.46 25.48 11.46 25.45 11.47 25.42 11.48 25.38 11.49 25.33 11.52 25.29 11.54 25.24 11.56 25.2 11.59 25.15 11.63 25.1 11.66 25.06 11.7 25.02 11.75 24.99 11.8 24.97 11.85 24.95 11.91 24.94 11.97 24.93 12.09 24.95 12.19 24.98 12.26 25.02 12.31 25.07 12.35 25.13 12.37 25.2 12.38 25.25 12.38 25.36 12.38 25.46 12.37 25.55 12.35 25.64 12.32 25.71 12.3 25.78 12.26 25.84 12.23 25.9 12.19 25.95 12.15 25.99 12.1 26.03 12.06 26.06 12.01 26.09 11.97 26.11 11.93 26.12 11.88 26.13 11.85 26.15 11.75 26.16 11.64 26.18 11.54 26.18 11.46 26.18 11.46"/><polygon class="cls-3" points="33.5 12.69 33.5 12.61 33.53 12.51 33.58 12.42 33.64 12.35 33.72 12.29 33.8 12.25 33.89 12.22 33.99 12.21 34.09 12.22 34.18 12.25 34.27 12.29 34.34 12.35 34.4 12.42 34.45 12.51 34.48 12.61 34.49 12.69 34.38 12.69 34.38 12.62 34.36 12.54 34.32 12.47 34.28 12.41 34.22 12.36 34.15 12.33 34.07 12.3 33.99 12.3 33.91 12.3 33.83 12.33 33.77 12.36 33.71 12.41 33.66 12.47 33.63 12.54 33.6 12.62 33.6 12.69 33.5 12.69 33.5 12.69"/><polygon class="cls-3" points="33.81 12.69 33.81 12.47 34.01 12.47 34.05 12.48 34.09 12.48 34.12 12.49 34.14 12.51 34.16 12.53 34.18 12.55 34.18 12.58 34.19 12.6 34.18 12.63 34.18 12.66 34.17 12.68 34.16 12.69 34.01 12.69 34.02 12.68 34.05 12.68 34.07 12.67 34.09 12.66 34.1 12.65 34.11 12.64 34.12 12.63 34.12 12.6 34.11 12.58 34.11 12.57 34.09 12.56 34.08 12.55 34.07 12.55 34.05 12.55 34.03 12.55 34.01 12.55 33.9 12.55 33.9 12.69 33.81 12.69 33.81 12.69"/><polygon class="cls-3" points="33.5 12.69 33.49 12.71 33.5 12.81 33.53 12.91 33.58 12.99 33.64 13.06 33.72 13.12 33.8 13.17 33.89 13.2 33.99 13.21 34.09 13.2 34.18 13.17 34.27 13.12 34.34 13.06 34.4 12.99 34.45 12.91 34.48 12.81 34.49 12.71 34.49 12.69 34.38 12.69 34.39 12.71 34.38 12.79 34.36 12.87 34.32 12.94 34.28 13 34.22 13.05 34.15 13.09 34.07 13.11 33.99 13.12 33.91 13.11 33.83 13.09 33.77 13.05 33.71 13 33.66 12.94 33.63 12.87 33.6 12.79 33.6 12.71 33.6 12.69 33.5 12.69 33.5 12.69"/><polygon class="cls-3" points="33.81 12.69 33.81 12.9 33.9 12.9 33.9 12.72 33.99 12.72 34.1 12.9 34.17 12.9 34.06 12.72 34.09 12.72 34.11 12.72 34.13 12.71 34.15 12.7 34.16 12.69 34.01 12.69 33.99 12.69 33.9 12.69 33.9 12.69 33.81 12.69 33.81 12.69"/><path class="cls-4" d="M33.49,12.71h0V12.6l0-.09,0-.09.06-.07.08-.06.08,0,.09,0h.2l.09,0,.09,0,.07.06.06.07.05.09,0,.09v.21l0,.1L34.4,13l-.06.07-.07.06-.09.05-.09,0h-.2l-.09,0-.08-.05-.08-.06L33.58,13l0-.08,0-.1v-.1m.41.19h-.09v-.43h.28l0,0h0l0,0,0,0v.13l0,0h-.09l.11.18H34.1L34,12.72H33.9v.18m.09-.21h.13v-.05H33.9v.14H34m0,.43h.08l.08,0,.07,0,.06-.05,0-.06,0-.07,0-.08v-.17l0-.08,0-.07,0-.06-.06-.05-.07,0-.08,0h-.16l-.08,0-.06,0-.06.05-.05.06,0,.07,0,.08v.17l0,.08,0,.07.05.06,0,.05.07,0,.08,0H34"/><polygon class="cls-3" points="27.31 13.17 28.31 13.17 28.67 11.15 28.68 11.07 28.7 10.99 28.73 10.92 28.75 10.84 28.79 10.76 28.83 10.69 28.88 10.62 28.93 10.55 29 10.49 29.07 10.43 29.15 10.38 29.25 10.33 29.35 10.3 29.46 10.27 29.59 10.25 29.73 10.24 29.77 10.24 29.8 10.24 29.81 10.24 29.97 9.33 29.87 9.34 29.78 9.35 29.69 9.37 29.6 9.39 29.53 9.42 29.45 9.46 29.38 9.49 29.31 9.54 29.25 9.59 29.19 9.63 29.13 9.69 29.08 9.75 29.02 9.81 28.97 9.88 28.91 9.94 28.86 10.01 28.97 9.37 27.97 9.37 27.31 13.17 27.31 13.17"/><polyline class="cls-4" points="27.31 13.17 28.31 13.17 28.67 11.15 28.68 11.07 28.7 10.99 28.73 10.92 28.75 10.84 28.79 10.76 28.83 10.69 28.88 10.62 28.93 10.55 29 10.49 29.07 10.43 29.15 10.38 29.25 10.33 29.35 10.3 29.46 10.27 29.59 10.25 29.73 10.24 29.77 10.24 29.8 10.24 29.81 10.24 29.97 9.33 29.87 9.34 29.78 9.35 29.69 9.37 29.6 9.39 29.53 9.42 29.45 9.46 29.38 9.49 29.31 9.54 29.25 9.59 29.19 9.63 29.13 9.69 29.08 9.75 29.02 9.81 28.97 9.88 28.91 9.94 28.86 10.01 28.97 9.37 27.97 9.37 27.31 13.17"/><polygon class="cls-3" points="17.91 13.16 18.91 13.17 18.93 13.17 19.27 11.15 19.29 11.07 19.3 10.99 19.32 10.92 19.35 10.85 19.38 10.78 19.41 10.71 19.45 10.65 19.5 10.59 19.56 10.53 19.62 10.48 19.7 10.44 19.79 10.4 19.89 10.37 20 10.34 20.12 10.32 20.26 10.31 20.27 10.31 20.28 10.31 20.3 10.32 20.32 10.32 20.34 10.32 20.35 10.32 20.36 10.33 20.36 10.33 20.37 10.31 20.38 10.27 20.39 10.21 20.41 10.13 20.43 10.04 20.46 9.94 20.49 9.84 20.52 9.74 20.55 9.67 20.59 9.6 20.62 9.54 20.66 9.47 20.69 9.42 20.71 9.38 20.73 9.36 20.74 9.35 20.74 9.35 20.72 9.34 20.7 9.34 20.68 9.33 20.65 9.33 20.63 9.33 20.6 9.33 20.58 9.33 20.47 9.33 20.37 9.35 20.27 9.36 20.19 9.38 20.11 9.41 20.03 9.45 19.96 9.48 19.9 9.53 19.84 9.57 19.78 9.62 19.73 9.68 19.68 9.74 19.63 9.8 19.57 9.87 19.52 9.94 19.47 10.01 19.6 9.37 18.58 9.37 17.91 13.16 17.91 13.16"/><polyline class="cls-4" points="17.91 13.16 18.91 13.17 18.93 13.17 19.27 11.15 19.29 11.07 19.3 10.99 19.32 10.92 19.35 10.85 19.38 10.78 19.41 10.71 19.45 10.65 19.5 10.59 19.56 10.53 19.62 10.48 19.7 10.44 19.79 10.4 19.89 10.37 20 10.34 20.12 10.32 20.26 10.31 20.27 10.31 20.28 10.31 20.3 10.32 20.32 10.32 20.34 10.32 20.35 10.32 20.36 10.33 20.36 10.33 20.37 10.31 20.38 10.27 20.39 10.21 20.41 10.13 20.43 10.04 20.46 9.94 20.49 9.84 20.52 9.74 20.55 9.67 20.59 9.6 20.62 9.54 20.66 9.47 20.69 9.42 20.71 9.38 20.73 9.36 20.74 9.35 20.74 9.35 20.72 9.34 20.7 9.34 20.68 9.33 20.65 9.33 20.63 9.33 20.6 9.33 20.58 9.33 20.47 9.33 20.37 9.35 20.27 9.36 20.19 9.38 20.11 9.41 20.03 9.45 19.96 9.48 19.9 9.53 19.84 9.57 19.78 9.62 19.73 9.68 19.68 9.74 19.63 9.8 19.57 9.87 19.52 9.94 19.47 10.01 19.6 9.37 18.58 9.37 17.91 13.16"/></g></g></svg>