<svg xmlns="http://www.w3.org/2000/svg" viewBox="0 0 11.03 11.53"><g id="Слой_2" data-name="Слой 2"><g id="Capa_1" data-name="Capa 1"><path d="M7.58,5a2.78,2.78,0,1,0-.2.19Zm-2.07.58A2.65,2.65,0,1,1,8.16,3,2.65,2.65,0,0,1,5.51,5.62Z"/><path d="M5.51,6a3,3,0,1,1,3-3,2.94,2.94,0,0,1-.87,2.1h0l-.21.18A2.94,2.94,0,0,1,5.51,6ZM5.51.1A2.88,2.88,0,1,0,7.34,5.19L7.55,5a2.87,2.87,0,0,0-2-4.9Zm0,5.57A2.7,2.7,0,1,1,8.21,3,2.7,2.7,0,0,1,5.51,5.67Zm0-5.29A2.6,2.6,0,1,0,8.11,3,2.59,2.59,0,0,0,5.51.38Z"/><path d="M10.83,11.53a.21.21,0,0,1-.19-.12C9,8,7.33,6.24,5.58,6.24h0C2.58,6.3.41,11.36.38,11.41a.19.19,0,0,1-.26.1.19.19,0,0,1-.1-.26C.11,11,2.31,5.9,5.53,5.84h0c1.92,0,3.74,1.82,5.43,5.4a.21.21,0,0,1-.1.27Z"/></g></g></svg>