<svg xmlns="http://www.w3.org/2000/svg" viewBox="0 0 28.9 28.9"><path d="M5.9 1H6a4.4 4.4 0 0 1 3.1 2c3 3.8 1.7 5.2 0 6.8L9 10c-.3.3-.8 1.5 3.9 6a25.6 25.6 0 0 0 3.8 3.3 4.1 4.1 0 0 0 1.8.8.6.6 0 0 0 .4-.2l.3-.3c1-.9 1.7-1.7 3-1.7 1 0 2.1.5 3.8 1.8a4.4 4.4 0 0 1 2 3.1c0 1.5-1.2 2.7-2.2 3.7l-.6.5a3.5 3.5 0 0 1-2.5.8 11.5 11.5 0 0 1-4-.8 29.7 29.7 0 0 1-10-6.8 29.8 29.8 0 0 1-6.8-10c-1.1-3-1.1-5.4 0-6.5l.5-.5c1-1 2.1-2.2 3.6-2.2m0-1C4 0 2.7 1.4 1.6 2.5l-.5.5C-.3 4.4-.4 7.2 1 10.6A30.7 30.7 0 0 0 8 20.9 30.7 30.7 0 0 0 18.3 28a12.4 12.4 0 0 0 4.3.9 4.5 4.5 0 0 0 3.2-1.1l.5-.4c1.2-1.2 2.6-2.6 2.6-4.5a5.3 5.3 0 0 0-2.4-3.9c-1.8-1.4-3.2-2-4.4-2-1.7 0-2.8 1-3.7 2l-.1.1a3.9 3.9 0 0 1-1.2-.5 24.5 24.5 0 0 1-3.6-3.2c-3.2-3.1-3.7-4.4-3.7-4.8v-.1c2-2 3.4-4 0-8.1A5.3 5.3 0 0 0 6 0z"/></svg>