<svg xmlns="http://www.w3.org/2000/svg" data-name="Capa 1" viewBox="0 0 40 40"><path d="M33.3 21.3h-2v-3.7h-5.5v-3.5h-8.7a14.8 14.8 0 0 0 2.3-1.1 3.8 3.8 0 0 0 1.8-2.7 2 2 0 0 0-1-1.7 2 2 0 0 0-2.1-.4c-1.4.6-2.1 3-2.5 4.7-.3-1.6-1-4-2.4-4.6a2 2 0 0 0-2.1.4 2 2 0 0 0-1 1.7 3.8 3.8 0 0 0 1.8 2.6 13 13 0 0 0 2.1 1H6.2v14.6h3a2 2 0 0 0-.6 1.4 2 2 0 1 0 3.4-1.4h15.8a2 2 0 1 0 2.8 0h2.7zM10.6 31.4A1.4 1.4 0 1 1 12 30a1.4 1.4 0 0 1-1.4 1.4zm20.2-13.2v3h-5v-3zM18.4 8.7a1.1 1.1 0 0 1 .4-.1A1.9 1.9 0 0 1 20 9a1.4 1.4 0 0 1 .7 1.2 3.3 3.3 0 0 1-1.5 2.2 17.3 17.3 0 0 1-3 1.4c.2-1.6 1-4.5 2.3-5.1zm-7.6 1.6a1.4 1.4 0 0 1 .7-1.2 1.9 1.9 0 0 1 1-.4 1.1 1.1 0 0 1 .5 0c1.3.7 2 3.6 2.3 5.2a17.7 17.7 0 0 1-3-1.4 3.2 3.2 0 0 1-1.5-2.2zM25.2 28H6.8V14.7h8l-4.4 4.1.5.5 4.8-4.6 4.6 4.6.4-.4-4.3-4.2h8.8zm5.4 2a1.4 1.4 0 1 1-1.4-1.4 1.4 1.4 0 0 1 1.4 1.4zm2-2h-6.8v-6.1h6.9z"/></svg>