<svg xmlns="http://www.w3.org/2000/svg" data-name="Capa 1" viewBox="0 0 40 40"><path d="M25 14.5l3.7-2.4.2-.1-2-3a2.4 2.4 0 0 0-3.3-.7l-3.4 2.2a2.9 2.9 0 0 0-2-4.2 2.8 2.8 0 0 0-2.2.5 2.9 2.9 0 0 0-1.2 2.6l.3 3.8-2.1-2.8a2.9 2.9 0 0 0-2.7-1 2.9 2.9 0 0 0 .4 5.7 2.7 2.7 0 0 0 .4 0l2.7-.4-5.6 3.6a2.4 2.4 0 0 0-.7 3.3l2 3 4.2-2.7v11.9h19.2V14.4zm-1-5.8a1.9 1.9 0 0 1 1-.3 1.7 1.7 0 0 1 .3 0 1.8 1.8 0 0 1 1.2.8l1.7 2.6-8.7 5.6-1.4-2.3-1.2-2h.1zm-7.7-1.5a2.3 2.3 0 0 1 1.4-.4 2.7 2.7 0 0 1 .4 0 2.4 2.4 0 0 1 1.5 1 2.4 2.4 0 0 1-.5 3.3l-2.4 1.7-1 .6-.3-4a2.4 2.4 0 0 1 1-2.2zm-5.2 7.3a2.4 2.4 0 0 1-2.7-2 2.4 2.4 0 0 1 2-2.6 1.8 1.8 0 0 1 .3 0 2.3 2.3 0 0 1 1.9.9l2.5 3-.3.3zm-3.2 6.8a1.9 1.9 0 0 1 .5-2.6l6.1-3.9 1.1 1.9 1.5 2.4-7.5 4.8zm24.5 12H14.1V21.6L24.3 15h8.1z"/></svg>