<svg xmlns="http://www.w3.org/2000/svg" data-name="Capa 1" viewBox="0 0 40 40"><path d="M31.7 23.8h-1.6v-3.3h-2.5a6.5 6.5 0 0 0 1.5-1.4 7.5 7.5 0 1 0-12.7-1.6H8.3v12.6h2.6a1.7 1.7 0 0 0-.5 1.2 1.7 1.7 0 1 0 3-1.2H27a1.7 1.7 0 1 0 2.5 0h2.2zM29.5 21v2.6h-4.3v-2.6zM12.1 32.5a1.2 1.2 0 1 1 1.2-1.2 1.2 1.2 0 0 1-1.2 1.2zm12.6-3H8.8V18h16zm-7-12H17A7 7 0 1 1 28.8 19a6.3 6.3 0 0 1-2.2 1.7h-1.4v-3zm10.5 15a1.2 1.2 0 0 1 0-2.3 1.2 1.2 0 0 1 0 2.4zm3-2.9h-6v-5.3h6z"/><path d="M27.2 14.3h-4V9.4h-.5v5.4h4.5v-.5z"/></svg>