<svg xmlns="http://www.w3.org/2000/svg" viewBox="0 0 10.56 16.45"><path d="M5.63,10.15a4.83,4.83,0,0,1,.78-1.26A14.13,14.13,0,0,1,7.63,7.7,9.44,9.44,0,0,0,9.24,6a3.49,3.49,0,0,0,.53-2A2.92,2.92,0,0,0,8.63,1.62,4.9,4.9,0,0,0,5.45.7a7.38,7.38,0,0,0-2.83.49A5.36,5.36,0,0,0,.56,2.65L0,2.19A6.91,6.91,0,0,1,5.47,0,5.87,5.87,0,0,1,9.18,1.08a3.44,3.44,0,0,1,1.38,2.85,4.36,4.36,0,0,1-.31,1.72,4.53,4.53,0,0,1-.77,1.27,12.74,12.74,0,0,1-1.22,1.2,14.17,14.17,0,0,0-1.15,1.1,3.85,3.85,0,0,0-.72,1.12,3.7,3.7,0,0,0-.29,1.53H5.31A4.19,4.19,0,0,1,5.63,10.15Zm-.45,6.08A.7.7,0,0,1,5,15.71a.74.74,0,0,1,.22-.55.7.7,0,0,1,.52-.22.75.75,0,0,1,.77.77.7.7,0,0,1-.22.52.74.74,0,0,1-.55.22A.7.7,0,0,1,5.18,16.23Z"/></svg>