<svg xmlns="http://www.w3.org/2000/svg" viewBox="0 0 10.14 13.43"><path d="M-20.63,24.23a7.71,7.71,0,0,0,2-1.25,1.34,1.34,0,0,0,0-1.84,1.22,1.22,0,0,0-.87-0.37,1.22,1.22,0,0,0-.88.37,8.11,8.11,0,0,0-1.19,2.1,8.15,8.15,0,0,0-1.2-2.1,1.22,1.22,0,0,0-.88-0.37,1.22,1.22,0,0,0-.88.37,1.34,1.34,0,0,0,0,1.84,7.76,7.76,0,0,0,2,1.26h-4v10h10.14v-10h-4.28Zm1.15-2.56a0.31,0.31,0,0,1,.23.09,0.43,0.43,0,0,1,0,.59,5.17,5.17,0,0,1-1.29.83,5.67,5.67,0,0,1,.83-1.42A0.24,0.24,0,0,1-19.48,21.67Zm2.23,3.46v8.17h-8.34V25.13h8.34Zm-6.59-3.37a0.31,0.31,0,0,1,.23-0.1,0.31,0.31,0,0,1,.23.1,5.65,5.65,0,0,1,.83,1.42,5.19,5.19,0,0,1-1.29-.83A0.43,0.43,0,0,1-23.84,21.76Z" transform="translate(26.49 -20.76)"/></svg>