<svg id="Capa_1" data-name="Capa 1" xmlns="http://www.w3.org/2000/svg" viewBox="0 0 24.2 24.2"><title>test</title><path d="M69.3,41.2H54.1a4.48,4.48,0,0,0-4.5,4.5V60.9a4.48,4.48,0,0,0,4.5,4.5H69.3a4.48,4.48,0,0,0,4.5-4.5V45.7A4.48,4.48,0,0,0,69.3,41.2ZM62.5,60H57.9a0.43,0.43,0,0,1-.4-0.4V47a0.43,0.43,0,0,1,.4-0.4h4.2a6.59,6.59,0,0,1,1,.07,4.9,4.9,0,0,1,1.64.53,3.82,3.82,0,0,1,.65.45A3.62,3.62,0,0,1,66.6,50.5a3.16,3.16,0,0,1-1.2,2.7A3.05,3.05,0,0,1,67,56.1C67,58.5,65.2,60,62.5,60Z" transform="translate(-49.6 -41.2)"/><path d="M62.5,54.6H60.2v2.8h2.3c1.25,0,1.84-.37,1.89-1.28A1.63,1.63,0,0,0,62.5,54.6Z" transform="translate(-49.6 -41.2)"/><path d="M64,50.5c0-.9-0.5-1.3-1.9-1.3H60.2V52h1.9A1.61,1.61,0,0,0,64,50.5Z" transform="translate(-49.6 -41.2)"/></svg>