<svg xmlns="http://www.w3.org/2000/svg" viewBox="0 0 24.2 24.2"><path d="M19.7 0H4.5A4.5 4.5 0 0 0 0 4.5v15.2a4.5 4.5 0 0 0 4.5 4.5h15.2a4.5 4.5 0 0 0 4.5-4.5V4.5A4.5 4.5 0 0 0 19.7 0zm-6.8 18.8H8.3a.4.4 0 0 1-.4-.4V5.8a.4.4 0 0 1 .4-.4h4.2a6.6 6.6 0 0 1 1 0 4.9 4.9 0 0 1 1.6.6 3.8 3.8 0 0 1 .7.4A3.6 3.6 0 0 1 17 9.3a3.2 3.2 0 0 1-1.2 2.7 3 3 0 0 1 1.6 2.9c0 2.4-1.8 3.9-4.5 3.9z"/><path d="M12.9 13.4h-2.3v2.8h2.3c1.3 0 1.8-.4 1.9-1.3a1.6 1.6 0 0 0-1.9-1.5zM14.4 9.3c0-.9-.5-1.3-1.9-1.3h-1.9v2.8h1.9a1.6 1.6 0 0 0 1.9-1.5z"/></svg>