<svg xmlns="http://www.w3.org/2000/svg" viewBox="0 0 8.25 15.06"><g id="Слой_2" data-name="Слой 2"><g id="Layer_1" data-name="Layer 1"><path d="M8.25,7.38A4.11,4.11,0,0,0,6.67,4.15V0H1.38V4.32a4.07,4.07,0,0,0,0,6.11v4.63H6.67V10.6A4.08,4.08,0,0,0,8.25,7.38ZM2.13,14.31V11a4.09,4.09,0,0,0,2,.53,4.17,4.17,0,0,0,1.79-.42v3.23Zm2-3.56A3.38,3.38,0,1,1,7.5,7.38,3.37,3.37,0,0,1,4.13,10.75ZM5.92.75V3.68a4,4,0,0,0-1.79-.43,4.09,4.09,0,0,0-2,.54v-3Z"/><rect x="4.57" y="5.58" width="0.56" height="2.56"/><rect x="3.57" y="6.58" width="0.56" height="2.56" transform="translate(11.72 4.02) rotate(90)"/></g></g></svg>